<svg version="1.1" xmlns="http://www.w3.org/2000/svg" xmlns:xlink="http://www.w3.org/1999/xlink" width="445" height="1093"><defs/><g><g transform="translate(-166,-6) scale(1,1)"><path fill="#C0C0C0" stroke="none" d="M 231 32.5 C 231 27.2532944 235.2532944 23 240.5 23 C 245.7467056 23 250 27.2532944 250 32.5 C 250 37.7467056 245.7467056 42 240.5 42 C 235.2532944 42 231 37.7467056 231 32.5 Z" opacity="0.2"/></g><g transform="translate(-166,-6) scale(1,1)"><path fill="#000000" stroke="none" d="M 224 25.5 C 224 20.2532944 228.2532944 16 233.5 16 C 238.7467056 16 243 20.2532944 243 25.5 C 243 30.7467056 238.7467056 35 233.5 35 C 228.2532944 35 224 30.7467056 224 25.5 Z"/></g><g transform="translate(-166,-6) scale(1,1)"><path fill="#C0C0C0" stroke="none" d="M 361 119 L 449.5029296875 119 Q 459.5029296875 119 459.5029296875 129 L 459.5029296875 149 Q 459.5029296875 159 449.5029296875 159 L 361 159 Q 351 159 351 149 L 351 129 Q 351 119 361 119 Z" opacity="0.2"/></g><g transform="translate(-166,-6) scale(1,1)"><path fill="#ffffff" stroke="none" d="M 354 112 L 442.5029296875 112 Q 452.5029296875 112 452.5029296875 122 L 452.5029296875 142 Q 452.5029296875 152 442.5029296875 152 L 354 152 Q 344 152 344 142 L 344 122 Q 344 112 354 112 Z"/></g><g transform="translate(-166,-6) scale(1,1)"><path fill="none" stroke="#000000" d="M 354 112 L 442.5029296875 112 Q 452.5029296875 112 452.5029296875 122 L 452.5029296875 142 Q 452.5029296875 152 442.5029296875 152 L 354 152 Q 344 152 344 142 L 344 122 Q 344 112 354 112 Z" stroke-miterlimit="10"/></g><g transform="translate(-166,-6) scale(1,1)"><g><path fill="none" stroke="none"/><text fill="#000000" stroke="none" font-family="Arial" font-size="13px" font-style="normal" font-weight="bold" text-decoration="none" x="354.75146484375" y="131.5">Create Context</text></g></g><g transform="translate(-166,-6) scale(1,1)"><path fill="#C0C0C0" stroke="none" d="M 199 139.5 L 243.5 103 L 287 139.5 L 243.5 175 L 199 139.5" opacity="0.2"/></g><g transform="translate(-166,-6) scale(1,1)"><path fill="#ffffff" stroke="none" d="M 192 132 L 236 96 L 280 132 L 236 168 L 192 132"/></g><g transform="translate(-166,-6) scale(1,1)"><path fill="none" stroke="#000000" d="M 192 132 L 236 96 L 280 132 L 236 168 L 192 132 L 192 132" stroke-miterlimit="10"/></g><g transform="translate(-166,-6) scale(1,1)"><g><path fill="none" stroke="none"/><text fill="#000000" stroke="none" font-family="Arial" font-size="13px" font-style="normal" font-weight="normal" text-decoration="none" x="213" y="130">Context</text><text fill="#000000" stroke="none" font-family="Arial" font-size="13px" font-style="normal" font-weight="normal" text-decoration="none" x="213" y="143">exists?</text></g></g><g transform="translate(-166,-6) scale(1,1)"><path fill="none" stroke="#000000" d="M 233 36 L 235 95" stroke-miterlimit="10"/></g><g transform="translate(-166,-6) scale(1,1)"><path fill="none" stroke="#000000" d="M 230.44859903663905 84.98577265732813 L 235 95 L 238.8628015772555 84.70054545256147" stroke-miterlimit="10"/></g><g transform="translate(-166,-6) scale(1,1)"><path fill="#C0C0C0" stroke="none" d="M 207 295.5 L 245.5 263 L 283 295.5 L 245.5 327 L 207 295.5" opacity="0.2"/></g><g transform="translate(-166,-6) scale(1,1)"><path fill="#ffffff" stroke="none" d="M 200 288 L 238 256 L 276 288 L 238 320 L 200 288"/></g><g transform="translate(-166,-6) scale(1,1)"><path fill="none" stroke="#000000" d="M 200 288 L 238 256 L 276 288 L 238 320 L 200 288 L 200 288" stroke-miterlimit="10"/></g><g transform="translate(-166,-6) scale(1,1)"><path fill="none" stroke="#000000" d="M 236 169 L 238 255" stroke-miterlimit="10"/></g><g transform="translate(-166,-6) scale(1,1)"><path fill="none" stroke="#000000" d="M 233.55534271416747 244.9379414824055 L 238 255 L 241.97210250362454 244.7422028826507" stroke-miterlimit="10"/></g><g transform="translate(-166,-6) scale(1,1)"><g><path fill="none" stroke="none"/><text fill="#000000" stroke="none" font-family="Arial" font-size="13px" font-style="normal" font-weight="normal" text-decoration="none" x="239.5" y="217.5">Yes</text></g></g><g transform="translate(-166,-6) scale(1,1)"><path fill="none" stroke="#000000" d="M 281 132 L 343 132" stroke-miterlimit="10"/></g><g transform="translate(-166,-6) scale(1,1)"><path fill="none" stroke="#000000" d="M 332.83732514237585 136.209517756016 L 343 132 L 332.83732514237585 127.79048224398402" stroke-miterlimit="10"/></g><g transform="translate(-166,-6) scale(1,1)"><g><path fill="none" stroke="none"/><text fill="#000000" stroke="none" font-family="Arial" font-size="13px" font-style="normal" font-weight="normal" text-decoration="none" x="304.294677734375" y="123.5">No</text></g></g><g transform="translate(-166,-6) scale(1,1)"><path fill="none" stroke="#000000" d="M 376 153 L 272 255" stroke-miterlimit="10"/></g><g transform="translate(-166,-6) scale(1,1)"><path fill="none" stroke="#000000" d="M 276.30798147270514 244.87867125171653 L 272 255 L 282.2030631051054 250.88934272004622" stroke-miterlimit="10"/></g><g transform="translate(-166,-6) scale(1,1)"><path fill="#C0C0C0" stroke="none" d="M 337 279 L 465.43310546875 279 Q 475.43310546875 279 475.43310546875 289 L 475.43310546875 309 Q 475.43310546875 319 465.43310546875 319 L 337 319 Q 327 319 327 309 L 327 289 Q 327 279 337 279 Z" opacity="0.2"/></g><g transform="translate(-166,-6) scale(1,1)"><path fill="#ffffff" stroke="none" d="M 330 272 L 458.43310546875 272 Q 468.43310546875 272 468.43310546875 282 L 468.43310546875 302 Q 468.43310546875 312 458.43310546875 312 L 330 312 Q 320 312 320 302 L 320 282 Q 320 272 330 272 Z"/></g><g transform="translate(-166,-6) scale(1,1)"><path fill="none" stroke="#000000" d="M 330 272 L 458.43310546875 272 Q 468.43310546875 272 468.43310546875 282 L 468.43310546875 302 Q 468.43310546875 312 458.43310546875 312 L 330 312 Q 320 312 320 302 L 320 282 Q 320 272 330 272 Z" stroke-miterlimit="10"/></g><g transform="translate(-166,-6) scale(1,1)"><g><path fill="none" stroke="none"/><text fill="#000000" stroke="none" font-family="Arial" font-size="13px" font-style="normal" font-weight="bold" text-decoration="none" x="336.216552734375" y="291.5">print welcome string</text></g></g><g transform="translate(-166,-6) scale(1,1)"><path fill="#C0C0C0" stroke="none" d="M 583 299.5 C 583 292.59644 588.59644 287 595.5 287 C 602.40356 287 608 292.59644 608 299.5 C 608 306.40356 602.40356 312 595.5 312 C 588.59644 312 583 306.40356 583 299.5 Z" opacity="0.2"/></g><g transform="translate(-166,-6) scale(1,1)"><path fill="none" stroke="#000000" d="M 576 292.5 C 576 285.59644 581.59644 280 588.5 280 C 595.40356 280 601 285.59644 601 292.5 C 601 299.40356 595.40356 305 588.5 305 C 581.59644 305 576 299.40356 576 292.5 Z" stroke-miterlimit="10"/></g><g transform="translate(-166,-6) scale(1,1)"><path fill="#000000" stroke="none" d="M 581 292.5 C 581 288.357864 584.357864 285 588.5 285 C 592.642136 285 596 288.357864 596 292.5 C 596 296.642136 592.642136 300 588.5 300 C 584.357864 300 581 296.642136 581 292.5 Z"/></g><g transform="translate(-166,-6) scale(1,1)"><path fill="none" stroke="#000000" d="M 277 289 L 319 290" stroke-miterlimit="10"/></g><g transform="translate(-166,-6) scale(1,1)"><path fill="none" stroke="#000000" d="M 308.7400062785854 293.9664251961348 L 319 290 L 308.9404027114002 285.54977501791245" stroke-miterlimit="10"/></g><g transform="translate(-166,-6) scale(1,1)"><g><path fill="none" stroke="none"/><text fill="#000000" stroke="none" font-family="Arial" font-size="13px" font-style="normal" font-weight="normal" text-decoration="none" x="290.294677734375" y="280.5">No</text></g></g><g transform="translate(-166,-6) scale(1,1)"><path fill="none" stroke="#000000" d="M 469 292 L 575 292" stroke-miterlimit="10"/></g><g transform="translate(-166,-6) scale(1,1)"><path fill="none" stroke="#000000" d="M 564.8373251423759 296.209517756016 L 575 292 L 564.8373251423758 287.790482243984" stroke-miterlimit="10"/></g><g transform="translate(-166,-6) scale(1,1)"><g><path fill="none" stroke="none"/><text fill="#000000" stroke="none" font-family="Arial" font-size="13px" font-style="normal" font-weight="normal" text-decoration="none" x="467.75341796875" y="283.5">Terminate program</text></g></g><g transform="translate(-166,-6) scale(1,1)"><path fill="#C0C0C0" stroke="none" d="M 201 375 L 313.15771484375 375 Q 323.15771484375 375 323.15771484375 385 L 323.15771484375 405 Q 323.15771484375 415 313.15771484375 415 L 201 415 Q 191 415 191 405 L 191 385 Q 191 375 201 375 Z" opacity="0.2"/></g><g transform="translate(-166,-6) scale(1,1)"><path fill="#ffffff" stroke="none" d="M 194 368 L 306.15771484375 368 Q 316.15771484375 368 316.15771484375 378 L 316.15771484375 398 Q 316.15771484375 408 306.15771484375 408 L 194 408 Q 184 408 184 398 L 184 378 Q 184 368 194 368 Z"/></g><g transform="translate(-166,-6) scale(1,1)"><path fill="none" stroke="#000000" d="M 194 368 L 306.15771484375 368 Q 316.15771484375 368 316.15771484375 378 L 316.15771484375 398 Q 316.15771484375 408 306.15771484375 408 L 194 408 Q 184 408 184 398 L 184 378 Q 184 368 194 368 Z" stroke-miterlimit="10"/></g><g transform="translate(-166,-6) scale(1,1)"><g><path fill="none" stroke="none"/><text fill="#000000" stroke="none" font-family="Arial" font-size="13px" font-style="normal" font-weight="bold" text-decoration="none" x="198.578857421875" y="387.5">register help flags</text></g></g><g transform="translate(-166,-6) scale(1,1)"><path fill="none" stroke="#000000" d="M 242 321 L 247 367" stroke-miterlimit="10"/></g><g transform="translate(-166,-6) scale(1,1)"><path fill="none" stroke="#000000" d="M 241.71696091113347 357.351710100463 L 247 367 L 250.08669844980517 356.44195602017254" stroke-miterlimit="10"/></g><g transform="translate(-166,-6) scale(1,1)"><g><path fill="none" stroke="none"/><text fill="#000000" stroke="none" font-family="Arial" font-size="13px" font-style="normal" font-weight="normal" text-decoration="none" x="246.5" y="348.5">Yes</text></g></g><g transform="translate(-166,-6) scale(1,1)"><g><path fill="none" stroke="none"/><text fill="#000000" stroke="none" font-family="Arial" font-size="13px" font-style="normal" font-weight="normal" text-decoration="none" x="221" y="290">Flags</text><text fill="#000000" stroke="none" font-family="Arial" font-size="13px" font-style="normal" font-weight="normal" text-decoration="none" x="221" y="303">set?</text></g></g><g transform="translate(-166,-6) scale(1,1)"><path fill="#C0C0C0" stroke="none" d="M 207 491.5 L 243.5 455 L 279 491.5 L 243.5 527 L 207 491.5" opacity="0.2"/></g><g transform="translate(-166,-6) scale(1,1)"><path fill="#ffffff" stroke="none" d="M 200 484 L 236 448 L 272 484 L 236 520 L 200 484"/></g><g transform="translate(-166,-6) scale(1,1)"><path fill="none" stroke="#000000" d="M 200 484 L 236 448 L 272 484 L 236 520 L 200 484 L 200 484" stroke-miterlimit="10"/></g><g transform="translate(-166,-6) scale(1,1)"><path fill="#C0C0C0" stroke="none" d="M 393 471 L 447.80322265625 471 Q 457.80322265625 471 457.80322265625 481 L 457.80322265625 501 Q 457.80322265625 511 447.80322265625 511 L 393 511 Q 383 511 383 501 L 383 481 Q 383 471 393 471 Z" opacity="0.2"/></g><g transform="translate(-166,-6) scale(1,1)"><path fill="#ffffff" stroke="none" d="M 386 464 L 440.80322265625 464 Q 450.80322265625 464 450.80322265625 474 L 450.80322265625 494 Q 450.80322265625 504 440.80322265625 504 L 386 504 Q 376 504 376 494 L 376 474 Q 376 464 386 464 Z"/></g><g transform="translate(-166,-6) scale(1,1)"><path fill="none" stroke="#000000" d="M 386 464 L 440.80322265625 464 Q 450.80322265625 464 450.80322265625 474 L 450.80322265625 494 Q 450.80322265625 504 440.80322265625 504 L 386 504 Q 376 504 376 494 L 376 474 Q 376 464 386 464 Z" stroke-miterlimit="10"/></g><g transform="translate(-166,-6) scale(1,1)"><g><path fill="none" stroke="none"/><text fill="#000000" stroke="none" font-family="Arial" font-size="13px" font-style="normal" font-weight="bold" text-decoration="none" x="386.901611328125" y="483.5">print help</text></g></g><g transform="translate(-166,-6) scale(1,1)"><path fill="#C0C0C0" stroke="none" d="M 575 491.5 C 575 484.59644 580.59644 479 587.5 479 C 594.40356 479 600 484.59644 600 491.5 C 600 498.40356 594.40356 504 587.5 504 C 580.59644 504 575 498.40356 575 491.5 Z" opacity="0.2"/></g><g transform="translate(-166,-6) scale(1,1)"><path fill="none" stroke="#000000" d="M 568 484.5 C 568 477.59644 573.59644 472 580.5 472 C 587.40356 472 593 477.59644 593 484.5 C 593 491.40356 587.40356 497 580.5 497 C 573.59644 497 568 491.40356 568 484.5 Z" stroke-miterlimit="10"/></g><g transform="translate(-166,-6) scale(1,1)"><path fill="#000000" stroke="none" d="M 573 484.5 C 573 480.357864 576.357864 477 580.5 477 C 584.642136 477 588 480.357864 588 484.5 C 588 488.642136 584.642136 492 580.5 492 C 576.357864 492 573 488.642136 573 484.5 Z"/></g><g transform="translate(-166,-6) scale(1,1)"><path fill="#C0C0C0" stroke="none" d="M 183 647.5 L 243.5 591 L 303 647.5 L 243.5 703 L 183 647.5" opacity="0.2"/></g><g transform="translate(-166,-6) scale(1,1)"><path fill="#ffffff" stroke="none" d="M 176 640 L 236 584 L 296 640 L 236 696 L 176 640"/></g><g transform="translate(-166,-6) scale(1,1)"><path fill="none" stroke="#000000" d="M 176 640 L 236 584 L 296 640 L 236 696 L 176 640 L 176 640" stroke-miterlimit="10"/></g><g transform="translate(-166,-6) scale(1,1)"><path fill="#C0C0C0" stroke="none" d="M 361 623 L 579.529296875 623 Q 589.529296875 623 589.529296875 633 L 589.529296875 653 Q 589.529296875 663 579.529296875 663 L 361 663 Q 351 663 351 653 L 351 633 Q 351 623 361 623 Z" opacity="0.2"/></g><g transform="translate(-166,-6) scale(1,1)"><path fill="#ffffff" stroke="none" d="M 354 616 L 572.529296875 616 Q 582.529296875 616 582.529296875 626 L 582.529296875 646 Q 582.529296875 656 572.529296875 656 L 354 656 Q 344 656 344 646 L 344 626 Q 344 616 354 616 Z"/></g><g transform="translate(-166,-6) scale(1,1)"><path fill="none" stroke="#000000" d="M 354 616 L 572.529296875 616 Q 582.529296875 616 582.529296875 626 L 582.529296875 646 Q 582.529296875 656 572.529296875 656 L 354 656 Q 344 656 344 646 L 344 626 Q 344 616 354 616 Z" stroke-miterlimit="10"/></g><g transform="translate(-166,-6) scale(1,1)"><g><path fill="none" stroke="none"/><text fill="#000000" stroke="none" font-family="Arial" font-size="13px" font-style="normal" font-weight="bold" text-decoration="none" x="366.7646484375" y="635.5">move version flag to first position</text></g></g><g transform="translate(-166,-6) scale(1,1)"><path fill="none" stroke="#000000" d="M 247 409 L 241 447" stroke-miterlimit="10"/></g><g transform="translate(-166,-6) scale(1,1)"><path fill="none" stroke="#000000" d="M 238.4269911828768 436.3051589246494 L 241 447 L 246.74300266545225 437.6182133692666" stroke-miterlimit="10"/></g><g transform="translate(-166,-6) scale(1,1)"><path fill="none" stroke="#000000" d="M 273 484 L 375 484" stroke-miterlimit="10"/></g><g transform="translate(-166,-6) scale(1,1)"><path fill="none" stroke="#000000" d="M 364.83732514237585 488.209517756016 L 375 484 L 364.83732514237585 479.790482243984" stroke-miterlimit="10"/></g><g transform="translate(-166,-6) scale(1,1)"><g><path fill="none" stroke="none"/><text fill="#000000" stroke="none" font-family="Arial" font-size="13px" font-style="normal" font-weight="normal" text-decoration="none" x="312.5" y="475.5">Yes</text></g></g><g transform="translate(-166,-6) scale(1,1)"><path fill="none" stroke="#000000" d="M 452 484 L 567 484" stroke-miterlimit="10"/></g><g transform="translate(-166,-6) scale(1,1)"><path fill="none" stroke="#000000" d="M 556.8373251423759 488.209517756016 L 567 484 L 556.8373251423758 479.790482243984" stroke-miterlimit="10"/></g><g transform="translate(-166,-6) scale(1,1)"><g><path fill="none" stroke="none"/><text fill="#000000" stroke="none" font-family="Arial" font-size="13px" font-style="normal" font-weight="normal" text-decoration="none" x="454.75341796875" y="475.5">Terminate program</text></g></g><g transform="translate(-166,-6) scale(1,1)"><path fill="none" stroke="#000000" d="M 236 521 L 236 583" stroke-miterlimit="10"/></g><g transform="translate(-166,-6) scale(1,1)"><path fill="none" stroke="#000000" d="M 231.790482243984 572.8373251423759 L 236 583 L 240.209517756016 572.8373251423759" stroke-miterlimit="10"/></g><g transform="translate(-166,-6) scale(1,1)"><g><path fill="none" stroke="none"/><text fill="#000000" stroke="none" font-family="Arial" font-size="13px" font-style="normal" font-weight="normal" text-decoration="none" x="242.294677734375" y="557.5">No</text></g></g><g transform="translate(-166,-6) scale(1,1)"><path fill="none" stroke="#000000" d="M 297 639 L 343 638" stroke-miterlimit="10"/></g><g transform="translate(-166,-6) scale(1,1)"><path fill="none" stroke="#000000" d="M 332.93121531934037 642.429398949577 L 343 638 L 332.74823604017183 634.0123521078249" stroke-miterlimit="10"/></g><g transform="translate(-166,-6) scale(1,1)"><g><path fill="none" stroke="none"/><text fill="#000000" stroke="none" font-family="Arial" font-size="13px" font-style="normal" font-weight="normal" text-decoration="none" x="308.5" y="629.5">Yes</text></g></g><g transform="translate(-166,-6) scale(1,1)"><g><path fill="none" stroke="none"/><text fill="#000000" stroke="none" font-family="Arial" font-size="13px" font-style="normal" font-weight="normal" text-decoration="none" x="213" y="482">help flag</text><text fill="#000000" stroke="none" font-family="Arial" font-size="13px" font-style="normal" font-weight="normal" text-decoration="none" x="213" y="495">set?</text></g></g><g transform="translate(-166,-6) scale(1,1)"><g><path fill="none" stroke="none"/><text fill="#000000" stroke="none" font-family="Arial" font-size="13px" font-style="normal" font-weight="normal" text-decoration="none" x="213" y="618">version</text><text fill="#000000" stroke="none" font-family="Arial" font-size="13px" font-style="normal" font-weight="normal" text-decoration="none" x="213" y="631">flag set</text><text fill="#000000" stroke="none" font-family="Arial" font-size="13px" font-style="normal" font-weight="normal" text-decoration="none" x="213" y="644">and not</text><text fill="#000000" stroke="none" font-family="Arial" font-size="13px" font-style="normal" font-weight="normal" text-decoration="none" x="213" y="657">on first</text><text fill="#000000" stroke="none" font-family="Arial" font-size="13px" font-style="normal" font-weight="normal" text-decoration="none" x="213" y="670">position?</text></g></g><g transform="translate(-166,-6) scale(1,1)"><path fill="#C0C0C0" stroke="none" d="M 199 783.5 L 251.5 735 L 303 783.5 L 251.5 831 L 199 783.5" opacity="0.2"/></g><g transform="translate(-166,-6) scale(1,1)"><path fill="#ffffff" stroke="none" d="M 192 776 L 244 728 L 296 776 L 244 824 L 192 776"/></g><g transform="translate(-166,-6) scale(1,1)"><path fill="none" stroke="#000000" d="M 192 776 L 244 728 L 296 776 L 244 824 L 192 776 L 192 776" stroke-miterlimit="10"/></g><g transform="translate(-166,-6) scale(1,1)"><path fill="#C0C0C0" stroke="none" d="M 369 767 L 458.69970703125 767 Q 468.69970703125 767 468.69970703125 777 L 468.69970703125 797 Q 468.69970703125 807 458.69970703125 807 L 369 807 Q 359 807 359 797 L 359 777 Q 359 767 369 767 Z" opacity="0.2"/></g><g transform="translate(-166,-6) scale(1,1)"><path fill="#ffffff" stroke="none" d="M 362 760 L 451.69970703125 760 Q 461.69970703125 760 461.69970703125 770 L 461.69970703125 790 Q 461.69970703125 800 451.69970703125 800 L 362 800 Q 352 800 352 790 L 352 770 Q 352 760 362 760 Z"/></g><g transform="translate(-166,-6) scale(1,1)"><path fill="none" stroke="#000000" d="M 362 760 L 451.69970703125 760 Q 461.69970703125 760 461.69970703125 770 L 461.69970703125 790 Q 461.69970703125 800 451.69970703125 800 L 362 800 Q 352 800 352 790 L 352 770 Q 352 760 362 760 Z" stroke-miterlimit="10"/></g><g transform="translate(-166,-6) scale(1,1)"><g><path fill="none" stroke="none"/><text fill="#000000" stroke="none" font-family="Arial" font-size="13px" font-style="normal" font-weight="bold" text-decoration="none" x="364.849853515625" y="779.5">load config file</text></g></g><g transform="translate(-166,-6) scale(1,1)"><path fill="none" stroke="#000000" d="M 239 697 L 241 727" stroke-miterlimit="10"/></g><g transform="translate(-166,-6) scale(1,1)"><path fill="none" stroke="#000000" d="M 236.1237945855094 717.1398468188526 L 241 727 L 244.52418326288262 716.5798209070276" stroke-miterlimit="10"/></g><g transform="translate(-166,-6) scale(1,1)"><g><path fill="none" stroke="none"/><text fill="#000000" stroke="none" font-family="Arial" font-size="13px" font-style="normal" font-weight="normal" text-decoration="none" x="246.294677734375" y="717.5">No</text></g></g><g transform="translate(-166,-6) scale(1,1)"><path fill="none" stroke="#000000" d="M 430 657 L 297 742" stroke-miterlimit="10"/></g><g transform="translate(-166,-6) scale(1,1)"><path fill="none" stroke="#000000" d="M 303.29635129282406 732.980246101065 L 297 742 L 307.8301218424593 740.0742635493178" stroke-miterlimit="10"/></g><g transform="translate(-166,-6) scale(1,1)"><path fill="none" stroke="#000000" d="M 297 777 L 351 779" stroke-miterlimit="10"/></g><g transform="translate(-166,-6) scale(1,1)"><path fill="none" stroke="#000000" d="M 340.6884870219316 782.8304960648887 L 351 779 L 341.0000895061236 774.417228991706" stroke-miterlimit="10"/></g><g transform="translate(-166,-6) scale(1,1)"><g><path fill="none" stroke="none"/><text fill="#000000" stroke="none" font-family="Arial" font-size="13px" font-style="normal" font-weight="normal" text-decoration="none" x="312.5" y="769.5">Yes</text></g></g><g transform="translate(-166,-6) scale(1,1)"><path fill="#C0C0C0" stroke="none" d="M 225 895 L 279.263671875 895 Q 289.263671875 895 289.263671875 905 L 289.263671875 925 Q 289.263671875 935 279.263671875 935 L 225 935 Q 215 935 215 925 L 215 905 Q 215 895 225 895 Z" opacity="0.2"/></g><g transform="translate(-166,-6) scale(1,1)"><path fill="#ffffff" stroke="none" d="M 218 888 L 272.263671875 888 Q 282.263671875 888 282.263671875 898 L 282.263671875 918 Q 282.263671875 928 272.263671875 928 L 218 928 Q 208 928 208 918 L 208 898 Q 208 888 218 888 Z"/></g><g transform="translate(-166,-6) scale(1,1)"><path fill="none" stroke="#000000" d="M 218 888 L 272.263671875 888 Q 282.263671875 888 282.263671875 898 L 282.263671875 918 Q 282.263671875 928 272.263671875 928 L 218 928 Q 208 928 208 918 L 208 898 Q 208 888 218 888 Z" stroke-miterlimit="10"/></g><g transform="translate(-166,-6) scale(1,1)"><g><path fill="none" stroke="none"/><text fill="#000000" stroke="none" font-family="Arial" font-size="13px" font-style="normal" font-weight="bold" text-decoration="none" x="218.1318359375" y="907.5">run super</text></g></g><g transform="translate(-166,-6) scale(1,1)"><path fill="none" stroke="#000000" d="M 244 825 L 245 887" stroke-miterlimit="10"/></g><g transform="translate(-166,-6) scale(1,1)"><path fill="none" stroke="#000000" d="M 240.62713688711733 876.9065333905545 L 245 887 L 249.04507752489903 876.7707601544613" stroke-miterlimit="10"/></g><g transform="translate(-166,-6) scale(1,1)"><g><path fill="none" stroke="none"/><text fill="#000000" stroke="none" font-family="Arial" font-size="13px" font-style="normal" font-weight="normal" text-decoration="none" x="250.294677734375" y="861.5">No</text></g></g><g transform="translate(-166,-6) scale(1,1)"><path fill="none" stroke="#000000" d="M 380 801 L 271 887" stroke-miterlimit="10"/></g><g transform="translate(-166,-6) scale(1,1)"><path fill="none" stroke="#000000" d="M 276.3709611307161 877.4003762296464 L 271 887 L 281.5858021018753 884.0098839721621" stroke-miterlimit="10"/></g><g transform="translate(-166,-6) scale(1,1)"><g><path fill="none" stroke="none"/><text fill="#000000" stroke="none" font-family="Arial" font-size="13px" font-style="normal" font-weight="normal" text-decoration="none" x="213" y="770">command</text><text fill="#000000" stroke="none" font-family="Arial" font-size="13px" font-style="normal" font-weight="normal" text-decoration="none" x="213" y="783">load_config</text><text fill="#000000" stroke="none" font-family="Arial" font-size="13px" font-style="normal" font-weight="normal" text-decoration="none" x="213" y="796">set?</text></g></g><g transform="translate(-166,-6) scale(1,1)"><path fill="#C0C0C0" stroke="none" d="M 239 1083.5 C 239 1076.59644 244.59644 1071 251.5 1071 C 258.40356 1071 264 1076.59644 264 1083.5 C 264 1090.40356 258.40356 1096 251.5 1096 C 244.59644 1096 239 1090.40356 239 1083.5 Z" opacity="0.2"/></g><g transform="translate(-166,-6) scale(1,1)"><path fill="none" stroke="#000000" d="M 232 1076.5 C 232 1069.59644 237.59644 1064 244.5 1064 C 251.40356 1064 257 1069.59644 257 1076.5 C 257 1083.40356 251.40356 1089 244.5 1089 C 237.59644 1089 232 1083.40356 232 1076.5 Z" stroke-miterlimit="10"/></g><g transform="translate(-166,-6) scale(1,1)"><path fill="#000000" stroke="none" d="M 237 1076.5 C 237 1072.357864 240.357864 1069 244.5 1069 C 248.642136 1069 252 1072.357864 252 1076.5 C 252 1080.642136 248.642136 1084 244.5 1084 C 240.357864 1084 237 1080.642136 237 1076.5 Z"/></g><g transform="translate(-166,-6) scale(1,1)"><path fill="none" stroke="#000000" d="M 245 929 L 244 1063" stroke-miterlimit="10"/></g><g transform="translate(-166,-6) scale(1,1)"><path fill="none" stroke="#000000" d="M 239.86643820205072 1052.8061946819387 L 244 1063 L 248.28523928871303 1052.8690215557199" stroke-miterlimit="10"/></g><g transform="translate(-166,-6) scale(1,1)"><g><path fill="none" stroke="none"/><text fill="#000000" stroke="none" font-family="Arial" font-size="13px" font-style="normal" font-weight="normal" text-decoration="none" x="248.439697265625" y="1001.5">return</text></g></g></g></svg>