<svg version="1.1" xmlns="http://www.w3.org/2000/svg" xmlns:xlink="http://www.w3.org/1999/xlink" width="445" height="1093"><defs/><g><g transform="translate(-438,-142) scale(1,1)"><path fill="#C0C0C0" stroke="none" d="M 503 168.5 C 503 163.2532944 507.2532944 159 512.5 159 C 517.7467056 159 522 163.2532944 522 168.5 C 522 173.7467056 517.7467056 178 512.5 178 C 507.2532944 178 503 173.7467056 503 168.5 Z" opacity="0.2"/></g><g transform="translate(-438,-142) scale(1,1)"><path fill="#000000" stroke="none" d="M 496 161.5 C 496 156.2532944 500.2532944 152 505.5 152 C 510.7467056 152 515 156.2532944 515 161.5 C 515 166.7467056 510.7467056 171 505.5 171 C 500.2532944 171 496 166.7467056 496 161.5 Z"/></g><g transform="translate(-438,-142) scale(1,1)"><path fill="#C0C0C0" stroke="none" d="M 633 255 L 712 255 Q 722 255 722 265 L 722 285 Q 722 295 712 295 L 633 295 Q 623 295 623 285 L 623 265 Q 623 255 633 255 Z" opacity="0.2"/></g><g transform="translate(-438,-142) scale(1,1)"><path fill="#ffffff" stroke="none" d="M 626 248 L 705 248 Q 715 248 715 258 L 715 278 Q 715 288 705 288 L 626 288 Q 616 288 616 278 L 616 258 Q 616 248 626 248 Z"/></g><g transform="translate(-438,-142) scale(1,1)"><path fill="none" stroke="#000000" d="M 626 248 L 705 248 Q 715 248 715 258 L 715 278 Q 715 288 705 288 L 626 288 Q 616 288 616 278 L 616 258 Q 616 248 626 248 Z" stroke-miterlimit="10"/></g><g transform="translate(-438,-142) scale(1,1)"><g><path fill="none" stroke="none"/><text fill="#000000" stroke="none" font-family="Arial" font-size="13px" font-style="normal" font-weight="bold" text-decoration="none" x="622" y="267.5">Create Context</text></g></g><g transform="translate(-438,-142) scale(1,1)"><path fill="#C0C0C0" stroke="none" d="M 471 275.5 L 515.5 239 L 559 275.5 L 515.5 311 L 471 275.5" opacity="0.2"/></g><g transform="translate(-438,-142) scale(1,1)"><path fill="#ffffff" stroke="none" d="M 464 268 L 508 232 L 552 268 L 508 304 L 464 268"/></g><g transform="translate(-438,-142) scale(1,1)"><path fill="none" stroke="#000000" d="M 464 268 L 508 232 L 552 268 L 508 304 L 464 268 L 464 268" stroke-miterlimit="10"/></g><g transform="translate(-438,-142) scale(1,1)"><g><path fill="none" stroke="none"/><text fill="#000000" stroke="none" font-family="Arial" font-size="13px" font-style="normal" font-weight="normal" text-decoration="none" x="485" y="266">Context</text><text fill="#000000" stroke="none" font-family="Arial" font-size="13px" font-style="normal" font-weight="normal" text-decoration="none" x="485" y="279">exists?</text></g></g><g transform="translate(-438,-142) scale(1,1)"><path fill="none" stroke="#000000" d="M 505 172 L 507 231" stroke-miterlimit="10"/></g><g transform="translate(-438,-142) scale(1,1)"><path fill="none" stroke="#000000" d="M 502.44859903663905 220.98577265732814 L 507 231 L 510.8628015772555 220.70054545256147" stroke-miterlimit="10"/></g><g transform="translate(-438,-142) scale(1,1)"><path fill="#C0C0C0" stroke="none" d="M 479 431.5 L 517.5 399 L 555 431.5 L 517.5 463 L 479 431.5" opacity="0.2"/></g><g transform="translate(-438,-142) scale(1,1)"><path fill="#ffffff" stroke="none" d="M 472 424 L 510 392 L 548 424 L 510 456 L 472 424"/></g><g transform="translate(-438,-142) scale(1,1)"><path fill="none" stroke="#000000" d="M 472 424 L 510 392 L 548 424 L 510 456 L 472 424 L 472 424" stroke-miterlimit="10"/></g><g transform="translate(-438,-142) scale(1,1)"><path fill="none" stroke="#000000" d="M 508 305 L 510 391" stroke-miterlimit="10"/></g><g transform="translate(-438,-142) scale(1,1)"><path fill="none" stroke="#000000" d="M 505.55534271416747 380.9379414824055 L 510 391 L 513.9721025036246 380.7422028826507" stroke-miterlimit="10"/></g><g transform="translate(-438,-142) scale(1,1)"><g><path fill="none" stroke="none"/><text fill="#000000" stroke="none" font-family="Arial" font-size="13px" font-style="normal" font-weight="normal" text-decoration="none" x="511.5" y="353.5">Yes</text></g></g><g transform="translate(-438,-142) scale(1,1)"><path fill="none" stroke="#000000" d="M 553 268 L 615 268" stroke-miterlimit="10"/></g><g transform="translate(-438,-142) scale(1,1)"><path fill="none" stroke="#000000" d="M 604.8373251423759 272.209517756016 L 615 268 L 604.8373251423758 263.790482243984" stroke-miterlimit="10"/></g><g transform="translate(-438,-142) scale(1,1)"><g><path fill="none" stroke="none"/><text fill="#000000" stroke="none" font-family="Arial" font-size="13px" font-style="normal" font-weight="normal" text-decoration="none" x="575.5" y="259.5">No</text></g></g><g transform="translate(-438,-142) scale(1,1)"><path fill="none" stroke="#000000" d="M 644 289 L 543 391" stroke-miterlimit="10"/></g><g transform="translate(-438,-142) scale(1,1)"><path fill="none" stroke="#000000" d="M 547.15940485141 380.816712157556 L 543 391 L 553.1418152642989 386.74047148796564" stroke-miterlimit="10"/></g><g transform="translate(-438,-142) scale(1,1)"><path fill="#C0C0C0" stroke="none" d="M 609 415 L 726 415 Q 736 415 736 425 L 736 445 Q 736 455 726 455 L 609 455 Q 599 455 599 445 L 599 425 Q 599 415 609 415 Z" opacity="0.2"/></g><g transform="translate(-438,-142) scale(1,1)"><path fill="#ffffff" stroke="none" d="M 602 408 L 719 408 Q 729 408 729 418 L 729 438 Q 729 448 719 448 L 602 448 Q 592 448 592 438 L 592 418 Q 592 408 602 408 Z"/></g><g transform="translate(-438,-142) scale(1,1)"><path fill="none" stroke="#000000" d="M 602 408 L 719 408 Q 729 408 729 418 L 729 438 Q 729 448 719 448 L 602 448 Q 592 448 592 438 L 592 418 Q 592 408 602 408 Z" stroke-miterlimit="10"/></g><g transform="translate(-438,-142) scale(1,1)"><g><path fill="none" stroke="none"/><text fill="#000000" stroke="none" font-family="Arial" font-size="13px" font-style="normal" font-weight="bold" text-decoration="none" x="602.5" y="427.5">print welcome string</text></g></g><g transform="translate(-438,-142) scale(1,1)"><path fill="#C0C0C0" stroke="none" d="M 855 435.5 C 855 428.59644 860.59644 423 867.5 423 C 874.40356 423 880 428.59644 880 435.5 C 880 442.40356 874.40356 448 867.5 448 C 860.59644 448 855 442.40356 855 435.5 Z" opacity="0.2"/></g><g transform="translate(-438,-142) scale(1,1)"><path fill="none" stroke="#000000" d="M 848 428.5 C 848 421.59644 853.59644 416 860.5 416 C 867.40356 416 873 421.59644 873 428.5 C 873 435.40356 867.40356 441 860.5 441 C 853.59644 441 848 435.40356 848 428.5 Z" stroke-miterlimit="10"/></g><g transform="translate(-438,-142) scale(1,1)"><path fill="#000000" stroke="none" d="M 853 428.5 C 853 424.357864 856.357864 421 860.5 421 C 864.642136 421 868 424.357864 868 428.5 C 868 432.642136 864.642136 436 860.5 436 C 856.357864 436 853 432.642136 853 428.5 Z"/></g><g transform="translate(-438,-142) scale(1,1)"><path fill="none" stroke="#000000" d="M 549 425 L 591 426" stroke-miterlimit="10"/></g><g transform="translate(-438,-142) scale(1,1)"><path fill="none" stroke="#000000" d="M 580.7400062785854 429.9664251961348 L 591 426 L 580.9404027114002 421.54977501791245" stroke-miterlimit="10"/></g><g transform="translate(-438,-142) scale(1,1)"><g><path fill="none" stroke="none"/><text fill="#000000" stroke="none" font-family="Arial" font-size="13px" font-style="normal" font-weight="normal" text-decoration="none" x="561.5" y="416.5">No</text></g></g><g transform="translate(-438,-142) scale(1,1)"><path fill="none" stroke="#000000" d="M 730 428 L 847 428" stroke-miterlimit="10"/></g><g transform="translate(-438,-142) scale(1,1)"><path fill="none" stroke="#000000" d="M 836.8373251423759 432.209517756016 L 847 428 L 836.8373251423758 423.790482243984" stroke-miterlimit="10"/></g><g transform="translate(-438,-142) scale(1,1)"><g><path fill="none" stroke="none"/><text fill="#000000" stroke="none" font-family="Arial" font-size="13px" font-style="normal" font-weight="normal" text-decoration="none" x="733.5" y="419.5">Terminate program</text></g></g><g transform="translate(-438,-142) scale(1,1)"><path fill="#C0C0C0" stroke="none" d="M 473 511 L 574 511 Q 584 511 584 521 L 584 541 Q 584 551 574 551 L 473 551 Q 463 551 463 541 L 463 521 Q 463 511 473 511 Z" opacity="0.2"/></g><g transform="translate(-438,-142) scale(1,1)"><path fill="#ffffff" stroke="none" d="M 466 504 L 567 504 Q 577 504 577 514 L 577 534 Q 577 544 567 544 L 466 544 Q 456 544 456 534 L 456 514 Q 456 504 466 504 Z"/></g><g transform="translate(-438,-142) scale(1,1)"><path fill="none" stroke="#000000" d="M 466 504 L 567 504 Q 577 504 577 514 L 577 534 Q 577 544 567 544 L 466 544 Q 456 544 456 534 L 456 514 Q 456 504 466 504 Z" stroke-miterlimit="10"/></g><g transform="translate(-438,-142) scale(1,1)"><g><path fill="none" stroke="none"/><text fill="#000000" stroke="none" font-family="Arial" font-size="13px" font-style="normal" font-weight="bold" text-decoration="none" x="465" y="523.5">register help flags</text></g></g><g transform="translate(-438,-142) scale(1,1)"><path fill="none" stroke="#000000" d="M 512 457 L 515 503" stroke-miterlimit="10"/></g><g transform="translate(-438,-142) scale(1,1)"><path fill="none" stroke="#000000" d="M 510.1380278627038 493.1328207203803 L 515 503 L 518.5392159115803 492.58491715197533" stroke-miterlimit="10"/></g><g transform="translate(-438,-142) scale(1,1)"><g><path fill="none" stroke="none"/><text fill="#000000" stroke="none" font-family="Arial" font-size="13px" font-style="normal" font-weight="normal" text-decoration="none" x="515.5" y="484.5">Yes</text></g></g><g transform="translate(-438,-142) scale(1,1)"><g><path fill="none" stroke="none"/><text fill="#000000" stroke="none" font-family="Arial" font-size="13px" font-style="normal" font-weight="normal" text-decoration="none" x="493" y="426">Flags</text><text fill="#000000" stroke="none" font-family="Arial" font-size="13px" font-style="normal" font-weight="normal" text-decoration="none" x="493" y="439">set?</text></g></g><g transform="translate(-438,-142) scale(1,1)"><path fill="#C0C0C0" stroke="none" d="M 479 627.5 L 515.5 591 L 551 627.5 L 515.5 663 L 479 627.5" opacity="0.2"/></g><g transform="translate(-438,-142) scale(1,1)"><path fill="#ffffff" stroke="none" d="M 472 620 L 508 584 L 544 620 L 508 656 L 472 620"/></g><g transform="translate(-438,-142) scale(1,1)"><path fill="none" stroke="#000000" d="M 472 620 L 508 584 L 544 620 L 508 656 L 472 620 L 472 620" stroke-miterlimit="10"/></g><g transform="translate(-438,-142) scale(1,1)"><path fill="#C0C0C0" stroke="none" d="M 665 607 L 714 607 Q 724 607 724 617 L 724 637 Q 724 647 714 647 L 665 647 Q 655 647 655 637 L 655 617 Q 655 607 665 607 Z" opacity="0.2"/></g><g transform="translate(-438,-142) scale(1,1)"><path fill="#ffffff" stroke="none" d="M 658 600 L 707 600 Q 717 600 717 610 L 717 630 Q 717 640 707 640 L 658 640 Q 648 640 648 630 L 648 610 Q 648 600 658 600 Z"/></g><g transform="translate(-438,-142) scale(1,1)"><path fill="none" stroke="#000000" d="M 658 600 L 707 600 Q 717 600 717 610 L 717 630 Q 717 640 707 640 L 658 640 Q 648 640 648 630 L 648 610 Q 648 600 658 600 Z" stroke-miterlimit="10"/></g><g transform="translate(-438,-142) scale(1,1)"><g><path fill="none" stroke="none"/><text fill="#000000" stroke="none" font-family="Arial" font-size="13px" font-style="normal" font-weight="bold" text-decoration="none" x="656" y="619.5">print help</text></g></g><g transform="translate(-438,-142) scale(1,1)"><path fill="#C0C0C0" stroke="none" d="M 847 627.5 C 847 620.59644 852.59644 615 859.5 615 C 866.40356 615 872 620.59644 872 627.5 C 872 634.40356 866.40356 640 859.5 640 C 852.59644 640 847 634.40356 847 627.5 Z" opacity="0.2"/></g><g transform="translate(-438,-142) scale(1,1)"><path fill="none" stroke="#000000" d="M 840 620.5 C 840 613.59644 845.59644 608 852.5 608 C 859.40356 608 865 613.59644 865 620.5 C 865 627.40356 859.40356 633 852.5 633 C 845.59644 633 840 627.40356 840 620.5 Z" stroke-miterlimit="10"/></g><g transform="translate(-438,-142) scale(1,1)"><path fill="#000000" stroke="none" d="M 845 620.5 C 845 616.357864 848.357864 613 852.5 613 C 856.642136 613 860 616.357864 860 620.5 C 860 624.642136 856.642136 628 852.5 628 C 848.357864 628 845 624.642136 845 620.5 Z"/></g><g transform="translate(-438,-142) scale(1,1)"><path fill="#C0C0C0" stroke="none" d="M 455 783.5 L 515.5 727 L 575 783.5 L 515.5 839 L 455 783.5" opacity="0.2"/></g><g transform="translate(-438,-142) scale(1,1)"><path fill="#ffffff" stroke="none" d="M 448 776 L 508 720 L 568 776 L 508 832 L 448 776"/></g><g transform="translate(-438,-142) scale(1,1)"><path fill="none" stroke="#000000" d="M 448 776 L 508 720 L 568 776 L 508 832 L 448 776 L 448 776" stroke-miterlimit="10"/></g><g transform="translate(-438,-142) scale(1,1)"><path fill="#C0C0C0" stroke="none" d="M 633 759 L 832 759 Q 842 759 842 769 L 842 789 Q 842 799 832 799 L 633 799 Q 623 799 623 789 L 623 769 Q 623 759 633 759 Z" opacity="0.2"/></g><g transform="translate(-438,-142) scale(1,1)"><path fill="#ffffff" stroke="none" d="M 626 752 L 825 752 Q 835 752 835 762 L 835 782 Q 835 792 825 792 L 626 792 Q 616 792 616 782 L 616 762 Q 616 752 626 752 Z"/></g><g transform="translate(-438,-142) scale(1,1)"><path fill="none" stroke="#000000" d="M 626 752 L 825 752 Q 835 752 835 762 L 835 782 Q 835 792 825 792 L 626 792 Q 616 792 616 782 L 616 762 Q 616 752 626 752 Z" stroke-miterlimit="10"/></g><g transform="translate(-438,-142) scale(1,1)"><g><path fill="none" stroke="none"/><text fill="#000000" stroke="none" font-family="Arial" font-size="13px" font-style="normal" font-weight="bold" text-decoration="none" x="629" y="771.5">move version flag to first position</text></g></g><g transform="translate(-438,-142) scale(1,1)"><path fill="none" stroke="#000000" d="M 514 545 L 511 583" stroke-miterlimit="10"/></g><g transform="translate(-438,-142) scale(1,1)"><path fill="none" stroke="#000000" d="M 507.60336731211424 572.5375487392492 L 511 583 L 515.9962882275067 573.2001477588855" stroke-miterlimit="10"/></g><g transform="translate(-438,-142) scale(1,1)"><path fill="none" stroke="#000000" d="M 545 620 L 647 620" stroke-miterlimit="10"/></g><g transform="translate(-438,-142) scale(1,1)"><path fill="none" stroke="#000000" d="M 636.8373251423759 624.209517756016 L 647 620 L 636.8373251423758 615.790482243984" stroke-miterlimit="10"/></g><g transform="translate(-438,-142) scale(1,1)"><g><path fill="none" stroke="none"/><text fill="#000000" stroke="none" font-family="Arial" font-size="13px" font-style="normal" font-weight="normal" text-decoration="none" x="584.5" y="611.5">Yes</text></g></g><g transform="translate(-438,-142) scale(1,1)"><path fill="none" stroke="#000000" d="M 718 620 L 839 620" stroke-miterlimit="10"/></g><g transform="translate(-438,-142) scale(1,1)"><path fill="none" stroke="#000000" d="M 828.8373251423759 624.209517756016 L 839 620 L 828.8373251423758 615.790482243984" stroke-miterlimit="10"/></g><g transform="translate(-438,-142) scale(1,1)"><g><path fill="none" stroke="none"/><text fill="#000000" stroke="none" font-family="Arial" font-size="13px" font-style="normal" font-weight="normal" text-decoration="none" x="723.5" y="611.5">Terminate program</text></g></g><g transform="translate(-438,-142) scale(1,1)"><path fill="none" stroke="#000000" d="M 508 657 L 508 719" stroke-miterlimit="10"/></g><g transform="translate(-438,-142) scale(1,1)"><path fill="none" stroke="#000000" d="M 503.790482243984 708.8373251423759 L 508 719 L 512.209517756016 708.8373251423759" stroke-miterlimit="10"/></g><g transform="translate(-438,-142) scale(1,1)"><g><path fill="none" stroke="none"/><text fill="#000000" stroke="none" font-family="Arial" font-size="13px" font-style="normal" font-weight="normal" text-decoration="none" x="513.5" y="693.5">No</text></g></g><g transform="translate(-438,-142) scale(1,1)"><path fill="none" stroke="#000000" d="M 569 775 L 615 774" stroke-miterlimit="10"/></g><g transform="translate(-438,-142) scale(1,1)"><path fill="none" stroke="#000000" d="M 604.9312153193404 778.429398949577 L 615 774 L 604.7482360401718 770.0123521078249" stroke-miterlimit="10"/></g><g transform="translate(-438,-142) scale(1,1)"><g><path fill="none" stroke="none"/><text fill="#000000" stroke="none" font-family="Arial" font-size="13px" font-style="normal" font-weight="normal" text-decoration="none" x="580.5" y="765.5">Yes</text></g></g><g transform="translate(-438,-142) scale(1,1)"><g><path fill="none" stroke="none"/><text fill="#000000" stroke="none" font-family="Arial" font-size="13px" font-style="normal" font-weight="normal" text-decoration="none" x="485" y="618">help flag</text><text fill="#000000" stroke="none" font-family="Arial" font-size="13px" font-style="normal" font-weight="normal" text-decoration="none" x="485" y="631">set?</text></g></g><g transform="translate(-438,-142) scale(1,1)"><g><path fill="none" stroke="none"/><text fill="#000000" stroke="none" font-family="Arial" font-size="13px" font-style="normal" font-weight="normal" text-decoration="none" x="485" y="754">version</text><text fill="#000000" stroke="none" font-family="Arial" font-size="13px" font-style="normal" font-weight="normal" text-decoration="none" x="485" y="767">flag set</text><text fill="#000000" stroke="none" font-family="Arial" font-size="13px" font-style="normal" font-weight="normal" text-decoration="none" x="485" y="780">and not</text><text fill="#000000" stroke="none" font-family="Arial" font-size="13px" font-style="normal" font-weight="normal" text-decoration="none" x="485" y="793">on first</text><text fill="#000000" stroke="none" font-family="Arial" font-size="13px" font-style="normal" font-weight="normal" text-decoration="none" x="485" y="806">position?</text></g></g><g transform="translate(-438,-142) scale(1,1)"><path fill="#C0C0C0" stroke="none" d="M 471 919.5 L 523.5 871 L 575 919.5 L 523.5 967 L 471 919.5" opacity="0.2"/></g><g transform="translate(-438,-142) scale(1,1)"><path fill="#ffffff" stroke="none" d="M 464 912 L 516 864 L 568 912 L 516 960 L 464 912"/></g><g transform="translate(-438,-142) scale(1,1)"><path fill="none" stroke="#000000" d="M 464 912 L 516 864 L 568 912 L 516 960 L 464 912 L 464 912" stroke-miterlimit="10"/></g><g transform="translate(-438,-142) scale(1,1)"><path fill="#C0C0C0" stroke="none" d="M 641 903 L 723 903 Q 733 903 733 913 L 733 933 Q 733 943 723 943 L 641 943 Q 631 943 631 933 L 631 913 Q 631 903 641 903 Z" opacity="0.2"/></g><g transform="translate(-438,-142) scale(1,1)"><path fill="#ffffff" stroke="none" d="M 634 896 L 716 896 Q 726 896 726 906 L 726 926 Q 726 936 716 936 L 634 936 Q 624 936 624 926 L 624 906 Q 624 896 634 896 Z"/></g><g transform="translate(-438,-142) scale(1,1)"><path fill="none" stroke="#000000" d="M 634 896 L 716 896 Q 726 896 726 906 L 726 926 Q 726 936 716 936 L 634 936 Q 624 936 624 926 L 624 906 Q 624 896 634 896 Z" stroke-miterlimit="10"/></g><g transform="translate(-438,-142) scale(1,1)"><g><path fill="none" stroke="none"/><text fill="#000000" stroke="none" font-family="Arial" font-size="13px" font-style="normal" font-weight="bold" text-decoration="none" x="633" y="915.5">load config file</text></g></g><g transform="translate(-438,-142) scale(1,1)"><path fill="none" stroke="#000000" d="M 511 833 L 513 863" stroke-miterlimit="10"/></g><g transform="translate(-438,-142) scale(1,1)"><path fill="none" stroke="#000000" d="M 508.1237945855094 853.1398468188526 L 513 863 L 516.5241832628826 852.5798209070276" stroke-miterlimit="10"/></g><g transform="translate(-438,-142) scale(1,1)"><g><path fill="none" stroke="none"/><text fill="#000000" stroke="none" font-family="Arial" font-size="13px" font-style="normal" font-weight="normal" text-decoration="none" x="517.5" y="853.5">No</text></g></g><g transform="translate(-438,-142) scale(1,1)"><path fill="none" stroke="#000000" d="M 694 793 L 569 876" stroke-miterlimit="10"/></g><g transform="translate(-438,-142) scale(1,1)"><path fill="none" stroke="#000000" d="M 575.1377200070765 866.8715612991742 L 569 876 L 579.7948043450277 873.8852425310286" stroke-miterlimit="10"/></g><g transform="translate(-438,-142) scale(1,1)"><path fill="none" stroke="#000000" d="M 569 913 L 623 915" stroke-miterlimit="10"/></g><g transform="translate(-438,-142) scale(1,1)"><path fill="none" stroke="#000000" d="M 612.6884870219317 918.8304960648887 L 623 915 L 613.0000895061236 910.417228991706" stroke-miterlimit="10"/></g><g transform="translate(-438,-142) scale(1,1)"><g><path fill="none" stroke="none"/><text fill="#000000" stroke="none" font-family="Arial" font-size="13px" font-style="normal" font-weight="normal" text-decoration="none" x="584.5" y="905.5">Yes</text></g></g><g transform="translate(-438,-142) scale(1,1)"><path fill="#C0C0C0" stroke="none" d="M 497 1031 L 546 1031 Q 556 1031 556 1041 L 556 1061 Q 556 1071 546 1071 L 497 1071 Q 487 1071 487 1061 L 487 1041 Q 487 1031 497 1031 Z" opacity="0.2"/></g><g transform="translate(-438,-142) scale(1,1)"><path fill="#ffffff" stroke="none" d="M 490 1024 L 539 1024 Q 549 1024 549 1034 L 549 1054 Q 549 1064 539 1064 L 490 1064 Q 480 1064 480 1054 L 480 1034 Q 480 1024 490 1024 Z"/></g><g transform="translate(-438,-142) scale(1,1)"><path fill="none" stroke="#000000" d="M 490 1024 L 539 1024 Q 549 1024 549 1034 L 549 1054 Q 549 1064 539 1064 L 490 1064 Q 480 1064 480 1054 L 480 1034 Q 480 1024 490 1024 Z" stroke-miterlimit="10"/></g><g transform="translate(-438,-142) scale(1,1)"><g><path fill="none" stroke="none"/><text fill="#000000" stroke="none" font-family="Arial" font-size="13px" font-style="normal" font-weight="bold" text-decoration="none" x="487.5" y="1043.5">run super</text></g></g><g transform="translate(-438,-142) scale(1,1)"><path fill="none" stroke="#000000" d="M 515 961 L 514 1023" stroke-miterlimit="10"/></g><g transform="translate(-438,-142) scale(1,1)"><path fill="none" stroke="#000000" d="M 509.95492247510094 1012.7707601544613 L 514 1023 L 518.3728631128827 1012.9065333905545" stroke-miterlimit="10"/></g><g transform="translate(-438,-142) scale(1,1)"><g><path fill="none" stroke="none"/><text fill="#000000" stroke="none" font-family="Arial" font-size="13px" font-style="normal" font-weight="normal" text-decoration="none" x="519.5" y="997.5">No</text></g></g><g transform="translate(-438,-142) scale(1,1)"><path fill="none" stroke="#000000" d="M 649 937 L 540 1023" stroke-miterlimit="10"/></g><g transform="translate(-438,-142) scale(1,1)"><path fill="none" stroke="#000000" d="M 545.3709611307161 1013.4003762296464 L 540 1023 L 550.5858021018753 1020.0098839721621" stroke-miterlimit="10"/></g><g transform="translate(-438,-142) scale(1,1)"><g><path fill="none" stroke="none"/><text fill="#000000" stroke="none" font-family="Arial" font-size="13px" font-style="normal" font-weight="normal" text-decoration="none" x="485" y="906">command</text><text fill="#000000" stroke="none" font-family="Arial" font-size="13px" font-style="normal" font-weight="normal" text-decoration="none" x="485" y="919">load_config</text><text fill="#000000" stroke="none" font-family="Arial" font-size="13px" font-style="normal" font-weight="normal" text-decoration="none" x="485" y="932">set?</text></g></g><g transform="translate(-438,-142) scale(1,1)"><path fill="#C0C0C0" stroke="none" d="M 511 1219.5 C 511 1212.59644 516.59644 1207 523.5 1207 C 530.40356 1207 536 1212.59644 536 1219.5 C 536 1226.40356 530.40356 1232 523.5 1232 C 516.59644 1232 511 1226.40356 511 1219.5 Z" opacity="0.2"/></g><g transform="translate(-438,-142) scale(1,1)"><path fill="none" stroke="#000000" d="M 504 1212.5 C 504 1205.59644 509.59644 1200 516.5 1200 C 523.40356 1200 529 1205.59644 529 1212.5 C 529 1219.40356 523.40356 1225 516.5 1225 C 509.59644 1225 504 1219.40356 504 1212.5 Z" stroke-miterlimit="10"/></g><g transform="translate(-438,-142) scale(1,1)"><path fill="#000000" stroke="none" d="M 509 1212.5 C 509 1208.357864 512.357864 1205 516.5 1205 C 520.642136 1205 524 1208.357864 524 1212.5 C 524 1216.642136 520.642136 1220 516.5 1220 C 512.357864 1220 509 1216.642136 509 1212.5 Z"/></g><g transform="translate(-438,-142) scale(1,1)"><path fill="none" stroke="#000000" d="M 514 1065 L 516 1199" stroke-miterlimit="10"/></g><g transform="translate(-438,-142) scale(1,1)"><path fill="none" stroke="#000000" d="M 511.6392862136918 1188.9012785327102 L 516 1199 L 520.0573841417227 1188.775635280053" stroke-miterlimit="10"/></g><g transform="translate(-438,-142) scale(1,1)"><g><path fill="none" stroke="none"/><text fill="#000000" stroke="none" font-family="Arial" font-size="13px" font-style="normal" font-weight="normal" text-decoration="none" x="519.5" y="1137.5">return</text></g></g></g></svg>