<svg version="1.1" xmlns="http://www.w3.org/2000/svg" xmlns:xlink="http://www.w3.org/1999/xlink" width="636.763671875" height="661"><defs/><g><g transform="translate(-54,-14) scale(1,1)"><path fill="#C0C0C0" stroke="none" d="M 255 40.5 C 255 35.2532944 259.2532944 31 264.5 31 C 269.7467056 31 274 35.2532944 274 40.5 C 274 45.7467056 269.7467056 50 264.5 50 C 259.2532944 50 255 45.7467056 255 40.5 Z" opacity="0.2"/></g><g transform="translate(-54,-14) scale(1,1)"><path fill="#000000" stroke="none" d="M 248 33.5 C 248 28.2532944 252.2532944 24 257.5 24 C 262.7467056 24 267 28.2532944 267 33.5 C 267 38.7467056 262.7467056 43 257.5 43 C 252.2532944 43 248 38.7467056 248 33.5 Z"/></g><g transform="translate(-54,-14) scale(1,1)"><path fill="#C0C0C0" stroke="none" d="M 215 139.5 L 259.5 95 L 303 139.5 L 259.5 183 L 215 139.5" opacity="0.2"/></g><g transform="translate(-54,-14) scale(1,1)"><path fill="#ffffff" stroke="none" d="M 208 132 L 252 88 L 296 132 L 252 176 L 208 132"/></g><g transform="translate(-54,-14) scale(1,1)"><path fill="none" stroke="#000000" d="M 208 132 L 252 88 L 296 132 L 252 176 L 208 132 L 208 132" stroke-miterlimit="10"/></g><g transform="translate(-54,-14) scale(1,1)"><path fill="#C0C0C0" stroke="none" d="M 81 207 L 192.34228515625 207 Q 202.34228515625 207 202.34228515625 217 L 202.34228515625 237 Q 202.34228515625 247 192.34228515625 247 L 81 247 Q 71 247 71 237 L 71 217 Q 71 207 81 207 Z" opacity="0.2"/></g><g transform="translate(-54,-14) scale(1,1)"><path fill="#ffffff" stroke="none" d="M 74 200 L 185.34228515625 200 Q 195.34228515625 200 195.34228515625 210 L 195.34228515625 230 Q 195.34228515625 240 185.34228515625 240 L 74 240 Q 64 240 64 230 L 64 210 Q 64 200 74 200 Z"/></g><g transform="translate(-54,-14) scale(1,1)"><path fill="none" stroke="#000000" d="M 74 200 L 185.34228515625 200 Q 195.34228515625 200 195.34228515625 210 L 195.34228515625 230 Q 195.34228515625 240 185.34228515625 240 L 74 240 Q 64 240 64 230 L 64 210 Q 64 200 74 200 Z" stroke-miterlimit="10"/></g><g transform="translate(-54,-14) scale(1,1)"><g><path fill="none" stroke="none"/><text fill="#000000" stroke="none" font-family="Arial" font-size="13px" font-style="normal" font-weight="bold" text-decoration="none" x="74.671142578125" y="219.5">create v2c session</text></g></g><g transform="translate(-54,-14) scale(1,1)"><path fill="#C0C0C0" stroke="none" d="M 345 207 L 449.42333984375 207 Q 459.42333984375 207 459.42333984375 217 L 459.42333984375 237 Q 459.42333984375 247 449.42333984375 247 L 345 247 Q 335 247 335 237 L 335 217 Q 335 207 345 207 Z" opacity="0.2"/></g><g transform="translate(-54,-14) scale(1,1)"><path fill="#ffffff" stroke="none" d="M 338 200 L 442.42333984375 200 Q 452.42333984375 200 452.42333984375 210 L 452.42333984375 230 Q 452.42333984375 240 442.42333984375 240 L 338 240 Q 328 240 328 230 L 328 210 Q 328 200 338 200 Z"/></g><g transform="translate(-54,-14) scale(1,1)"><path fill="none" stroke="#000000" d="M 338 200 L 442.42333984375 200 Q 452.42333984375 200 452.42333984375 210 L 452.42333984375 230 Q 452.42333984375 240 442.42333984375 240 L 338 240 Q 328 240 328 230 L 328 210 Q 328 200 338 200 Z" stroke-miterlimit="10"/></g><g transform="translate(-54,-14) scale(1,1)"><g><path fill="none" stroke="none"/><text fill="#000000" stroke="none" font-family="Arial" font-size="13px" font-style="normal" font-weight="bold" text-decoration="none" x="338.711669921875" y="219.5">create v3 session</text></g></g><g transform="translate(-54,-14) scale(1,1)"><path fill="none" stroke="#000000" d="M 297 161 L 357 199" stroke-miterlimit="10"/></g><g transform="translate(-54,-14) scale(1,1)"><path fill="none" stroke="#000000" d="M 346.16206718548494 197.11872056619492 L 357 199 L 350.66668965776256 190.00615876786185" stroke-miterlimit="10"/></g><g transform="translate(-54,-14) scale(1,1)"><g><path fill="none" stroke="none"/><text fill="#000000" stroke="none" font-family="Arial" font-size="13px" font-style="normal" font-weight="normal" text-decoration="none" x="331.5" y="173.5">3</text></g></g><g transform="translate(-54,-14) scale(1,1)"><path fill="none" stroke="#000000" d="M 256 44 L 254 87" stroke-miterlimit="10"/></g><g transform="translate(-54,-14) scale(1,1)"><path fill="none" stroke="#000000" d="M 250.26720025586272 76.65271987089511 L 254 87 L 258.677143934236 77.04388004198225" stroke-miterlimit="10"/></g><g transform="translate(-54,-14) scale(1,1)"><g><path fill="none" stroke="none"/><text fill="#000000" stroke="none" font-family="Arial" font-size="13px" font-style="normal" font-weight="normal" text-decoration="none" x="229" y="122">which</text><text fill="#000000" stroke="none" font-family="Arial" font-size="13px" font-style="normal" font-weight="normal" text-decoration="none" x="229" y="135">version</text><text fill="#000000" stroke="none" font-family="Arial" font-size="13px" font-style="normal" font-weight="normal" text-decoration="none" x="229" y="148">is set?</text></g></g><g transform="translate(-54,-14) scale(1,1)"><path fill="none" stroke="#000000" d="M 207 164 L 158 199" stroke-miterlimit="10"/></g><g transform="translate(-54,-14) scale(1,1)"><path fill="none" stroke="#000000" d="M 163.82297619170473 189.6676397266908 L 158 199 L 168.71644118557512 196.51849071810935" stroke-miterlimit="10"/></g><g transform="translate(-54,-14) scale(1,1)"><g><path fill="none" stroke="none"/><text fill="#000000" stroke="none" font-family="Arial" font-size="13px" font-style="normal" font-weight="normal" text-decoration="none" x="191.5" y="187.5">2c</text></g></g><g transform="translate(-54,-14) scale(1,1)"><path fill="#C0C0C0" stroke="none" d="M 234 327 L 297 327 Q 300 327 300 330 L 300 329 Q 300 332 297 332 L 234 332 Q 231 332 231 329 L 231 330 Q 231 327 234 327 Z" opacity="0.2"/></g><g transform="translate(-54,-14) scale(1,1)"><path fill="#000000" stroke="none" d="M 227 320 L 290 320 Q 293 320 293 323 L 293 323 Q 293 326 290 326 L 227 326 Q 224 326 224 323 L 224 323 Q 224 320 227 320 Z"/></g><g transform="translate(-54,-14) scale(1,1)"><path fill="#C0C0C0" stroke="none" d="M 223 427.5 L 263.5 391 L 303 427.5 L 263.5 463 L 223 427.5" opacity="0.2"/></g><g transform="translate(-54,-14) scale(1,1)"><path fill="#ffffff" stroke="none" d="M 216 420 L 256 384 L 296 420 L 256 456 L 216 420"/></g><g transform="translate(-54,-14) scale(1,1)"><path fill="none" stroke="#000000" d="M 216 420 L 256 384 L 296 420 L 256 456 L 216 420 L 216 420" stroke-miterlimit="10"/></g><g transform="translate(-54,-14) scale(1,1)"><path fill="#C0C0C0" stroke="none" d="M 345 391 L 636.03271484375 391 Q 646.03271484375 391 646.03271484375 401 L 646.03271484375 421 Q 646.03271484375 431 636.03271484375 431 L 345 431 Q 335 431 335 421 L 335 401 Q 335 391 345 391 Z" opacity="0.2"/></g><g transform="translate(-54,-14) scale(1,1)"><path fill="#ffffff" stroke="none" d="M 338 384 L 629.03271484375 384 Q 639.03271484375 384 639.03271484375 394 L 639.03271484375 414 Q 639.03271484375 424 629.03271484375 424 L 338 424 Q 328 424 328 414 L 328 394 Q 328 384 338 384 Z"/></g><g transform="translate(-54,-14) scale(1,1)"><path fill="none" stroke="#000000" d="M 338 384 L 629.03271484375 384 Q 639.03271484375 384 639.03271484375 394 L 639.03271484375 414 Q 639.03271484375 424 629.03271484375 424 L 338 424 Q 328 424 328 414 L 328 394 Q 328 384 338 384 Z" stroke-miterlimit="10"/></g><g transform="translate(-54,-14) scale(1,1)"><g><path fill="none" stroke="none"/><text fill="#000000" stroke="none" font-family="Arial" font-size="13px" font-style="normal" font-weight="bold" text-decoration="none" x="352.016357421875" y="403.5">retrieve MAC address of client using given IP</text></g></g><g transform="translate(-54,-14) scale(1,1)"><path fill="#C0C0C0" stroke="none" d="M 223 555.5 L 263.5 519 L 303 555.5 L 263.5 591 L 223 555.5" opacity="0.2"/></g><g transform="translate(-54,-14) scale(1,1)"><path fill="#ffffff" stroke="none" d="M 216 548 L 256 512 L 296 548 L 256 584 L 216 548"/></g><g transform="translate(-54,-14) scale(1,1)"><path fill="none" stroke="#000000" d="M 216 548 L 256 512 L 296 548 L 256 584 L 216 548 L 216 548" stroke-miterlimit="10"/></g><g transform="translate(-54,-14) scale(1,1)"><path fill="#C0C0C0" stroke="none" d="M 337 527 L 677.763671875 527 Q 687.763671875 527 687.763671875 537 L 687.763671875 557 Q 687.763671875 567 677.763671875 567 L 337 567 Q 327 567 327 557 L 327 537 Q 327 527 337 527 Z" opacity="0.2"/></g><g transform="translate(-54,-14) scale(1,1)"><path fill="#ffffff" stroke="none" d="M 330 520 L 670.763671875 520 Q 680.763671875 520 680.763671875 530 L 680.763671875 550 Q 680.763671875 560 670.763671875 560 L 330 560 Q 320 560 320 550 L 320 530 Q 320 520 330 520 Z"/></g><g transform="translate(-54,-14) scale(1,1)"><path fill="none" stroke="#000000" d="M 330 520 L 670.763671875 520 Q 680.763671875 520 680.763671875 530 L 680.763671875 550 Q 680.763671875 560 670.763671875 560 L 330 560 Q 320 560 320 550 L 320 530 Q 320 520 330 520 Z" stroke-miterlimit="10"/></g><g transform="translate(-54,-14) scale(1,1)"><g><path fill="none" stroke="none"/><text fill="#000000" stroke="none" font-family="Arial" font-size="13px" font-style="normal" font-weight="bold" text-decoration="none" x="347.3818359375" y="539.5">retrive IP address of client using given MAC address</text></g></g><g transform="translate(-54,-14) scale(1,1)"><path fill="none" stroke="#000000" d="M 156 241 L 254 319" stroke-miterlimit="10"/></g><g transform="translate(-54,-14) scale(1,1)"><path fill="none" stroke="#000000" d="M 243.42701752209663 315.96486548536177 L 254 319 L 248.66993658962204 309.3776081953939" stroke-miterlimit="10"/></g><g transform="translate(-54,-14) scale(1,1)"><path fill="none" stroke="#000000" d="M 363 241 L 262 319" stroke-miterlimit="10"/></g><g transform="translate(-54,-14) scale(1,1)"><path fill="none" stroke="#000000" d="M 267.4703630704357 309.4566710274866 L 262 319 L 272.6162834542158 316.11997819109934" stroke-miterlimit="10"/></g><g transform="translate(-54,-14) scale(1,1)"><path fill="none" stroke="#000000" d="M 256 457 L 256 511" stroke-miterlimit="10"/></g><g transform="translate(-54,-14) scale(1,1)"><path fill="none" stroke="#000000" d="M 251.790482243984 500.83732514237585 L 256 511 L 260.209517756016 500.83732514237585" stroke-miterlimit="10"/></g><g transform="translate(-54,-14) scale(1,1)"><g><path fill="none" stroke="none"/><text fill="#000000" stroke="none" font-family="Arial" font-size="13px" font-style="normal" font-weight="normal" text-decoration="none" x="258.5" y="489.5">Yes</text></g></g><g transform="translate(-54,-14) scale(1,1)"><path fill="none" stroke="#000000" d="M 297 547 L 319 546" stroke-miterlimit="10"/></g><g transform="translate(-54,-14) scale(1,1)"><path fill="none" stroke="#000000" d="M 309.0389518877435 550.6666391016781 L 319 546 L 308.6566631779511 542.2562874862449" stroke-miterlimit="10"/></g><g transform="translate(-54,-14) scale(1,1)"><g><path fill="none" stroke="none"/><text fill="#000000" stroke="none" font-family="Arial" font-size="13px" font-style="normal" font-weight="normal" text-decoration="none" x="300.294677734375" y="537.5">No</text></g></g><g transform="translate(-54,-14) scale(1,1)"><path fill="none" stroke="#000000" d="M 297 417 L 327 415" stroke-miterlimit="10"/></g><g transform="translate(-54,-14) scale(1,1)"><path fill="none" stroke="#000000" d="M 317.13984681885256 419.8762054144906 L 327 415 L 316.5798209070276 411.4758167371174" stroke-miterlimit="10"/></g><g transform="translate(-54,-14) scale(1,1)"><g><path fill="none" stroke="none"/><text fill="#000000" stroke="none" font-family="Arial" font-size="13px" font-style="normal" font-weight="normal" text-decoration="none" x="303.294677734375" y="407.5">No</text></g></g><g transform="translate(-54,-14) scale(1,1)"><path fill="none" stroke="#000000" d="M 258 326 L 257 383" stroke-miterlimit="10"/></g><g transform="translate(-54,-14) scale(1,1)"><path fill="none" stroke="#000000" d="M 252.96939502155456 372.76504892499577 L 257 383 L 261.387135197705 372.9127285772089" stroke-miterlimit="10"/></g><g transform="translate(-54,-14) scale(1,1)"><path fill="#ffffff" stroke="none" d="M 392 320 L 525 320 L 535 330 L 535 369 L 392 369 L 392 320"/></g><g transform="translate(-54,-14) scale(1,1)"><path fill="none" stroke="#000000" d="M 392 320 L 525 320 L 535 330 L 535 369 L 392 369 L 392 320 L 392 320" stroke-miterlimit="10"/></g><g transform="translate(-54,-14) scale(1,1)"><path fill="none" stroke="#000000" d="M 525 320 L 525 330 L 535 330 L 525 320" stroke-miterlimit="10"/></g><g transform="translate(-54,-14) scale(1,1)"><g><path fill="none" stroke="none"/><text fill="#000000" stroke="none" font-family="Arial" font-size="13px" font-style="normal" font-weight="normal" text-decoration="none" x="397" y="338">MAC address is</text><text fill="#000000" stroke="none" font-family="Arial" font-size="13px" font-style="normal" font-weight="normal" text-decoration="none" x="397" y="351">mandatory to find</text><text fill="#000000" stroke="none" font-family="Arial" font-size="13px" font-style="normal" font-weight="normal" text-decoration="none" x="397" y="364">Cisco attributes</text></g></g><g transform="translate(-54,-14) scale(1,1)"><path fill="#ffffff" stroke="none" d="M 416 464 L 533 464 L 543 474 L 543 513 L 416 513 L 416 464"/></g><g transform="translate(-54,-14) scale(1,1)"><path fill="none" stroke="#000000" d="M 416 464 L 533 464 L 543 474 L 543 513 L 416 513 L 416 464 L 416 464" stroke-miterlimit="10"/></g><g transform="translate(-54,-14) scale(1,1)"><path fill="none" stroke="#000000" d="M 533 464 L 533 474 L 543 474 L 533 464" stroke-miterlimit="10"/></g><g transform="translate(-54,-14) scale(1,1)"><g><path fill="none" stroke="none"/><text fill="#000000" stroke="none" font-family="Arial" font-size="13px" font-style="normal" font-weight="normal" text-decoration="none" x="421" y="482">IP address is</text><text fill="#000000" stroke="none" font-family="Arial" font-size="13px" font-style="normal" font-weight="normal" text-decoration="none" x="421" y="495">mandatory to ping</text></g></g><g transform="translate(-54,-14) scale(1,1)"><path fill="none" stroke="#000000" d="M 490 515 L 492 519" stroke-miterlimit="10" stroke-dasharray="3"/></g><g transform="translate(-54,-14) scale(1,1)"><path fill="none" stroke="#000000" d="M 472 371 L 476 383" stroke-miterlimit="10" stroke-dasharray="3"/></g><g transform="translate(-54,-14) scale(1,1)"><g><path fill="none" stroke="none"/><text fill="#000000" stroke="none" font-family="Arial" font-size="13px" font-style="normal" font-weight="normal" text-decoration="none" x="237" y="410">MAC</text><text fill="#000000" stroke="none" font-family="Arial" font-size="13px" font-style="normal" font-weight="normal" text-decoration="none" x="237" y="423">address</text><text fill="#000000" stroke="none" font-family="Arial" font-size="13px" font-style="normal" font-weight="normal" text-decoration="none" x="237" y="436">given?</text></g></g><g transform="translate(-54,-14) scale(1,1)"><g><path fill="none" stroke="none"/><text fill="#000000" stroke="none" font-family="Arial" font-size="13px" font-style="normal" font-weight="normal" text-decoration="none" x="237" y="538">IP</text><text fill="#000000" stroke="none" font-family="Arial" font-size="13px" font-style="normal" font-weight="normal" text-decoration="none" x="237" y="551">address</text><text fill="#000000" stroke="none" font-family="Arial" font-size="13px" font-style="normal" font-weight="normal" text-decoration="none" x="237" y="564">given?</text></g></g><g transform="translate(-54,-14) scale(1,1)"><path fill="#C0C0C0" stroke="none" d="M 247 659.5 C 247 652.59644 252.59644 647 259.5 647 C 266.40356 647 272 652.59644 272 659.5 C 272 666.40356 266.40356 672 259.5 672 C 252.59644 672 247 666.40356 247 659.5 Z" opacity="0.2"/></g><g transform="translate(-54,-14) scale(1,1)"><path fill="none" stroke="#000000" d="M 240 652.5 C 240 645.59644 245.59644 640 252.5 640 C 259.40356 640 265 645.59644 265 652.5 C 265 659.40356 259.40356 665 252.5 665 C 245.59644 665 240 659.40356 240 652.5 Z" stroke-miterlimit="10"/></g><g transform="translate(-54,-14) scale(1,1)"><path fill="#000000" stroke="none" d="M 245 652.5 C 245 648.357864 248.357864 645 252.5 645 C 256.642136 645 260 648.357864 260 652.5 C 260 656.642136 256.642136 660 252.5 660 C 248.357864 660 245 656.642136 245 652.5 Z"/></g><g transform="translate(-54,-14) scale(1,1)"><path fill="none" stroke="#000000" d="M 255 585 L 253 639" stroke-miterlimit="10"/></g><g transform="translate(-54,-14) scale(1,1)"><path fill="none" stroke="#000000" d="M 249.16950393511132 628.6884870219317 L 253 639 L 257.58277100829406 629.0000895061236" stroke-miterlimit="10"/></g></g></svg>