<svg version="1.1" xmlns="http://www.w3.org/2000/svg" xmlns:xlink="http://www.w3.org/1999/xlink" width="488" height="806"><defs/><g><g transform="translate(-62,-78) scale(1,1)"><path fill="#C0C0C0" stroke="none" d="M 319 104.5 C 319 99.2532944 323.2532944 95 328.5 95 C 333.7467056 95 338 99.2532944 338 104.5 C 338 109.7467056 333.7467056 114 328.5 114 C 323.2532944 114 319 109.7467056 319 104.5 Z" opacity="0.2"/></g><g transform="translate(-62,-78) scale(1,1)"><path fill="#000000" stroke="none" d="M 312 97.5 C 312 92.2532944 316.2532944 88 321.5 88 C 326.7467056 88 331 92.2532944 331 97.5 C 331 102.7467056 326.7467056 107 321.5 107 C 316.2532944 107 312 102.7467056 312 97.5 Z"/></g><g transform="translate(-62,-78) scale(1,1)"><path fill="#C0C0C0" stroke="none" d="M 289 159 L 376 159 Q 386 159 386 169 L 386 189 Q 386 199 376 199 L 289 199 Q 279 199 279 189 L 279 169 Q 279 159 289 159 Z" opacity="0.2"/></g><g transform="translate(-62,-78) scale(1,1)"><path fill="#ffffff" stroke="none" d="M 282 152 L 369 152 Q 379 152 379 162 L 379 182 Q 379 192 369 192 L 282 192 Q 272 192 272 182 L 272 162 Q 272 152 282 152 Z"/></g><g transform="translate(-62,-78) scale(1,1)"><path fill="none" stroke="#000000" d="M 282 152 L 369 152 Q 379 152 379 162 L 379 182 Q 379 192 369 192 L 282 192 Q 272 192 272 182 L 272 162 Q 272 152 282 152 Z" stroke-miterlimit="10"/></g><g transform="translate(-62,-78) scale(1,1)"><g><path fill="none" stroke="none"/><text fill="#000000" stroke="none" font-family="Arial" font-size="13px" font-style="normal" font-weight="bold" text-decoration="none" x="280" y="171.5">get current time</text></g></g><g transform="translate(-62,-78) scale(1,1)"><path fill="#C0C0C0" stroke="none" d="M 295 283.5 L 335.5 247 L 375 283.5 L 335.5 319 L 295 283.5" opacity="0.2"/></g><g transform="translate(-62,-78) scale(1,1)"><path fill="#ffffff" stroke="none" d="M 288 276 L 328 240 L 368 276 L 328 312 L 288 276"/></g><g transform="translate(-62,-78) scale(1,1)"><path fill="none" stroke="#000000" d="M 288 276 L 328 240 L 368 276 L 328 312 L 288 276 L 288 276" stroke-miterlimit="10"/></g><g transform="translate(-62,-78) scale(1,1)"><path fill="#C0C0C0" stroke="none" d="M 295 395.5 L 332.5 359 L 369 395.5 L 332.5 431 L 295 395.5" opacity="0.2"/></g><g transform="translate(-62,-78) scale(1,1)"><path fill="#ffffff" stroke="none" d="M 288 388 L 325 352 L 362 388 L 325 424 L 288 388"/></g><g transform="translate(-62,-78) scale(1,1)"><path fill="none" stroke="#000000" d="M 288 388 L 325 352 L 362 388 L 325 424 L 288 388 L 288 388" stroke-miterlimit="10"/></g><g transform="translate(-62,-78) scale(1,1)"><path fill="#C0C0C0" stroke="none" d="M 425 263 L 530 263 Q 540 263 540 273 L 540 293 Q 540 303 530 303 L 425 303 Q 415 303 415 293 L 415 273 Q 415 263 425 263 Z" opacity="0.2"/></g><g transform="translate(-62,-78) scale(1,1)"><path fill="#ffffff" stroke="none" d="M 418 256 L 523 256 Q 533 256 533 266 L 533 286 Q 533 296 523 296 L 418 296 Q 408 296 408 286 L 408 266 Q 408 256 418 256 Z"/></g><g transform="translate(-62,-78) scale(1,1)"><path fill="none" stroke="#000000" d="M 418 256 L 523 256 Q 533 256 533 266 L 533 286 Q 533 296 523 296 L 418 296 Q 408 296 408 286 L 408 266 Q 408 256 418 256 Z" stroke-miterlimit="10"/></g><g transform="translate(-62,-78) scale(1,1)"><g><path fill="none" stroke="none"/><text fill="#000000" stroke="none" font-family="Arial" font-size="13px" font-style="normal" font-weight="bold" text-decoration="none" x="417" y="275.5">print results to CLI</text></g></g><g transform="translate(-62,-78) scale(1,1)"><path fill="#C0C0C0" stroke="none" d="M 433 375 L 537 375 Q 547 375 547 385 L 547 405 Q 547 415 537 415 L 433 415 Q 423 415 423 405 L 423 385 Q 423 375 433 375 Z" opacity="0.2"/></g><g transform="translate(-62,-78) scale(1,1)"><path fill="#ffffff" stroke="none" d="M 426 368 L 530 368 Q 540 368 540 378 L 540 398 Q 540 408 530 408 L 426 408 Q 416 408 416 398 L 416 378 Q 416 368 426 368 Z"/></g><g transform="translate(-62,-78) scale(1,1)"><path fill="none" stroke="#000000" d="M 426 368 L 530 368 Q 540 368 540 378 L 540 398 Q 540 408 530 408 L 426 408 Q 416 408 416 398 L 416 378 Q 416 368 426 368 Z" stroke-miterlimit="10"/></g><g transform="translate(-62,-78) scale(1,1)"><g><path fill="none" stroke="none"/><text fill="#000000" stroke="none" font-family="Arial" font-size="13px" font-style="normal" font-weight="bold" text-decoration="none" x="424" y="387.5">insert data into DB</text></g></g><g transform="translate(-62,-78) scale(1,1)"><path fill="none" stroke="#000000" d="M 322 108 L 324 151" stroke-miterlimit="10"/></g><g transform="translate(-62,-78) scale(1,1)"><path fill="none" stroke="#000000" d="M 319.322856065764 141.04388004198225 L 324 151 L 327.73279974413725 140.6527198708951" stroke-miterlimit="10"/></g><g transform="translate(-62,-78) scale(1,1)"><path fill="none" stroke="#000000" d="M 326 193 L 327 239" stroke-miterlimit="10"/></g><g transform="translate(-62,-78) scale(1,1)"><path fill="none" stroke="#000000" d="M 322.57060105042297 228.9312153193404 L 327 239 L 330.9876478921751 228.74823604017186" stroke-miterlimit="10"/></g><g transform="translate(-62,-78) scale(1,1)"><path fill="none" stroke="#000000" d="M 369 276 L 407 276" stroke-miterlimit="10"/></g><g transform="translate(-62,-78) scale(1,1)"><path fill="none" stroke="#000000" d="M 396.83732514237585 280.209517756016 L 407 276 L 396.83732514237585 271.790482243984" stroke-miterlimit="10"/></g><g transform="translate(-62,-78) scale(1,1)"><g><path fill="none" stroke="none"/><text fill="#000000" stroke="none" font-family="Arial" font-size="13px" font-style="normal" font-weight="normal" text-decoration="none" x="379.5" y="267.5">No</text></g></g><g transform="translate(-62,-78) scale(1,1)"><path fill="none" stroke="#000000" d="M 327 313 L 326 351" stroke-miterlimit="10"/></g><g transform="translate(-62,-78) scale(1,1)"><path fill="none" stroke="#000000" d="M 322.0592853332588 340.7301038021151 L 326 351 L 330.4754071800324 340.9515806928197" stroke-miterlimit="10"/></g><g transform="translate(-62,-78) scale(1,1)"><g><path fill="none" stroke="none"/><text fill="#000000" stroke="none" font-family="Arial" font-size="13px" font-style="normal" font-weight="normal" text-decoration="none" x="328.5" y="337.5">Yes</text></g></g><g transform="translate(-62,-78) scale(1,1)"><path fill="none" stroke="#000000" d="M 363 388 L 415 388" stroke-miterlimit="10"/></g><g transform="translate(-62,-78) scale(1,1)"><path fill="none" stroke="#000000" d="M 404.83732514237585 392.209517756016 L 415 388 L 404.83732514237585 383.790482243984" stroke-miterlimit="10"/></g><g transform="translate(-62,-78) scale(1,1)"><g><path fill="none" stroke="none"/><text fill="#000000" stroke="none" font-family="Arial" font-size="13px" font-style="normal" font-weight="normal" text-decoration="none" x="377.5" y="379.5">Yes</text></g></g><g transform="translate(-62,-78) scale(1,1)"><g><path fill="none" stroke="none"/><text fill="#000000" stroke="none" font-family="Arial" font-size="13px" font-style="normal" font-weight="normal" text-decoration="none" x="309" y="266">silent</text><text fill="#000000" stroke="none" font-family="Arial" font-size="13px" font-style="normal" font-weight="normal" text-decoration="none" x="309" y="279">option</text><text fill="#000000" stroke="none" font-family="Arial" font-size="13px" font-style="normal" font-weight="normal" text-decoration="none" x="309" y="292">set?</text></g></g><g transform="translate(-62,-78) scale(1,1)"><g><path fill="none" stroke="none"/><text fill="#000000" stroke="none" font-family="Arial" font-size="13px" font-style="normal" font-weight="normal" text-decoration="none" x="301" y="386">print_to_</text><text fill="#000000" stroke="none" font-family="Arial" font-size="13px" font-style="normal" font-weight="normal" text-decoration="none" x="301" y="399">db set?</text></g></g><g transform="translate(-62,-78) scale(1,1)"><path fill="#C0C0C0" stroke="none" d="M 257 487 L 407 487 Q 417 487 417 497 L 417 517 Q 417 527 407 527 L 257 527 Q 247 527 247 517 L 247 497 Q 247 487 257 487 Z" opacity="0.2"/></g><g transform="translate(-62,-78) scale(1,1)"><path fill="#ffffff" stroke="none" d="M 250 480 L 400 480 Q 410 480 410 490 L 410 510 Q 410 520 400 520 L 250 520 Q 240 520 240 510 L 240 490 Q 240 480 250 480 Z"/></g><g transform="translate(-62,-78) scale(1,1)"><path fill="none" stroke="#000000" d="M 250 480 L 400 480 Q 410 480 410 490 L 410 510 Q 410 520 400 520 L 250 520 Q 240 520 240 510 L 240 490 Q 240 480 250 480 Z" stroke-miterlimit="10"/></g><g transform="translate(-62,-78) scale(1,1)"><g><path fill="none" stroke="none"/><text fill="#000000" stroke="none" font-family="Arial" font-size="13px" font-style="normal" font-weight="bold" text-decoration="none" x="250" y="499.5">decrease iteration counter</text></g></g><g transform="translate(-62,-78) scale(1,1)"><path fill="none" stroke="#000000" d="M 325 425 L 325 479" stroke-miterlimit="10"/></g><g transform="translate(-62,-78) scale(1,1)"><path fill="none" stroke="#000000" d="M 320.790482243984 468.83732514237585 L 325 479 L 329.209517756016 468.83732514237585" stroke-miterlimit="10"/></g><g transform="translate(-62,-78) scale(1,1)"><g><path fill="none" stroke="none"/><text fill="#000000" stroke="none" font-family="Arial" font-size="13px" font-style="normal" font-weight="normal" text-decoration="none" x="330.5" y="457.5">No</text></g></g><g transform="translate(-62,-78) scale(1,1)"><path fill="none" stroke="#000000" d="M 449 409 L 354 479" stroke-miterlimit="10"/></g><g transform="translate(-62,-78) scale(1,1)"><path fill="none" stroke="#000000" d="M 359.6844388337322 469.5826142085206 L 354 479 L 364.6786026007771 476.3604078923673" stroke-miterlimit="10"/></g><g transform="translate(-62,-78) scale(1,1)"><path fill="none" stroke="#000000" d="M 443 297 L 363 359" stroke-miterlimit="10"/></g><g transform="translate(-62,-78) scale(1,1)"><path fill="none" stroke="#000000" d="M 368.4540998753447 349.4473671404285 L 363 359 L 373.6113624803134 356.1018995339365" stroke-miterlimit="10"/></g><g transform="translate(-62,-78) scale(1,1)"><path fill="#C0C0C0" stroke="none" d="M 271 603.5 L 323.5 559 L 375 603.5 L 323.5 647 L 271 603.5" opacity="0.2"/></g><g transform="translate(-62,-78) scale(1,1)"><path fill="#ffffff" stroke="none" d="M 264 596 L 316 552 L 368 596 L 316 640 L 264 596"/></g><g transform="translate(-62,-78) scale(1,1)"><path fill="none" stroke="#000000" d="M 264 596 L 316 552 L 368 596 L 316 640 L 264 596 L 264 596" stroke-miterlimit="10"/></g><g transform="translate(-62,-78) scale(1,1)"><g><path fill="none" stroke="none"/><text fill="#000000" stroke="none" font-family="Arial" font-size="13px" font-style="normal" font-weight="normal" text-decoration="none" x="293" y="586">increase</text><text fill="#000000" stroke="none" font-family="Arial" font-size="13px" font-style="normal" font-weight="normal" text-decoration="none" x="293" y="599">counter</text><text fill="#000000" stroke="none" font-family="Arial" font-size="13px" font-style="normal" font-weight="normal" text-decoration="none" x="293" y="612">== 0?</text></g></g><g transform="translate(-62,-78) scale(1,1)"><path fill="none" stroke="#000000" d="M 323 521 L 320 551" stroke-miterlimit="10"/></g><g transform="translate(-62,-78) scale(1,1)"><path fill="none" stroke="#000000" d="M 316.8225972234496 540.4688978926434 L 320 551 L 325.19985066362 541.3066232366605" stroke-miterlimit="10"/></g><g transform="translate(-62,-78) scale(1,1)"><path fill="#C0C0C0" stroke="none" d="M 471 603.5 C 471 596.59644 476.59644 591 483.5 591 C 490.40356 591 496 596.59644 496 603.5 C 496 610.40356 490.40356 616 483.5 616 C 476.59644 616 471 610.40356 471 603.5 Z" opacity="0.2"/></g><g transform="translate(-62,-78) scale(1,1)"><path fill="none" stroke="#000000" d="M 464 596.5 C 464 589.59644 469.59644 584 476.5 584 C 483.40356 584 489 589.59644 489 596.5 C 489 603.40356 483.40356 609 476.5 609 C 469.59644 609 464 603.40356 464 596.5 Z" stroke-miterlimit="10"/></g><g transform="translate(-62,-78) scale(1,1)"><path fill="#000000" stroke="none" d="M 469 596.5 C 469 592.357864 472.357864 589 476.5 589 C 480.642136 589 484 592.357864 484 596.5 C 484 600.642136 480.642136 604 476.5 604 C 472.357864 604 469 600.642136 469 596.5 Z"/></g><g transform="translate(-62,-78) scale(1,1)"><path fill="none" stroke="#000000" d="M 369 596 L 463 596" stroke-miterlimit="10"/></g><g transform="translate(-62,-78) scale(1,1)"><path fill="none" stroke="#000000" d="M 452.83732514237585 600.209517756016 L 463 596 L 452.83732514237585 591.790482243984" stroke-miterlimit="10"/></g><g transform="translate(-62,-78) scale(1,1)"><g><path fill="none" stroke="none"/><text fill="#000000" stroke="none" font-family="Arial" font-size="13px" font-style="normal" font-weight="normal" text-decoration="none" x="404.5" y="587.5">Yes</text></g></g><g transform="translate(-62,-78) scale(1,1)"><path fill="#C0C0C0" stroke="none" d="M 257 679 L 406 679 Q 416 679 416 689 L 416 709 Q 416 719 406 719 L 257 719 Q 247 719 247 709 L 247 689 Q 247 679 257 679 Z" opacity="0.2"/></g><g transform="translate(-62,-78) scale(1,1)"><path fill="#ffffff" stroke="none" d="M 250 672 L 399 672 Q 409 672 409 682 L 409 702 Q 409 712 399 712 L 250 712 Q 240 712 240 702 L 240 682 Q 240 672 250 672 Z"/></g><g transform="translate(-62,-78) scale(1,1)"><path fill="none" stroke="#000000" d="M 250 672 L 399 672 Q 409 672 409 682 L 409 702 Q 409 712 399 712 L 250 712 Q 240 712 240 702 L 240 682 Q 240 672 250 672 Z" stroke-miterlimit="10"/></g><g transform="translate(-62,-78) scale(1,1)"><g><path fill="none" stroke="none"/><text fill="#000000" stroke="none" font-family="Arial" font-size="13px" font-style="normal" font-weight="bold" text-decoration="none" x="250" y="691.5">sleep for interval seconds</text></g></g><g transform="translate(-62,-78) scale(1,1)"><path fill="none" stroke="#000000" d="M 320 641 L 322 671" stroke-miterlimit="10"/></g><g transform="translate(-62,-78) scale(1,1)"><path fill="none" stroke="#000000" d="M 317.1237945855094 661.1398468188526 L 322 671 L 325.5241832628826 660.5798209070276" stroke-miterlimit="10"/></g><g transform="translate(-62,-78) scale(1,1)"><g><path fill="none" stroke="none"/><text fill="#000000" stroke="none" font-family="Arial" font-size="13px" font-style="normal" font-weight="normal" text-decoration="none" x="326.5" y="661.5">No</text></g></g><g transform="translate(-62,-78) scale(1,1)"><path fill="#C0C0C0" stroke="none" d="M 249 767 L 423 767 Q 433 767 433 777 L 433 797 Q 433 807 423 807 L 249 807 Q 239 807 239 797 L 239 777 Q 239 767 249 767 Z" opacity="0.2"/></g><g transform="translate(-62,-78) scale(1,1)"><path fill="#ffffff" stroke="none" d="M 242 760 L 416 760 Q 426 760 426 770 L 426 790 Q 426 800 416 800 L 242 800 Q 232 800 232 790 L 232 770 Q 232 760 242 760 Z"/></g><g transform="translate(-62,-78) scale(1,1)"><path fill="none" stroke="#000000" d="M 242 760 L 416 760 Q 426 760 426 770 L 426 790 Q 426 800 416 800 L 242 800 Q 232 800 232 790 L 232 770 Q 232 760 242 760 Z" stroke-miterlimit="10"/></g><g transform="translate(-62,-78) scale(1,1)"><g><path fill="none" stroke="none"/><text fill="#000000" stroke="none" font-family="Arial" font-size="13px" font-style="normal" font-weight="bold" text-decoration="none" x="242.5" y="779.5">update data for all parameters</text></g></g><g transform="translate(-62,-78) scale(1,1)"><path fill="none" stroke="#000000" d="M 325 713 L 328 759" stroke-miterlimit="10"/></g><g transform="translate(-62,-78) scale(1,1)"><path fill="none" stroke="#000000" d="M 323.1380278627038 749.1328207203803 L 328 759 L 331.53921591158024 748.5849171519753" stroke-miterlimit="10"/></g><g transform="translate(-62,-78) scale(1,1)"><path fill="none" stroke="#000000" d="M 231 778 L 72 776 L 72 176 L 271 173" stroke-miterlimit="10"/></g><g transform="translate(-62,-78) scale(1,1)"><path fill="none" stroke="#000000" d="M 260.90193262254064 177.36222824257183 L 271 173 L 260.7750269091138 168.94414925192584" stroke-miterlimit="10"/></g><g transform="translate(-62,-78) scale(1,1)"><path fill="#ffffff" stroke="none" d="M 232 824 L 413 824 L 423 834 L 423 873 L 232 873 L 232 824"/></g><g transform="translate(-62,-78) scale(1,1)"><path fill="none" stroke="#000000" d="M 232 824 L 413 824 L 423 834 L 423 873 L 232 873 L 232 824 L 232 824" stroke-miterlimit="10"/></g><g transform="translate(-62,-78) scale(1,1)"><path fill="none" stroke="#000000" d="M 413 824 L 413 834 L 423 834 L 413 824" stroke-miterlimit="10"/></g><g transform="translate(-62,-78) scale(1,1)"><g><path fill="none" stroke="none"/><text fill="#000000" stroke="none" font-family="Arial" font-size="13px" font-style="normal" font-weight="normal" text-decoration="none" x="237" y="842">If error happens keep loop alive</text><text fill="#000000" stroke="none" font-family="Arial" font-size="13px" font-style="normal" font-weight="normal" text-decoration="none" x="237" y="855">but print error message</text></g></g><g transform="translate(-62,-78) scale(1,1)"><path fill="none" stroke="#000000" d="M 328 823 L 329 801" stroke-miterlimit="10" stroke-dasharray="3"/></g></g></svg>