<svg version="1.1" xmlns="http://www.w3.org/2000/svg" xmlns:xlink="http://www.w3.org/1999/xlink" width="1189" height="933"><defs/><g><g transform="translate(-54,-22) scale(1,1)"><path fill="#C0C0C0" stroke="none" d="M 575 48.5 C 575 43.2532944 579.2532944 39 584.5 39 C 589.7467056 39 594 43.2532944 594 48.5 C 594 53.7467056 589.7467056 58 584.5 58 C 579.2532944 58 575 53.7467056 575 48.5 Z" opacity="0.2"/></g><g transform="translate(-54,-22) scale(1,1)"><path fill="#000000" stroke="none" d="M 568 41.5 C 568 36.2532944 572.2532944 32 577.5 32 C 582.7467056 32 587 36.2532944 587 41.5 C 587 46.7467056 582.7467056 51 577.5 51 C 572.2532944 51 568 46.7467056 568 41.5 Z"/></g><g transform="translate(-54,-22) scale(1,1)"><path fill="#ffffff" stroke="none" d="M 512 104 L 613 104 L 623 114 L 623 192 L 512 192 L 512 104"/></g><g transform="translate(-54,-22) scale(1,1)"><path fill="none" stroke="#000000" d="M 512 104 L 613 104 L 623 114 L 623 192 L 512 192 L 512 104 L 512 104" stroke-miterlimit="10"/></g><g transform="translate(-54,-22) scale(1,1)"><path fill="none" stroke="#000000" d="M 613 104 L 613 114 L 623 114 L 613 104" stroke-miterlimit="10"/></g><g transform="translate(-54,-22) scale(1,1)"><g><path fill="none" stroke="none"/><text fill="#000000" stroke="none" font-family="Arial" font-size="13px" font-style="normal" font-weight="normal" text-decoration="none" x="517" y="122">for each</text><text fill="#000000" stroke="none" font-family="Arial" font-size="13px" font-style="normal" font-weight="normal" text-decoration="none" x="517" y="135">parameter of</text><text fill="#000000" stroke="none" font-family="Arial" font-size="13px" font-style="normal" font-weight="normal" text-decoration="none" x="517" y="148">check if set and</text><text fill="#000000" stroke="none" font-family="Arial" font-size="13px" font-style="normal" font-weight="normal" text-decoration="none" x="517" y="161">if so run callback</text></g></g><g transform="translate(-54,-22) scale(1,1)"><path fill="#C0C0C0" stroke="none" d="M 81 319 L 204 319 Q 214 319 214 329 L 214 349 Q 214 359 204 359 L 81 359 Q 71 359 71 349 L 71 329 Q 71 319 81 319 Z" opacity="0.2"/></g><g transform="translate(-54,-22) scale(1,1)"><path fill="#ffffff" stroke="none" d="M 74 312 L 197 312 Q 207 312 207 322 L 207 342 Q 207 352 197 352 L 74 352 Q 64 352 64 342 L 64 322 Q 64 312 74 312 Z"/></g><g transform="translate(-54,-22) scale(1,1)"><path fill="none" stroke="#000000" d="M 74 312 L 197 312 Q 207 312 207 322 L 207 342 Q 207 352 197 352 L 74 352 Q 64 352 64 342 L 64 322 Q 64 312 74 312 Z" stroke-miterlimit="10"/></g><g transform="translate(-54,-22) scale(1,1)"><g><path fill="none" stroke="none"/><text fill="#000000" stroke="none" font-family="Arial" font-size="13px" font-style="normal" font-weight="bold" text-decoration="none" x="72" y="331.5">add_value_to_context</text></g></g><g transform="translate(-54,-22) scale(1,1)"><path fill="#C0C0C0" stroke="none" d="M 249 319 L 339 319 Q 349 319 349 329 L 349 349 Q 349 359 339 359 L 249 359 Q 239 359 239 349 L 239 329 Q 239 319 249 319 Z" opacity="0.2"/></g><g transform="translate(-54,-22) scale(1,1)"><path fill="#ffffff" stroke="none" d="M 242 312 L 332 312 Q 342 312 342 322 L 342 342 Q 342 352 332 352 L 242 352 Q 232 352 232 342 L 232 322 Q 232 312 242 312 Z"/></g><g transform="translate(-54,-22) scale(1,1)"><path fill="none" stroke="#000000" d="M 242 312 L 332 312 Q 342 312 342 322 L 342 342 Q 342 352 332 352 L 242 352 Q 232 352 232 342 L 232 322 Q 232 312 242 312 Z" stroke-miterlimit="10"/></g><g transform="translate(-54,-22) scale(1,1)"><g><path fill="none" stroke="none"/><text fill="#000000" stroke="none" font-family="Arial" font-size="13px" font-style="normal" font-weight="bold" text-decoration="none" x="239.5" y="331.5">get_snmp_value</text></g></g><g transform="translate(-54,-22) scale(1,1)"><path fill="#C0C0C0" stroke="none" d="M 393 319 L 549 319 Q 559 319 559 329 L 559 349 Q 559 359 549 359 L 393 359 Q 383 359 383 349 L 383 329 Q 383 319 393 319 Z" opacity="0.2"/></g><g transform="translate(-54,-22) scale(1,1)"><path fill="#ffffff" stroke="none" d="M 386 312 L 542 312 Q 552 312 552 322 L 552 342 Q 552 352 542 352 L 386 352 Q 376 352 376 342 L 376 322 Q 376 312 386 312 Z"/></g><g transform="translate(-54,-22) scale(1,1)"><path fill="none" stroke="#000000" d="M 386 312 L 542 312 Q 552 312 552 322 L 552 342 Q 552 352 542 352 L 386 352 Q 376 352 376 342 L 376 322 Q 376 312 386 312 Z" stroke-miterlimit="10"/></g><g transform="translate(-54,-22) scale(1,1)"><g><path fill="none" stroke="none"/><text fill="#000000" stroke="none" font-family="Arial" font-size="13px" font-style="normal" font-weight="bold" text-decoration="none" x="385.5" y="331.5">get_snmp_value_with_mac</text></g></g><g transform="translate(-54,-22) scale(1,1)"><path fill="#C0C0C0" stroke="none" d="M 593 319 L 702 319 Q 712 319 712 329 L 712 349 Q 712 359 702 359 L 593 359 Q 583 359 583 349 L 583 329 Q 583 319 593 319 Z" opacity="0.2"/></g><g transform="translate(-54,-22) scale(1,1)"><path fill="#ffffff" stroke="none" d="M 586 312 L 695 312 Q 705 312 705 322 L 705 342 Q 705 352 695 352 L 586 352 Q 576 352 576 342 L 576 322 Q 576 312 586 312 Z"/></g><g transform="translate(-54,-22) scale(1,1)"><path fill="none" stroke="#000000" d="M 586 312 L 695 312 Q 705 312 705 322 L 705 342 Q 705 352 695 352 L 586 352 Q 576 352 576 342 L 576 322 Q 576 312 586 312 Z" stroke-miterlimit="10"/></g><g transform="translate(-54,-22) scale(1,1)"><g><path fill="none" stroke="none"/><text fill="#000000" stroke="none" font-family="Arial" font-size="13px" font-style="normal" font-weight="bold" text-decoration="none" x="583.5" y="331.5">check_wlc_address</text></g></g><g transform="translate(-54,-22) scale(1,1)"><path fill="#C0C0C0" stroke="none" d="M 745 319 L 867 319 Q 877 319 877 329 L 877 349 Q 877 359 867 359 L 745 359 Q 735 359 735 349 L 735 329 Q 735 319 745 319 Z" opacity="0.2"/></g><g transform="translate(-54,-22) scale(1,1)"><path fill="#ffffff" stroke="none" d="M 738 312 L 860 312 Q 870 312 870 322 L 870 342 Q 870 352 860 352 L 738 352 Q 728 352 728 342 L 728 322 Q 728 312 738 312 Z"/></g><g transform="translate(-54,-22) scale(1,1)"><path fill="none" stroke="#000000" d="M 738 312 L 860 312 Q 870 312 870 322 L 870 342 Q 870 352 860 352 L 738 352 Q 728 352 728 342 L 728 322 Q 728 312 738 312 Z" stroke-miterlimit="10"/></g><g transform="translate(-54,-22) scale(1,1)"><g><path fill="none" stroke="none"/><text fill="#000000" stroke="none" font-family="Arial" font-size="13px" font-style="normal" font-weight="bold" text-decoration="none" x="736" y="331.5">check_client_address</text></g></g><g transform="translate(-54,-22) scale(1,1)"><path fill="#C0C0C0" stroke="none" d="M 937 319 L 1008 319 Q 1018 319 1018 329 L 1018 349 Q 1018 359 1008 359 L 937 359 Q 927 359 927 349 L 927 329 Q 927 319 937 319 Z" opacity="0.2"/></g><g transform="translate(-54,-22) scale(1,1)"><path fill="#ffffff" stroke="none" d="M 930 312 L 1001 312 Q 1011 312 1011 322 L 1011 342 Q 1011 352 1001 352 L 930 352 Q 920 352 920 342 L 920 322 Q 920 312 930 312 Z"/></g><g transform="translate(-54,-22) scale(1,1)"><path fill="none" stroke="#000000" d="M 930 312 L 1001 312 Q 1011 312 1011 322 L 1011 342 Q 1011 352 1001 352 L 930 352 Q 920 352 920 342 L 920 322 Q 920 312 930 312 Z" stroke-miterlimit="10"/></g><g transform="translate(-54,-22) scale(1,1)"><g><path fill="none" stroke="none"/><text fill="#000000" stroke="none" font-family="Arial" font-size="13px" font-style="normal" font-weight="bold" text-decoration="none" x="926.5" y="331.5">get_ap_name</text></g></g><g transform="translate(-54,-22) scale(1,1)"><path fill="#C0C0C0" stroke="none" d="M 1089 319 L 1132 319 Q 1142 319 1142 329 L 1142 349 Q 1142 359 1132 359 L 1089 359 Q 1079 359 1079 349 L 1079 329 Q 1079 319 1089 319 Z" opacity="0.2"/></g><g transform="translate(-54,-22) scale(1,1)"><path fill="#ffffff" stroke="none" d="M 1082 312 L 1125 312 Q 1135 312 1135 322 L 1135 342 Q 1135 352 1125 352 L 1082 352 Q 1072 352 1072 342 L 1072 322 Q 1072 312 1082 312 Z"/></g><g transform="translate(-54,-22) scale(1,1)"><path fill="none" stroke="#000000" d="M 1082 312 L 1125 312 Q 1135 312 1135 322 L 1135 342 Q 1135 352 1125 352 L 1082 352 Q 1072 352 1072 342 L 1072 322 Q 1072 312 1082 312 Z" stroke-miterlimit="10"/></g><g transform="translate(-54,-22) scale(1,1)"><g><path fill="none" stroke="none"/><text fill="#000000" stroke="none" font-family="Arial" font-size="13px" font-style="normal" font-weight="bold" text-decoration="none" x="1079" y="331.5">get_ping</text></g></g><g transform="translate(-54,-22) scale(1,1)"><path fill="none" stroke="#000000" d="M 511 185 L 319 311" stroke-miterlimit="10" stroke-dasharray="3"/></g><g transform="translate(-54,-22) scale(1,1)"><path fill="none" stroke="#000000" d="M 511 172 L 184 311" stroke-miterlimit="10" stroke-dasharray="3"/></g><g transform="translate(-54,-22) scale(1,1)"><path fill="none" stroke="#000000" d="M 542 194 L 476 311" stroke-miterlimit="10" stroke-dasharray="3"/></g><g transform="translate(-54,-22) scale(1,1)"><path fill="none" stroke="#000000" d="M 586 194 L 632 311" stroke-miterlimit="10" stroke-dasharray="3"/></g><g transform="translate(-54,-22) scale(1,1)"><path fill="none" stroke="#000000" d="M 625 193 L 773 311" stroke-miterlimit="10" stroke-dasharray="3"/></g><g transform="translate(-54,-22) scale(1,1)"><path fill="none" stroke="#000000" d="M 625 174 L 920 311" stroke-miterlimit="10" stroke-dasharray="3"/></g><g transform="translate(-54,-22) scale(1,1)"><path fill="none" stroke="#000000" d="M 625 168 L 1071 321" stroke-miterlimit="10" stroke-dasharray="3"/></g><g transform="translate(-54,-22) scale(1,1)"><path fill="#ffffff" stroke="none" d="M 120 248 L 178 248 L 188 258 L 188 297 L 120 297 L 120 248"/></g><g transform="translate(-54,-22) scale(1,1)"><path fill="none" stroke="#000000" d="M 120 248 L 178 248 L 188 258 L 188 297 L 120 297 L 120 248 L 120 248" stroke-miterlimit="10"/></g><g transform="translate(-54,-22) scale(1,1)"><path fill="none" stroke="#000000" d="M 178 248 L 178 258 L 188 258 L 178 248" stroke-miterlimit="10"/></g><g transform="translate(-54,-22) scale(1,1)"><g><path fill="none" stroke="none"/><text fill="#000000" stroke="none" font-family="Arial" font-size="13px" font-style="normal" font-weight="normal" text-decoration="none" x="125" y="266">e.g.</text><text fill="#000000" stroke="none" font-family="Arial" font-size="13px" font-style="normal" font-weight="normal" text-decoration="none" x="125" y="279">SNMP</text><text fill="#000000" stroke="none" font-family="Arial" font-size="13px" font-style="normal" font-weight="normal" text-decoration="none" x="125" y="292">version</text></g></g><g transform="translate(-54,-22) scale(1,1)"><path fill="#ffffff" stroke="none" d="M 408 264 L 466 264 L 476 274 L 476 302 L 408 302 L 408 264"/></g><g transform="translate(-54,-22) scale(1,1)"><path fill="none" stroke="#000000" d="M 408 264 L 466 264 L 476 274 L 476 302 L 408 302 L 408 264 L 408 264" stroke-miterlimit="10"/></g><g transform="translate(-54,-22) scale(1,1)"><path fill="none" stroke="#000000" d="M 466 264 L 466 274 L 476 274 L 466 264" stroke-miterlimit="10"/></g><g transform="translate(-54,-22) scale(1,1)"><g><path fill="none" stroke="none"/><text fill="#000000" stroke="none" font-family="Arial" font-size="13px" font-style="normal" font-weight="normal" text-decoration="none" x="413" y="282">e.g.</text><text fill="#000000" stroke="none" font-family="Arial" font-size="13px" font-style="normal" font-weight="normal" text-decoration="none" x="413" y="295">channel</text></g></g><g transform="translate(-54,-22) scale(1,1)"><path fill="#ffffff" stroke="none" d="M 362 392 L 422 392 Q 432 392 432 402 L 432 435 Q 432 445 422 445 L 362 445 Q 352 445 352 435 L 352 402 Q 352 392 362 392 Z"/></g><g transform="translate(-54,-22) scale(1,1)"><path fill="none" stroke="#000000" d="M 362 392 L 422 392 Q 432 392 432 402 L 432 435 Q 432 445 422 445 L 362 445 Q 352 445 352 435 L 352 402 Q 352 392 362 392 Z" stroke-miterlimit="10"/></g><g transform="translate(-54,-22) scale(1,1)"><g><path fill="none" stroke="none"/><text fill="#000000" stroke="none" font-family="Arial" font-size="13px" font-style="normal" font-weight="bold" text-decoration="none" x="362.5" y="411.5">init SNMP</text><text fill="#000000" stroke="none" font-family="Arial" font-size="13px" font-style="normal" font-weight="bold" text-decoration="none" x="359.5" y="424.5">if not ready</text></g></g><g transform="translate(-54,-22) scale(1,1)"><path fill="#C0C0C0" stroke="none" d="M 361 479 L 429 479 Q 439 479 439 489 L 439 522 Q 439 532 429 532 L 361 532 Q 351 532 351 522 L 351 489 Q 351 479 361 479 Z" opacity="0.2"/></g><g transform="translate(-54,-22) scale(1,1)"><path fill="#ffffff" stroke="none" d="M 354 472 L 422 472 Q 432 472 432 482 L 432 515 Q 432 525 422 525 L 354 525 Q 344 525 344 515 L 344 482 Q 344 472 354 472 Z"/></g><g transform="translate(-54,-22) scale(1,1)"><path fill="none" stroke="#000000" d="M 354 472 L 422 472 Q 432 472 432 482 L 432 515 Q 432 525 422 525 L 354 525 Q 344 525 344 515 L 344 482 Q 344 472 354 472 Z" stroke-miterlimit="10"/></g><g transform="translate(-54,-22) scale(1,1)"><g><path fill="none" stroke="none"/><text fill="#000000" stroke="none" font-family="Arial" font-size="13px" font-style="normal" font-weight="bold" text-decoration="none" x="356" y="491.5">get OID for</text><text fill="#000000" stroke="none" font-family="Arial" font-size="13px" font-style="normal" font-weight="bold" text-decoration="none" x="359" y="504.5">parameter</text></g></g><g transform="translate(-54,-22) scale(1,1)"><path fill="none" stroke="#000000" d="M 391 446 L 389 471" stroke-miterlimit="10"/></g><g transform="translate(-54,-22) scale(1,1)"><path fill="none" stroke="#000000" d="M 385.61431315104414 460.534001501968 L 389 471 L 394.00653637997584 461.20537936028256" stroke-miterlimit="10"/></g><g transform="translate(-54,-22) scale(1,1)"><path fill="#C0C0C0" stroke="none" d="M 249 631 L 325 631 Q 335 631 335 641 L 335 674 Q 335 684 325 684 L 249 684 Q 239 684 239 674 L 239 641 Q 239 631 249 631 Z" opacity="0.2"/></g><g transform="translate(-54,-22) scale(1,1)"><path fill="#ffffff" stroke="none" d="M 242 624 L 318 624 Q 328 624 328 634 L 328 667 Q 328 677 318 677 L 242 677 Q 232 677 232 667 L 232 634 Q 232 624 242 624 Z"/></g><g transform="translate(-54,-22) scale(1,1)"><path fill="none" stroke="#000000" d="M 242 624 L 318 624 Q 328 624 328 634 L 328 667 Q 328 677 318 677 L 242 677 Q 232 677 232 667 L 232 634 Q 232 624 242 624 Z" stroke-miterlimit="10"/></g><g transform="translate(-54,-22) scale(1,1)"><g><path fill="none" stroke="none"/><text fill="#000000" stroke="none" font-family="Arial" font-size="13px" font-style="normal" font-weight="bold" text-decoration="none" x="250" y="643.5">get SNMP</text><text fill="#000000" stroke="none" font-family="Arial" font-size="13px" font-style="normal" font-weight="bold" text-decoration="none" x="242" y="656.5">value by OID</text></g></g><g transform="translate(-54,-22) scale(1,1)"><path fill="#C0C0C0" stroke="none" d="M 361 735 L 413 735 Q 423 735 423 745 L 423 791 Q 423 801 413 801 L 361 801 Q 351 801 351 791 L 351 745 Q 351 735 361 735 Z" opacity="0.2"/></g><g transform="translate(-54,-22) scale(1,1)"><path fill="#ffffff" stroke="none" d="M 354 728 L 406 728 Q 416 728 416 738 L 416 784 Q 416 794 406 794 L 354 794 Q 344 794 344 784 L 344 738 Q 344 728 354 728 Z"/></g><g transform="translate(-54,-22) scale(1,1)"><path fill="none" stroke="#000000" d="M 354 728 L 406 728 Q 416 728 416 738 L 416 784 Q 416 794 406 794 L 354 794 Q 344 794 344 784 L 344 738 Q 344 728 354 728 Z" stroke-miterlimit="10"/></g><g transform="translate(-54,-22) scale(1,1)"><g><path fill="none" stroke="none"/><text fill="#000000" stroke="none" font-family="Arial" font-size="13px" font-style="normal" font-weight="bold" text-decoration="none" x="366" y="747.5">save</text><text fill="#000000" stroke="none" font-family="Arial" font-size="13px" font-style="normal" font-weight="bold" text-decoration="none" x="357.5" y="760.5">value in</text><text fill="#000000" stroke="none" font-family="Arial" font-size="13px" font-style="normal" font-weight="bold" text-decoration="none" x="358.5" y="773.5">context</text></g></g><g transform="translate(-54,-22) scale(1,1)"><path fill="none" stroke="#000000" d="M 313 353 L 359 391" stroke-miterlimit="10"/></g><g transform="translate(-54,-22) scale(1,1)"><path fill="none" stroke="#000000" d="M 348.48400263094146 387.77295811400694 L 359 391 L 353.8459301501575 381.2822037486401" stroke-miterlimit="10"/></g><g transform="translate(-54,-22) scale(1,1)"><path fill="#C0C0C0" stroke="none" d="M 362 599 L 425 599 Q 428 599 428 602 L 428 601 Q 428 604 425 604 L 362 604 Q 359 604 359 601 L 359 602 Q 359 599 362 599 Z" opacity="0.2"/></g><g transform="translate(-54,-22) scale(1,1)"><path fill="#000000" stroke="none" d="M 355 592 L 418 592 Q 421 592 421 595 L 421 595 Q 421 598 418 598 L 355 598 Q 352 598 352 595 L 352 595 Q 352 592 355 592 Z"/></g><g transform="translate(-54,-22) scale(1,1)"><path fill="none" stroke="#000000" d="M 387 526 L 386 591" stroke-miterlimit="10"/></g><g transform="translate(-54,-22) scale(1,1)"><path fill="none" stroke="#000000" d="M 381.9473106677766 580.7737734634675 L 386 591 L 390.3653500210745 580.9032817612105" stroke-miterlimit="10"/></g><g transform="translate(-54,-22) scale(1,1)"><path fill="none" stroke="#000000" d="M 446 353 L 415 391" stroke-miterlimit="10"/></g><g transform="translate(-54,-22) scale(1,1)"><path fill="none" stroke="#000000" d="M 418.1622903366549 380.4643500520044 L 415 391 L 424.6859064635647 385.786247418694" stroke-miterlimit="10"/></g><g transform="translate(-54,-22) scale(1,1)"><path fill="#C0C0C0" stroke="none" d="M 354 711 L 417 711 Q 420 711 420 714 L 420 713 Q 420 716 417 716 L 354 716 Q 351 716 351 713 L 351 714 Q 351 711 354 711 Z" opacity="0.2"/></g><g transform="translate(-54,-22) scale(1,1)"><path fill="#000000" stroke="none" d="M 347 704 L 410 704 Q 413 704 413 707 L 413 707 Q 413 710 410 710 L 347 710 Q 344 710 344 707 L 344 707 Q 344 704 347 704 Z"/></g><g transform="translate(-54,-22) scale(1,1)"><path fill="none" stroke="#000000" d="M 378 710 L 379 727" stroke-miterlimit="10"/></g><g transform="translate(-54,-22) scale(1,1)"><path fill="none" stroke="#000000" d="M 374.2009734846691 717.1020535207979 L 379 727 L 382.6054808831808 716.60767073265" stroke-miterlimit="10"/></g><g transform="translate(-54,-22) scale(1,1)"><path fill="#ffffff" stroke="none" d="M 466 624 L 582 624 Q 592 624 592 634 L 592 680 Q 592 690 582 690 L 466 690 Q 456 690 456 680 L 456 634 Q 456 624 466 624 Z"/></g><g transform="translate(-54,-22) scale(1,1)"><path fill="none" stroke="#000000" d="M 466 624 L 582 624 Q 592 624 592 634 L 592 680 Q 592 690 582 690 L 466 690 Q 456 690 456 680 L 456 634 Q 456 624 466 624 Z" stroke-miterlimit="10"/></g><g transform="translate(-54,-22) scale(1,1)"><g><path fill="none" stroke="none"/><text fill="#000000" stroke="none" font-family="Arial" font-size="13px" font-style="normal" font-weight="bold" text-decoration="none" x="467.5" y="643.5">get SNMP value by</text><text fill="#000000" stroke="none" font-family="Arial" font-size="13px" font-style="normal" font-weight="bold" text-decoration="none" x="483.5" y="656.5">OID and MAC</text><text fill="#000000" stroke="none" font-family="Arial" font-size="13px" font-style="normal" font-weight="bold" text-decoration="none" x="501" y="669.5">address</text></g></g><g transform="translate(-54,-22) scale(1,1)"><path fill="none" stroke="#000000" d="M 329 678 L 373 703" stroke-miterlimit="10"/></g><g transform="translate(-54,-22) scale(1,1)"><path fill="none" stroke="#000000" d="M 362.0844543314168 701.6395358302863 L 373 703 L 366.2435370773593 694.3195501974275" stroke-miterlimit="10"/></g><g transform="translate(-54,-22) scale(1,1)"><path fill="none" stroke="#000000" d="M 455 680 L 387 703" stroke-miterlimit="10"/></g><g transform="translate(-54,-22) scale(1,1)"><path fill="none" stroke="#000000" d="M 395.2781633159378 695.7562432319505 L 387 703 L 397.975654948423 703.7314358845156" stroke-miterlimit="10"/></g><g transform="translate(-54,-22) scale(1,1)"><path fill="none" stroke="#000000" d="M 395 598 L 455 626" stroke-miterlimit="10"/></g><g transform="translate(-54,-22) scale(1,1)"><path fill="none" stroke="#000000" d="M 444.0106115116948 625.5169465318371 L 455 626 L 447.57089926183966 617.8877584958122" stroke-miterlimit="10"/></g><g transform="translate(-54,-22) scale(1,1)"><g><path fill="none" stroke="none"/><text fill="#000000" stroke="none" font-family="Arial" font-size="13px" font-style="normal" font-weight="normal" text-decoration="none" x="431.5" y="612.5">get_snmp_value_with_mac</text></g></g><g transform="translate(-54,-22) scale(1,1)"><path fill="none" stroke="#000000" d="M 378 598 L 329 624" stroke-miterlimit="10"/></g><g transform="translate(-54,-22) scale(1,1)"><path fill="none" stroke="#000000" d="M 336.0041213714551 615.5181202664783 L 329 624 L 339.95025639479144 622.9550670412276" stroke-miterlimit="10"/></g><g transform="translate(-54,-22) scale(1,1)"><g><path fill="none" stroke="none"/><text fill="#000000" stroke="none" font-family="Arial" font-size="13px" font-style="normal" font-weight="normal" text-decoration="none" x="239.5" y="611.5">get_snmp_value</text></g></g><g transform="translate(-54,-22) scale(1,1)"><rect fill="#ffffff" stroke="none" x="240" y="408" width="103" height="22"/></g><g transform="translate(-54,-22) scale(1,1)"><path fill="none" stroke="#000000" d="M 240 408 L 343 408 L 343 430 L 240 430 L 240 408 Z Z" stroke-miterlimit="10"/></g><g transform="translate(-54,-22) scale(1,1)"><path fill="none" stroke="#000000" d="M 273 408 L 273 430" stroke-miterlimit="10"/></g><g transform="translate(-54,-22) scale(1,1)"><g><path fill="none" stroke="none"/><text fill="#000000" stroke="none" font-family="Arial" font-size="13px" font-style="normal" font-weight="normal" text-decoration="none" x="277.5" y="425.5">SNMP Init</text></g></g><g transform="translate(-54,-22) scale(1,1)"><g><path fill="none" stroke="none"/><text fill="#000000" stroke="none" font-family="Arial" font-size="13px" font-style="normal" font-weight="bold" text-decoration="none" x="246.5" y="425.5">link</text></g></g><g transform="translate(-54,-22) scale(1,1)"><path fill="none" stroke="#000000" d="M 351 418 L 344 418" stroke-miterlimit="10" stroke-dasharray="3"/></g><g transform="translate(-54,-22) scale(1,1)"><path fill="#C0C0C0" stroke="none" d="M 127 515.5 C 127 508.59644 132.59644 503 139.5 503 C 146.40356 503 152 508.59644 152 515.5 C 152 522.40356 146.40356 528 139.5 528 C 132.59644 528 127 522.40356 127 515.5 Z" opacity="0.2"/></g><g transform="translate(-54,-22) scale(1,1)"><path fill="none" stroke="#000000" d="M 120 508.5 C 120 501.59644 125.59644 496 132.5 496 C 139.40356 496 145 501.59644 145 508.5 C 145 515.40356 139.40356 521 132.5 521 C 125.59644 521 120 515.40356 120 508.5 Z" stroke-miterlimit="10"/></g><g transform="translate(-54,-22) scale(1,1)"><path fill="#000000" stroke="none" d="M 125 508.5 C 125 504.357864 128.357864 501 132.5 501 C 136.642136 501 140 504.357864 140 508.5 C 140 512.642136 136.642136 516 132.5 516 C 128.357864 516 125 512.642136 125 508.5 Z"/></g><g transform="translate(-54,-22) scale(1,1)"><path fill="none" stroke="#000000" d="M 131 441 L 132 495" stroke-miterlimit="10"/></g><g transform="translate(-54,-22) scale(1,1)"><path fill="none" stroke="#000000" d="M 127.60303843397692 484.9170079347985 L 132 495 L 136.0206307240026 484.76112659609436" stroke-miterlimit="10"/></g><g transform="translate(-54,-22) scale(1,1)"><g><path fill="none" stroke="none"/><text fill="#000000" stroke="none" font-family="Arial" font-size="13px" font-style="normal" font-weight="normal" text-decoration="none" x="155.5" y="464.5">next</text><text fill="#000000" stroke="none" font-family="Arial" font-size="13px" font-style="normal" font-weight="normal" text-decoration="none" x="139" y="477.5">parameter</text></g></g><g transform="translate(-54,-22) scale(1,1)"><path fill="#C0C0C0" stroke="none" d="M 81 407 L 195 407 Q 205 407 205 417 L 205 437 Q 205 447 195 447 L 81 447 Q 71 447 71 437 L 71 417 Q 71 407 81 407 Z" opacity="0.2"/></g><g transform="translate(-54,-22) scale(1,1)"><path fill="#ffffff" stroke="none" d="M 74 400 L 188 400 Q 198 400 198 410 L 198 430 Q 198 440 188 440 L 74 440 Q 64 440 64 430 L 64 410 Q 64 400 74 400 Z"/></g><g transform="translate(-54,-22) scale(1,1)"><path fill="none" stroke="#000000" d="M 74 400 L 188 400 Q 198 400 198 410 L 198 430 Q 198 440 188 440 L 74 440 Q 64 440 64 430 L 64 410 Q 64 400 74 400 Z" stroke-miterlimit="10"/></g><g transform="translate(-54,-22) scale(1,1)"><g><path fill="none" stroke="none"/><text fill="#000000" stroke="none" font-family="Arial" font-size="13px" font-style="normal" font-weight="bold" text-decoration="none" x="72" y="419.5">add value to context</text></g></g><g transform="translate(-54,-22) scale(1,1)"><path fill="none" stroke="#000000" d="M 134 353 L 132 399" stroke-miterlimit="10"/></g><g transform="translate(-54,-22) scale(1,1)"><path fill="none" stroke="#000000" d="M 128.23589374918507 388.6640673312673 L 132 399 L 136.64698302489055 389.02976686499363" stroke-miterlimit="10"/></g><g transform="translate(-54,-22) scale(1,1)"><path fill="#C0C0C0" stroke="none" d="M 375 883.5 C 375 876.59644 380.59644 871 387.5 871 C 394.40356 871 400 876.59644 400 883.5 C 400 890.40356 394.40356 896 387.5 896 C 380.59644 896 375 890.40356 375 883.5 Z" opacity="0.2"/></g><g transform="translate(-54,-22) scale(1,1)"><path fill="none" stroke="#000000" d="M 368 876.5 C 368 869.59644 373.59644 864 380.5 864 C 387.40356 864 393 869.59644 393 876.5 C 393 883.40356 387.40356 889 380.5 889 C 373.59644 889 368 883.40356 368 876.5 Z" stroke-miterlimit="10"/></g><g transform="translate(-54,-22) scale(1,1)"><path fill="#000000" stroke="none" d="M 373 876.5 C 373 872.357864 376.357864 869 380.5 869 C 384.642136 869 388 872.357864 388 876.5 C 388 880.642136 384.642136 884 380.5 884 C 376.357864 884 373 880.642136 373 876.5 Z"/></g><g transform="translate(-54,-22) scale(1,1)"><path fill="#C0C0C0" stroke="none" d="M 593 399 L 701 399 Q 711 399 711 409 L 711 455 Q 711 465 701 465 L 593 465 Q 583 465 583 455 L 583 409 Q 583 399 593 399 Z" opacity="0.2"/></g><g transform="translate(-54,-22) scale(1,1)"><path fill="#ffffff" stroke="none" d="M 586 392 L 694 392 Q 704 392 704 402 L 704 448 Q 704 458 694 458 L 586 458 Q 576 458 576 448 L 576 402 Q 576 392 586 392 Z"/></g><g transform="translate(-54,-22) scale(1,1)"><path fill="none" stroke="#000000" d="M 586 392 L 694 392 Q 704 392 704 402 L 704 448 Q 704 458 694 458 L 586 458 Q 576 458 576 448 L 576 402 Q 576 392 586 392 Z" stroke-miterlimit="10"/></g><g transform="translate(-54,-22) scale(1,1)"><g><path fill="none" stroke="none"/><text fill="#000000" stroke="none" font-family="Arial" font-size="13px" font-style="normal" font-weight="bold" text-decoration="none" x="585" y="411.5">test if IP is valid or</text><text fill="#000000" stroke="none" font-family="Arial" font-size="13px" font-style="normal" font-weight="bold" text-decoration="none" x="611.5" y="424.5">hostname</text><text fill="#000000" stroke="none" font-family="Arial" font-size="13px" font-style="normal" font-weight="bold" text-decoration="none" x="610.5" y="437.5">resolvable</text></g></g><g transform="translate(-54,-22) scale(1,1)"><path fill="#C0C0C0" stroke="none" d="M 703 651.5 C 703 644.59644 708.59644 639 715.5 639 C 722.40356 639 728 644.59644 728 651.5 C 728 658.40356 722.40356 664 715.5 664 C 708.59644 664 703 658.40356 703 651.5 Z" opacity="0.2"/></g><g transform="translate(-54,-22) scale(1,1)"><path fill="none" stroke="#000000" d="M 696 644.5 C 696 637.59644 701.59644 632 708.5 632 C 715.40356 632 721 637.59644 721 644.5 C 721 651.40356 715.40356 657 708.5 657 C 701.59644 657 696 651.40356 696 644.5 Z" stroke-miterlimit="10"/></g><g transform="translate(-54,-22) scale(1,1)"><path fill="#000000" stroke="none" d="M 701 644.5 C 701 640.357864 704.357864 637 708.5 637 C 712.642136 637 716 640.357864 716 644.5 C 716 648.642136 712.642136 652 708.5 652 C 704.357864 652 701 648.642136 701 644.5 Z"/></g><g transform="translate(-54,-22) scale(1,1)"><path fill="#C0C0C0" stroke="none" d="M 769 391 L 837 391 Q 847 391 847 401 L 847 460 Q 847 470 837 470 L 769 470 Q 759 470 759 460 L 759 401 Q 759 391 769 391 Z" opacity="0.2"/></g><g transform="translate(-54,-22) scale(1,1)"><path fill="#ffffff" stroke="none" d="M 762 384 L 830 384 Q 840 384 840 394 L 840 453 Q 840 463 830 463 L 762 463 Q 752 463 752 453 L 752 394 Q 752 384 762 384 Z"/></g><g transform="translate(-54,-22) scale(1,1)"><path fill="none" stroke="#000000" d="M 762 384 L 830 384 Q 840 384 840 394 L 840 453 Q 840 463 830 463 L 762 463 Q 752 463 752 453 L 752 394 Q 752 384 762 384 Z" stroke-miterlimit="10"/></g><g transform="translate(-54,-22) scale(1,1)"><g><path fill="none" stroke="none"/><text fill="#000000" stroke="none" font-family="Arial" font-size="13px" font-style="normal" font-weight="bold" text-decoration="none" x="763.5" y="403.5">test if IP or</text><text fill="#000000" stroke="none" font-family="Arial" font-size="13px" font-style="normal" font-weight="bold" text-decoration="none" x="781.5" y="416.5">MAC</text><text fill="#000000" stroke="none" font-family="Arial" font-size="13px" font-style="normal" font-weight="bold" text-decoration="none" x="766" y="429.5">address is</text><text fill="#000000" stroke="none" font-family="Arial" font-size="13px" font-style="normal" font-weight="bold" text-decoration="none" x="782.5" y="442.5">valid</text></g></g><g transform="translate(-54,-22) scale(1,1)"><path fill="#C0C0C0" stroke="none" d="M 682 511 L 745 511 Q 748 511 748 514 L 748 513 Q 748 516 745 516 L 682 516 Q 679 516 679 513 L 679 514 Q 679 511 682 511 Z" opacity="0.2"/></g><g transform="translate(-54,-22) scale(1,1)"><path fill="#000000" stroke="none" d="M 675 504 L 738 504 Q 741 504 741 507 L 741 507 Q 741 510 738 510 L 675 510 Q 672 510 672 507 L 672 507 Q 672 504 675 504 Z"/></g><g transform="translate(-54,-22) scale(1,1)"><path fill="#C0C0C0" stroke="none" d="M 649 543 L 779 543 Q 789 543 789 553 L 789 573 Q 789 583 779 583 L 649 583 Q 639 583 639 573 L 639 553 Q 639 543 649 543 Z" opacity="0.2"/></g><g transform="translate(-54,-22) scale(1,1)"><path fill="#ffffff" stroke="none" d="M 642 536 L 772 536 Q 782 536 782 546 L 782 566 Q 782 576 772 576 L 642 576 Q 632 576 632 566 L 632 546 Q 632 536 642 536 Z"/></g><g transform="translate(-54,-22) scale(1,1)"><path fill="none" stroke="#000000" d="M 642 536 L 772 536 Q 782 536 782 546 L 782 566 Q 782 576 772 576 L 642 576 Q 632 576 632 566 L 632 546 Q 632 536 642 536 Z" stroke-miterlimit="10"/></g><g transform="translate(-54,-22) scale(1,1)"><g><path fill="none" stroke="none"/><text fill="#000000" stroke="none" font-family="Arial" font-size="13px" font-style="normal" font-weight="bold" text-decoration="none" x="640.5" y="555.5">add address to context</text></g></g><g transform="translate(-54,-22) scale(1,1)"><path fill="none" stroke="#000000" d="M 668 459 L 704 503" stroke-miterlimit="10"/></g><g transform="translate(-54,-22) scale(1,1)"><path fill="none" stroke="#000000" d="M 694.3066232366605 497.80014933638 L 704 503 L 700.8225972234496 492.46889789264344" stroke-miterlimit="10"/></g><g transform="translate(-54,-22) scale(1,1)"><path fill="none" stroke="#000000" d="M 752 464 L 709 503" stroke-miterlimit="10"/></g><g transform="translate(-54,-22) scale(1,1)"><path fill="none" stroke="#000000" d="M 713.6996697986108 493.0544932867136 L 709 503 L 719.3557036232365 499.29063314463417" stroke-miterlimit="10"/></g><g transform="translate(-54,-22) scale(1,1)"><path fill="none" stroke="#000000" d="M 640 353 L 640 391" stroke-miterlimit="10"/></g><g transform="translate(-54,-22) scale(1,1)"><path fill="none" stroke="#000000" d="M 635.790482243984 380.83732514237585 L 640 391 L 644.209517756016 380.83732514237585" stroke-miterlimit="10"/></g><g transform="translate(-54,-22) scale(1,1)"><path fill="none" stroke="#000000" d="M 798 353 L 797 383" stroke-miterlimit="10"/></g><g transform="translate(-54,-22) scale(1,1)"><path fill="none" stroke="#000000" d="M 793.1313867055028 372.7027270028595 L 797 383 L 801.5457488696798 372.9832057416654" stroke-miterlimit="10"/></g><g transform="translate(-54,-22) scale(1,1)"><path fill="none" stroke="#000000" d="M 706 510 L 707 535" stroke-miterlimit="10"/></g><g transform="translate(-54,-22) scale(1,1)"><path fill="none" stroke="#000000" d="M 702.3876636439958 525.0136917061868 L 707 535 L 710.7999719991309 524.6771993719814" stroke-miterlimit="10"/></g><g transform="translate(-54,-22) scale(1,1)"><path fill="#C0C0C0" stroke="none" d="M 977 391 L 1102 391 Q 1112 391 1112 401 L 1112 421 Q 1112 431 1102 431 L 977 431 Q 967 431 967 421 L 967 401 Q 967 391 977 391 Z" opacity="0.2"/></g><g transform="translate(-54,-22) scale(1,1)"><path fill="#ffffff" stroke="none" d="M 970 384 L 1095 384 Q 1105 384 1105 394 L 1105 414 Q 1105 424 1095 424 L 970 424 Q 960 424 960 414 L 960 394 Q 960 384 970 384 Z"/></g><g transform="translate(-54,-22) scale(1,1)"><path fill="none" stroke="#000000" d="M 970 384 L 1095 384 Q 1105 384 1105 394 L 1105 414 Q 1105 424 1095 424 L 970 424 Q 960 424 960 414 L 960 394 Q 960 384 970 384 Z" stroke-miterlimit="10"/></g><g transform="translate(-54,-22) scale(1,1)"><g><path fill="none" stroke="none"/><text fill="#000000" stroke="none" font-family="Arial" font-size="13px" font-style="normal" font-weight="bold" text-decoration="none" x="968.5" y="403.5">init SNMP if not ready</text></g></g><g transform="translate(-54,-22) scale(1,1)"><rect fill="#ffffff" stroke="none" x="856" y="392" width="103" height="22"/></g><g transform="translate(-54,-22) scale(1,1)"><path fill="none" stroke="#000000" d="M 856 392 L 959 392 L 959 414 L 856 414 L 856 392 Z Z" stroke-miterlimit="10"/></g><g transform="translate(-54,-22) scale(1,1)"><path fill="none" stroke="#000000" d="M 889 392 L 889 414" stroke-miterlimit="10"/></g><g transform="translate(-54,-22) scale(1,1)"><g><path fill="none" stroke="none"/><text fill="#000000" stroke="none" font-family="Arial" font-size="13px" font-style="normal" font-weight="normal" text-decoration="none" x="893.5" y="409.5">SNMP Init</text></g></g><g transform="translate(-54,-22) scale(1,1)"><g><path fill="none" stroke="none"/><text fill="#000000" stroke="none" font-family="Arial" font-size="13px" font-style="normal" font-weight="bold" text-decoration="none" x="862.5" y="409.5">link</text></g></g><g transform="translate(-54,-22) scale(1,1)"><path fill="none" stroke="#000000" d="M 959 403 L 907 403" stroke-miterlimit="10" stroke-dasharray="3"/></g><g transform="translate(-54,-22) scale(1,1)"><path fill="none" stroke="#000000" d="M 985 353 L 1012 383" stroke-miterlimit="10"/></g><g transform="translate(-54,-22) scale(1,1)"><path fill="none" stroke="#000000" d="M 1002.0726190347331 378.2621621840279 L 1012 383 L 1008.3304388478734 372.63012435220156" stroke-miterlimit="10"/></g><g transform="translate(-54,-22) scale(1,1)"><path fill="#C0C0C0" stroke="none" d="M 921 503 L 1021 503 Q 1031 503 1031 513 L 1031 559 Q 1031 569 1021 569 L 921 569 Q 911 569 911 559 L 911 513 Q 911 503 921 503 Z" opacity="0.2"/></g><g transform="translate(-54,-22) scale(1,1)"><path fill="#ffffff" stroke="none" d="M 914 496 L 1014 496 Q 1024 496 1024 506 L 1024 552 Q 1024 562 1014 562 L 914 562 Q 904 562 904 552 L 904 506 Q 904 496 914 496 Z"/></g><g transform="translate(-54,-22) scale(1,1)"><path fill="none" stroke="#000000" d="M 914 496 L 1014 496 Q 1024 496 1024 506 L 1024 552 Q 1024 562 1014 562 L 914 562 Q 904 562 904 552 L 904 506 Q 904 496 914 496 Z" stroke-miterlimit="10"/></g><g transform="translate(-54,-22) scale(1,1)"><g><path fill="none" stroke="none"/><text fill="#000000" stroke="none" font-family="Arial" font-size="13px" font-style="normal" font-weight="bold" text-decoration="none" x="921" y="515.5">get OID for AP</text><text fill="#000000" stroke="none" font-family="Arial" font-size="13px" font-style="normal" font-weight="bold" text-decoration="none" x="924.5" y="528.5">MAC address</text><text fill="#000000" stroke="none" font-family="Arial" font-size="13px" font-style="normal" font-weight="bold" text-decoration="none" x="950" y="541.5">table</text></g></g><g transform="translate(-54,-22) scale(1,1)"><path fill="#C0C0C0" stroke="none" d="M 905 599 L 1037 599 Q 1047 599 1047 609 L 1047 642 Q 1047 652 1037 652 L 905 652 Q 895 652 895 642 L 895 609 Q 895 599 905 599 Z" opacity="0.2"/></g><g transform="translate(-54,-22) scale(1,1)"><path fill="#ffffff" stroke="none" d="M 898 592 L 1030 592 Q 1040 592 1040 602 L 1040 635 Q 1040 645 1030 645 L 898 645 Q 888 645 888 635 L 888 602 Q 888 592 898 592 Z"/></g><g transform="translate(-54,-22) scale(1,1)"><path fill="none" stroke="#000000" d="M 898 592 L 1030 592 Q 1040 592 1040 602 L 1040 635 Q 1040 645 1030 645 L 898 645 Q 888 645 888 635 L 888 602 Q 888 592 898 592 Z" stroke-miterlimit="10"/></g><g transform="translate(-54,-22) scale(1,1)"><g><path fill="none" stroke="none"/><text fill="#000000" stroke="none" font-family="Arial" font-size="13px" font-style="normal" font-weight="bold" text-decoration="none" x="907.5" y="611.5">get SNMP value by</text><text fill="#000000" stroke="none" font-family="Arial" font-size="13px" font-style="normal" font-weight="bold" text-decoration="none" x="898.5" y="624.5">OID and MAC address</text></g></g><g transform="translate(-54,-22) scale(1,1)"><path fill="#C0C0C0" stroke="none" d="M 913 687 L 1029 687 Q 1039 687 1039 697 L 1039 717 Q 1039 727 1029 727 L 913 727 Q 903 727 903 717 L 903 697 Q 903 687 913 687 Z" opacity="0.2"/></g><g transform="translate(-54,-22) scale(1,1)"><path fill="#ffffff" stroke="none" d="M 906 680 L 1022 680 Q 1032 680 1032 690 L 1032 710 Q 1032 720 1022 720 L 906 720 Q 896 720 896 710 L 896 690 Q 896 680 906 680 Z"/></g><g transform="translate(-54,-22) scale(1,1)"><path fill="none" stroke="#000000" d="M 906 680 L 1022 680 Q 1032 680 1032 690 L 1032 710 Q 1032 720 1022 720 L 906 720 Q 896 720 896 710 L 896 690 Q 896 680 906 680 Z" stroke-miterlimit="10"/></g><g transform="translate(-54,-22) scale(1,1)"><g><path fill="none" stroke="none"/><text fill="#000000" stroke="none" font-family="Arial" font-size="13px" font-style="normal" font-weight="bold" text-decoration="none" x="903" y="699.5">get OID for AP name</text></g></g><g transform="translate(-54,-22) scale(1,1)"><path fill="#C0C0C0" stroke="none" d="M 889 759 L 1045 759 Q 1055 759 1055 769 L 1055 802 Q 1055 812 1045 812 L 889 812 Q 879 812 879 802 L 879 769 Q 879 759 889 759 Z" opacity="0.2"/></g><g transform="translate(-54,-22) scale(1,1)"><path fill="#ffffff" stroke="none" d="M 882 752 L 1038 752 Q 1048 752 1048 762 L 1048 795 Q 1048 805 1038 805 L 882 805 Q 872 805 872 795 L 872 762 Q 872 752 882 752 Z"/></g><g transform="translate(-54,-22) scale(1,1)"><path fill="none" stroke="#000000" d="M 882 752 L 1038 752 Q 1048 752 1048 762 L 1048 795 Q 1048 805 1038 805 L 882 805 Q 872 805 872 795 L 872 762 Q 872 752 882 752 Z" stroke-miterlimit="10"/></g><g transform="translate(-54,-22) scale(1,1)"><g><path fill="none" stroke="none"/><text fill="#000000" stroke="none" font-family="Arial" font-size="13px" font-style="normal" font-weight="bold" text-decoration="none" x="890" y="771.5">get SNMP value by OID</text><text fill="#000000" stroke="none" font-family="Arial" font-size="13px" font-style="normal" font-weight="bold" text-decoration="none" x="908" y="784.5">and MAC address</text></g></g><g transform="translate(-54,-22) scale(1,1)"><path fill="#ffffff" stroke="none" d="M 800 512 L 877 512 L 887 522 L 887 587 L 800 587 L 800 512"/></g><g transform="translate(-54,-22) scale(1,1)"><path fill="none" stroke="#000000" d="M 800 512 L 877 512 L 887 522 L 887 587 L 800 587 L 800 512 L 800 512" stroke-miterlimit="10"/></g><g transform="translate(-54,-22) scale(1,1)"><path fill="none" stroke="#000000" d="M 877 512 L 877 522 L 887 522 L 877 512" stroke-miterlimit="10"/></g><g transform="translate(-54,-22) scale(1,1)"><g><path fill="none" stroke="none"/><text fill="#000000" stroke="none" font-family="Arial" font-size="13px" font-style="normal" font-weight="normal" text-decoration="none" x="805" y="530">identify mac</text><text fill="#000000" stroke="none" font-family="Arial" font-size="13px" font-style="normal" font-weight="normal" text-decoration="none" x="805" y="543">address of</text><text fill="#000000" stroke="none" font-family="Arial" font-size="13px" font-style="normal" font-weight="normal" text-decoration="none" x="805" y="556">associated</text><text fill="#000000" stroke="none" font-family="Arial" font-size="13px" font-style="normal" font-weight="normal" text-decoration="none" x="805" y="569">AP </text></g></g><g transform="translate(-54,-22) scale(1,1)"><path fill="#ffffff" stroke="none" d="M 816 696 L 874 696 L 884 706 L 884 745 L 816 745 L 816 696"/></g><g transform="translate(-54,-22) scale(1,1)"><path fill="none" stroke="#000000" d="M 816 696 L 874 696 L 884 706 L 884 745 L 816 745 L 816 696 L 816 696" stroke-miterlimit="10"/></g><g transform="translate(-54,-22) scale(1,1)"><path fill="none" stroke="#000000" d="M 874 696 L 874 706 L 884 706 L 874 696" stroke-miterlimit="10"/></g><g transform="translate(-54,-22) scale(1,1)"><g><path fill="none" stroke="none"/><text fill="#000000" stroke="none" font-family="Arial" font-size="13px" font-style="normal" font-weight="normal" text-decoration="none" x="821" y="714">get name</text><text fill="#000000" stroke="none" font-family="Arial" font-size="13px" font-style="normal" font-weight="normal" text-decoration="none" x="821" y="727">of that AP</text></g></g><g transform="translate(-54,-22) scale(1,1)"><path fill="none" stroke="#000000" d="M 964 563 L 964 591" stroke-miterlimit="10"/></g><g transform="translate(-54,-22) scale(1,1)"><path fill="none" stroke="#000000" d="M 959.790482243984 580.8373251423759 L 964 591 L 968.209517756016 580.8373251423759" stroke-miterlimit="10"/></g><g transform="translate(-54,-22) scale(1,1)"><path fill="none" stroke="#000000" d="M 964 646 L 964 679" stroke-miterlimit="10"/></g><g transform="translate(-54,-22) scale(1,1)"><path fill="none" stroke="#000000" d="M 959.790482243984 668.8373251423759 L 964 679 L 968.209517756016 668.8373251423759" stroke-miterlimit="10"/></g><g transform="translate(-54,-22) scale(1,1)"><path fill="none" stroke="#000000" d="M 963 721 L 961 751" stroke-miterlimit="10"/></g><g transform="translate(-54,-22) scale(1,1)"><path fill="none" stroke="#000000" d="M 957.4758167371174 740.5798209070276 L 961 751 L 965.8762054144906 741.1398468188526" stroke-miterlimit="10"/></g><g transform="translate(-54,-22) scale(1,1)"><path fill="none" stroke="#000000" d="M 889 542 L 903 540" stroke-miterlimit="10" stroke-dasharray="3"/></g><g transform="translate(-54,-22) scale(1,1)"><path fill="none" stroke="#000000" d="M 889 576 L 916 591" stroke-miterlimit="10" stroke-dasharray="3"/></g><g transform="translate(-54,-22) scale(1,1)"><path fill="none" stroke="#000000" d="M 886 714 L 895 713" stroke-miterlimit="10" stroke-dasharray="3"/></g><g transform="translate(-54,-22) scale(1,1)"><path fill="none" stroke="#000000" d="M 886 740 L 908 751" stroke-miterlimit="10" stroke-dasharray="3"/></g><g transform="translate(-54,-22) scale(1,1)"><path fill="#C0C0C0" stroke="none" d="M 913 839 L 1032 839 Q 1042 839 1042 849 L 1042 869 Q 1042 879 1032 879 L 913 879 Q 903 879 903 869 L 903 849 Q 903 839 913 839 Z" opacity="0.2"/></g><g transform="translate(-54,-22) scale(1,1)"><path fill="#ffffff" stroke="none" d="M 906 832 L 1025 832 Q 1035 832 1035 842 L 1035 862 Q 1035 872 1025 872 L 906 872 Q 896 872 896 862 L 896 842 Q 896 832 906 832 Z"/></g><g transform="translate(-54,-22) scale(1,1)"><path fill="none" stroke="#000000" d="M 906 832 L 1025 832 Q 1035 832 1035 842 L 1035 862 Q 1035 872 1025 872 L 906 872 Q 896 872 896 862 L 896 842 Q 896 832 906 832 Z" stroke-miterlimit="10"/></g><g transform="translate(-54,-22) scale(1,1)"><g><path fill="none" stroke="none"/><text fill="#000000" stroke="none" font-family="Arial" font-size="13px" font-style="normal" font-weight="bold" text-decoration="none" x="903.5" y="851.5">save value in context</text></g></g><g transform="translate(-54,-22) scale(1,1)"><path fill="#C0C0C0" stroke="none" d="M 959 939.5 C 959 932.59644 964.59644 927 971.5 927 C 978.40356 927 984 932.59644 984 939.5 C 984 946.40356 978.40356 952 971.5 952 C 964.59644 952 959 946.40356 959 939.5 Z" opacity="0.2"/></g><g transform="translate(-54,-22) scale(1,1)"><path fill="none" stroke="#000000" d="M 952 932.5 C 952 925.59644 957.59644 920 964.5 920 C 971.40356 920 977 925.59644 977 932.5 C 977 939.40356 971.40356 945 964.5 945 C 957.59644 945 952 939.40356 952 932.5 Z" stroke-miterlimit="10"/></g><g transform="translate(-54,-22) scale(1,1)"><path fill="#000000" stroke="none" d="M 957 932.5 C 957 928.357864 960.357864 925 964.5 925 C 968.642136 925 972 928.357864 972 932.5 C 972 936.642136 968.642136 940 964.5 940 C 960.357864 940 957 936.642136 957 932.5 Z"/></g><g transform="translate(-54,-22) scale(1,1)"><path fill="none" stroke="#000000" d="M 380 795 L 380 863" stroke-miterlimit="10"/></g><g transform="translate(-54,-22) scale(1,1)"><path fill="none" stroke="#000000" d="M 375.790482243984 852.8373251423759 L 380 863 L 384.209517756016 852.8373251423759" stroke-miterlimit="10"/></g><g transform="translate(-54,-22) scale(1,1)"><g><path fill="none" stroke="none"/><text fill="#000000" stroke="none" font-family="Arial" font-size="13px" font-style="normal" font-weight="normal" text-decoration="none" x="398.5" y="826.5">next</text><text fill="#000000" stroke="none" font-family="Arial" font-size="13px" font-style="normal" font-weight="normal" text-decoration="none" x="382" y="839.5">parameter</text></g></g><g transform="translate(-54,-22) scale(1,1)"><path fill="none" stroke="#000000" d="M 965 873 L 964 919" stroke-miterlimit="10"/></g><g transform="translate(-54,-22) scale(1,1)"><path fill="none" stroke="#000000" d="M 960.0123521078249 908.7482360401718 L 964 919 L 968.429398949577 908.9312153193404" stroke-miterlimit="10"/></g><g transform="translate(-54,-22) scale(1,1)"><g><path fill="none" stroke="none"/><text fill="#000000" stroke="none" font-family="Arial" font-size="13px" font-style="normal" font-weight="normal" text-decoration="none" x="990.5" y="892.5">next</text><text fill="#000000" stroke="none" font-family="Arial" font-size="13px" font-style="normal" font-weight="normal" text-decoration="none" x="974" y="905.5">parameter</text></g></g><g transform="translate(-54,-22) scale(1,1)"><path fill="none" stroke="#000000" d="M 962 806 L 964 831" stroke-miterlimit="10"/></g><g transform="translate(-54,-22) scale(1,1)"><path fill="none" stroke="#000000" d="M 958.9934636200242 821.2053793602826 L 964 831 L 967.3856868489559 820.5340015019681" stroke-miterlimit="10"/></g><g transform="translate(-54,-22) scale(1,1)"><path fill="none" stroke="#000000" d="M 707 577 L 708 631" stroke-miterlimit="10"/></g><g transform="translate(-54,-22) scale(1,1)"><path fill="none" stroke="#000000" d="M 703.603038433977 620.9170079347986 L 708 631 L 712.0206307240026 620.7611265960943" stroke-miterlimit="10"/></g><g transform="translate(-54,-22) scale(1,1)"><g><path fill="none" stroke="none"/><text fill="#000000" stroke="none" font-family="Arial" font-size="13px" font-style="normal" font-weight="normal" text-decoration="none" x="726.5" y="595.5">next</text><text fill="#000000" stroke="none" font-family="Arial" font-size="13px" font-style="normal" font-weight="normal" text-decoration="none" x="710" y="608.5">parameter</text></g></g><g transform="translate(-54,-22) scale(1,1)"><path fill="#C0C0C0" stroke="none" d="M 1010 463 L 1073 463 Q 1076 463 1076 466 L 1076 465 Q 1076 468 1073 468 L 1010 468 Q 1007 468 1007 465 L 1007 466 Q 1007 463 1010 463 Z" opacity="0.2"/></g><g transform="translate(-54,-22) scale(1,1)"><path fill="#000000" stroke="none" d="M 1003 456 L 1066 456 Q 1069 456 1069 459 L 1069 459 Q 1069 462 1066 462 L 1003 462 Q 1000 462 1000 459 L 1000 459 Q 1000 456 1003 456 Z"/></g><g transform="translate(-54,-22) scale(1,1)"><path fill="none" stroke="#000000" d="M 1082 353 L 1053 383" stroke-miterlimit="10"/></g><g transform="translate(-54,-22) scale(1,1)"><path fill="none" stroke="#000000" d="M 1057.0366892537772 372.76744705029876 L 1053 383 L 1063.0898779244728 378.6188627653046" stroke-miterlimit="10"/></g><g transform="translate(-54,-22) scale(1,1)"><path fill="none" stroke="#000000" d="M 1033 425 L 1034 455" stroke-miterlimit="10"/></g><g transform="translate(-54,-22) scale(1,1)"><path fill="none" stroke="#000000" d="M 1029.4542511303202 444.9832057416654 L 1034 455 L 1037.8686132944972 444.7027270028595" stroke-miterlimit="10"/></g><g transform="translate(-54,-22) scale(1,1)"><path fill="none" stroke="#000000" d="M 1030 462 L 998 495" stroke-miterlimit="10"/></g><g transform="translate(-54,-22) scale(1,1)"><path fill="none" stroke="#000000" d="M 1002.0526893322234 484.7737734634674 L 998 495 L 1008.0967182387895 490.6346499789255" stroke-miterlimit="10"/></g><g transform="translate(-54,-22) scale(1,1)"><g><path fill="none" stroke="none"/><text fill="#000000" stroke="none" font-family="Arial" font-size="13px" font-style="normal" font-weight="normal" text-decoration="none" x="918.5" y="483.5">get_ap_name</text></g></g><g transform="translate(-54,-22) scale(1,1)"><path fill="#C0C0C0" stroke="none" d="M 1113 511 L 1168 511 Q 1178 511 1178 521 L 1178 541 Q 1178 551 1168 551 L 1113 551 Q 1103 551 1103 541 L 1103 521 Q 1103 511 1113 511 Z" opacity="0.2"/></g><g transform="translate(-54,-22) scale(1,1)"><path fill="#ffffff" stroke="none" d="M 1106 504 L 1161 504 Q 1171 504 1171 514 L 1171 534 Q 1171 544 1161 544 L 1106 544 Q 1096 544 1096 534 L 1096 514 Q 1096 504 1106 504 Z"/></g><g transform="translate(-54,-22) scale(1,1)"><path fill="none" stroke="#000000" d="M 1106 504 L 1161 504 Q 1171 504 1171 514 L 1171 534 Q 1171 544 1161 544 L 1106 544 Q 1096 544 1096 534 L 1096 514 Q 1096 504 1106 504 Z" stroke-miterlimit="10"/></g><g transform="translate(-54,-22) scale(1,1)"><g><path fill="none" stroke="none"/><text fill="#000000" stroke="none" font-family="Arial" font-size="13px" font-style="normal" font-weight="bold" text-decoration="none" x="1104" y="523.5">ping client</text></g></g><g transform="translate(-54,-22) scale(1,1)"><path fill="#C0C0C0" stroke="none" d="M 1097 623 L 1205 623 Q 1215 623 1215 633 L 1215 666 Q 1215 676 1205 676 L 1097 676 Q 1087 676 1087 666 L 1087 633 Q 1087 623 1097 623 Z" opacity="0.2"/></g><g transform="translate(-54,-22) scale(1,1)"><path fill="#ffffff" stroke="none" d="M 1090 616 L 1198 616 Q 1208 616 1208 626 L 1208 659 Q 1208 669 1198 669 L 1090 669 Q 1080 669 1080 659 L 1080 626 Q 1080 616 1090 616 Z"/></g><g transform="translate(-54,-22) scale(1,1)"><path fill="none" stroke="#000000" d="M 1090 616 L 1198 616 Q 1208 616 1208 626 L 1208 659 Q 1208 669 1198 669 L 1090 669 Q 1080 669 1080 659 L 1080 626 Q 1080 616 1090 616 Z" stroke-miterlimit="10"/></g><g transform="translate(-54,-22) scale(1,1)"><g><path fill="none" stroke="none"/><text fill="#000000" stroke="none" font-family="Arial" font-size="13px" font-style="normal" font-weight="bold" text-decoration="none" x="1094.5" y="635.5">save response in</text><text fill="#000000" stroke="none" font-family="Arial" font-size="13px" font-style="normal" font-weight="bold" text-decoration="none" x="1122.5" y="648.5">context</text></g></g><g transform="translate(-54,-22) scale(1,1)"><path fill="#C0C0C0" stroke="none" d="M 1135 763.5 C 1135 756.59644 1140.59644 751 1147.5 751 C 1154.40356 751 1160 756.59644 1160 763.5 C 1160 770.40356 1154.40356 776 1147.5 776 C 1140.59644 776 1135 770.40356 1135 763.5 Z" opacity="0.2"/></g><g transform="translate(-54,-22) scale(1,1)"><path fill="none" stroke="#000000" d="M 1128 756.5 C 1128 749.59644 1133.59644 744 1140.5 744 C 1147.40356 744 1153 749.59644 1153 756.5 C 1153 763.40356 1147.40356 769 1140.5 769 C 1133.59644 769 1128 763.40356 1128 756.5 Z" stroke-miterlimit="10"/></g><g transform="translate(-54,-22) scale(1,1)"><path fill="#000000" stroke="none" d="M 1133 756.5 C 1133 752.357864 1136.357864 749 1140.5 749 C 1144.642136 749 1148 752.357864 1148 756.5 C 1148 760.642136 1144.642136 764 1140.5 764 C 1136.357864 764 1133 760.642136 1133 756.5 Z"/></g><g transform="translate(-54,-22) scale(1,1)"><path fill="none" stroke="#000000" d="M 1040 462 L 1102 503" stroke-miterlimit="10"/></g><g transform="translate(-54,-22) scale(1,1)"><path fill="none" stroke="#000000" d="M 1091.2012329175575 500.90557179660993 L 1102 503 L 1095.8451029528762 493.8831341822253" stroke-miterlimit="10"/></g><g transform="translate(-54,-22) scale(1,1)"><g><path fill="none" stroke="none"/><text fill="#000000" stroke="none" font-family="Arial" font-size="13px" font-style="normal" font-weight="normal" text-decoration="none" x="1071.5" y="484.5">get_ping</text></g></g><g transform="translate(-54,-22) scale(1,1)"><path fill="none" stroke="#000000" d="M 1135 545 L 1141 615" stroke-miterlimit="10"/></g><g transform="translate(-54,-22) scale(1,1)"><path fill="none" stroke="#000000" d="M 1135.9379570577378 605.2339505811872 L 1141 615 L 1144.3262348783144 604.5149553394235" stroke-miterlimit="10"/></g><g transform="translate(-54,-22) scale(1,1)"><path fill="none" stroke="#000000" d="M 1143 670 L 1140 743" stroke-miterlimit="10"/></g><g transform="translate(-54,-22) scale(1,1)"><path fill="none" stroke="#000000" d="M 1136.2113243610518 732.6730480342533 L 1140 743 L 1144.6232595279507 733.0187440000162" stroke-miterlimit="10"/></g><g transform="translate(-54,-22) scale(1,1)"><g><path fill="none" stroke="none"/><text fill="#000000" stroke="none" font-family="Arial" font-size="13px" font-style="normal" font-weight="normal" text-decoration="none" x="1146.5" y="707.5">next parameter</text></g></g><g transform="translate(-54,-22) scale(1,1)"><path fill="none" stroke="#000000" d="M 576 52 L 572 103" stroke-miterlimit="10" stroke-dasharray="3"/></g></g></svg>