<svg version="1.1" xmlns="http://www.w3.org/2000/svg" xmlns:xlink="http://www.w3.org/1999/xlink" width="756" height="965"><defs/><g><g transform="translate(-446,-14) scale(1,1)"><path fill="#C0C0C0" stroke="none" d="M 705 143 L 822 143 Q 832 143 832 153 L 832 188 Q 832 198 822 198 L 705 198 Q 695 198 695 188 L 695 153 Q 695 143 705 143 Z" opacity="0.2"/></g><g transform="translate(-446,-14) scale(1,1)"><path fill="#ffffff" stroke="none" d="M 698 136 L 815 136 Q 825 136 825 146 L 825 181 Q 825 191 815 191 L 698 191 Q 688 191 688 181 L 688 146 Q 688 136 698 136 Z"/></g><g transform="translate(-446,-14) scale(1,1)"><path fill="none" stroke="#000000" d="M 698 136 L 815 136 Q 825 136 825 146 L 825 181 Q 825 191 815 191 L 698 191 Q 688 191 688 181 L 688 146 Q 688 136 698 136 Z" stroke-miterlimit="10"/></g><g transform="translate(-446,-14) scale(1,1)"><g><path fill="none" stroke="none"/><text fill="#000000" stroke="none" font-family="Arial" font-size="13px" font-style="normal" font-weight="bold" text-decoration="none" x="698.5" y="155.5">init Group cli_parser</text></g></g><g transform="translate(-446,-14) scale(1,1)"><g><path fill="none" stroke="none"/><text fill="#000000" stroke="none" font-family="Arial" font-size="13px" font-style="normal" font-weight="normal" text-decoration="none" x="709.5" y="170.5">(from cli_parser)</text></g></g><g transform="translate(-446,-14) scale(1,1)"><path fill="#C0C0C0" stroke="none" d="M 641 255 L 878 255 Q 888 255 888 265 L 888 300 Q 888 310 878 310 L 641 310 Q 631 310 631 300 L 631 265 Q 631 255 641 255 Z" opacity="0.2"/></g><g transform="translate(-446,-14) scale(1,1)"><path fill="#ffffff" stroke="none" d="M 634 248 L 871 248 Q 881 248 881 258 L 881 293 Q 881 303 871 303 L 634 303 Q 624 303 624 293 L 624 258 Q 624 248 634 248 Z"/></g><g transform="translate(-446,-14) scale(1,1)"><path fill="none" stroke="#000000" d="M 634 248 L 871 248 Q 881 248 881 258 L 881 293 Q 881 303 871 303 L 634 303 Q 624 303 624 293 L 624 258 Q 624 248 634 248 Z" stroke-miterlimit="10"/></g><g transform="translate(-446,-14) scale(1,1)"><g><path fill="none" stroke="none"/><text fill="#000000" stroke="none" font-family="Arial" font-size="13px" font-style="normal" font-weight="bold" text-decoration="none" x="638" y="267.5">overloaded parse_args in CustomGroup</text></g></g><g transform="translate(-446,-14) scale(1,1)"><g><path fill="none" stroke="none"/><text fill="#000000" stroke="none" font-family="Arial" font-size="13px" font-style="normal" font-weight="normal" text-decoration="none" x="705.5" y="282.5">(from cli_parser)</text></g></g><g transform="translate(-446,-14) scale(1,1)"><path fill="none" stroke="#000000" d="M 755 192 L 753 247" stroke-miterlimit="10"/></g><g transform="translate(-446,-14) scale(1,1)"><path fill="none" stroke="#000000" d="M 749.1625703623795 236.6910653423202 L 753 247 L 757.5760450841667 236.99700987765792" stroke-miterlimit="10"/></g><g transform="translate(-446,-14) scale(1,1)"><rect fill="#ffffff" stroke="none" x="456" y="256" width="107" height="22"/></g><g transform="translate(-446,-14) scale(1,1)"><path fill="none" stroke="#000000" d="M 456 256 L 563 256 L 563 278 L 456 278 L 456 256 Z Z" stroke-miterlimit="10"/></g><g transform="translate(-446,-14) scale(1,1)"><path fill="none" stroke="#000000" d="M 489 256 L 489 278" stroke-miterlimit="10"/></g><g transform="translate(-446,-14) scale(1,1)"><g><path fill="none" stroke="none"/><text fill="#000000" stroke="none" font-family="Arial" font-size="13px" font-style="normal" font-weight="normal" text-decoration="none" x="493.5" y="273.5">parse_args</text></g></g><g transform="translate(-446,-14) scale(1,1)"><g><path fill="none" stroke="none"/><text fill="#000000" stroke="none" font-family="Arial" font-size="13px" font-style="normal" font-weight="bold" text-decoration="none" x="462.5" y="273.5">link</text></g></g><g transform="translate(-446,-14) scale(1,1)"><path fill="#C0C0C0" stroke="none" d="M 743 40.5 C 743 35.2532944 747.2532944 31 752.5 31 C 757.7467056 31 762 35.2532944 762 40.5 C 762 45.7467056 757.7467056 50 752.5 50 C 747.2532944 50 743 45.7467056 743 40.5 Z" opacity="0.2"/></g><g transform="translate(-446,-14) scale(1,1)"><path fill="#000000" stroke="none" d="M 736 33.5 C 736 28.2532944 740.2532944 24 745.5 24 C 750.7467056 24 755 28.2532944 755 33.5 C 755 38.7467056 750.7467056 43 745.5 43 C 740.2532944 43 736 38.7467056 736 33.5 Z"/></g><g transform="translate(-446,-14) scale(1,1)"><path fill="none" stroke="#000000" d="M 746 44 L 754 135" stroke-miterlimit="10"/></g><g transform="translate(-446,-14) scale(1,1)"><path fill="none" stroke="#000000" d="M 748.9166658343493 125.24501595284094 L 754 135 L 757.3033553105439 124.50772457031833" stroke-miterlimit="10"/></g><g transform="translate(-446,-14) scale(1,1)"><path fill="none" stroke="#000000" d="M 564 269 L 623 271" stroke-miterlimit="10" stroke-dasharray="3"/></g><g transform="translate(-446,-14) scale(1,1)"><path fill="#C0C0C0" stroke="none" d="M 633 367 L 902 367 Q 912 367 912 377 L 912 397 Q 912 407 902 407 L 633 407 Q 623 407 623 397 L 623 377 Q 623 367 633 367 Z" opacity="0.2"/></g><g transform="translate(-446,-14) scale(1,1)"><path fill="#ffffff" stroke="none" d="M 626 360 L 895 360 Q 905 360 905 370 L 905 390 Q 905 400 895 400 L 626 400 Q 616 400 616 390 L 616 370 Q 616 360 626 360 Z"/></g><g transform="translate(-446,-14) scale(1,1)"><path fill="none" stroke="#000000" d="M 626 360 L 895 360 Q 905 360 905 370 L 905 390 Q 905 400 895 400 L 626 400 Q 616 400 616 390 L 616 370 Q 616 360 626 360 Z" stroke-miterlimit="10"/></g><g transform="translate(-446,-14) scale(1,1)"><g><path fill="none" stroke="none"/><text fill="#000000" stroke="none" font-family="Arial" font-size="13px" font-style="normal" font-weight="bold" text-decoration="none" x="629.5" y="379.5">parse cli_parser parameter and call callbacks</text></g></g><g transform="translate(-446,-14) scale(1,1)"><rect fill="#ffffff" stroke="none" x="472" y="370" width="99" height="22"/></g><g transform="translate(-446,-14) scale(1,1)"><path fill="none" stroke="#000000" d="M 472 370 L 571 370 L 571 392 L 472 392 L 472 370 Z Z" stroke-miterlimit="10"/></g><g transform="translate(-446,-14) scale(1,1)"><path fill="none" stroke="#000000" d="M 505 370 L 505 392" stroke-miterlimit="10"/></g><g transform="translate(-446,-14) scale(1,1)"><g><path fill="none" stroke="none"/><text fill="#000000" stroke="none" font-family="Arial" font-size="13px" font-style="normal" font-weight="normal" text-decoration="none" x="509.5" y="387.5">callbacks</text></g></g><g transform="translate(-446,-14) scale(1,1)"><g><path fill="none" stroke="none"/><text fill="#000000" stroke="none" font-family="Arial" font-size="13px" font-style="normal" font-weight="bold" text-decoration="none" x="478.5" y="387.5">link</text></g></g><g transform="translate(-446,-14) scale(1,1)"><path fill="none" stroke="#000000" d="M 754 304 L 758 359" stroke-miterlimit="10"/></g><g transform="translate(-446,-14) scale(1,1)"><path fill="none" stroke="#000000" d="M 753.0644141924969 349.16943578746503 L 758 359 L 761.4612724239597 348.55875518881317" stroke-miterlimit="10"/></g><g transform="translate(-446,-14) scale(1,1)"><path fill="none" stroke="#000000" d="M 572 381 L 615 381" stroke-miterlimit="10" stroke-dasharray="3"/></g><g transform="translate(-446,-14) scale(1,1)"><path fill="#C0C0C0" stroke="none" d="M 711 491.5 L 759.5 447 L 807 491.5 L 759.5 535 L 711 491.5" opacity="0.2"/></g><g transform="translate(-446,-14) scale(1,1)"><path fill="#ffffff" stroke="none" d="M 704 484 L 752 440 L 800 484 L 752 528 L 704 484"/></g><g transform="translate(-446,-14) scale(1,1)"><path fill="none" stroke="#000000" d="M 704 484 L 752 440 L 800 484 L 752 528 L 704 484 L 704 484" stroke-miterlimit="10"/></g><g transform="translate(-446,-14) scale(1,1)"><path fill="#C0C0C0" stroke="none" d="M 865 455 L 1144 455 Q 1154 455 1154 465 L 1154 485 Q 1154 495 1144 495 L 865 495 Q 855 495 855 485 L 855 465 Q 855 455 865 455 Z" opacity="0.2"/></g><g transform="translate(-446,-14) scale(1,1)"><path fill="#ffffff" stroke="none" d="M 858 448 L 1137 448 Q 1147 448 1147 458 L 1147 478 Q 1147 488 1137 488 L 858 488 Q 848 488 848 478 L 848 458 Q 848 448 858 448 Z"/></g><g transform="translate(-446,-14) scale(1,1)"><path fill="none" stroke="#000000" d="M 858 448 L 1137 448 Q 1147 448 1147 458 L 1147 478 Q 1147 488 1137 488 L 858 488 Q 848 488 848 478 L 848 458 Q 848 448 858 448 Z" stroke-miterlimit="10"/></g><g transform="translate(-446,-14) scale(1,1)"><g><path fill="none" stroke="none"/><text fill="#000000" stroke="none" font-family="Arial" font-size="13px" font-style="normal" font-weight="bold" text-decoration="none" x="862.5" y="467.5">parse print_to_db parameter and call callbacks</text></g></g><g transform="translate(-446,-14) scale(1,1)"><rect fill="#ffffff" stroke="none" x="952" y="408" width="99" height="22"/></g><g transform="translate(-446,-14) scale(1,1)"><path fill="none" stroke="#000000" d="M 952 408 L 1051 408 L 1051 430 L 952 430 L 952 408 Z Z" stroke-miterlimit="10"/></g><g transform="translate(-446,-14) scale(1,1)"><path fill="none" stroke="#000000" d="M 985 408 L 985 430" stroke-miterlimit="10"/></g><g transform="translate(-446,-14) scale(1,1)"><g><path fill="none" stroke="none"/><text fill="#000000" stroke="none" font-family="Arial" font-size="13px" font-style="normal" font-weight="normal" text-decoration="none" x="989.5" y="425.5">callbacks</text></g></g><g transform="translate(-446,-14) scale(1,1)"><g><path fill="none" stroke="none"/><text fill="#000000" stroke="none" font-family="Arial" font-size="13px" font-style="normal" font-weight="bold" text-decoration="none" x="958.5" y="425.5">link</text></g></g><g transform="translate(-446,-14) scale(1,1)"><path fill="#C0C0C0" stroke="none" d="M 703 691.5 L 755.5 647 L 807 691.5 L 755.5 735 L 703 691.5" opacity="0.2"/></g><g transform="translate(-446,-14) scale(1,1)"><path fill="#ffffff" stroke="none" d="M 696 684 L 748 640 L 800 684 L 748 728 L 696 684"/></g><g transform="translate(-446,-14) scale(1,1)"><path fill="none" stroke="#000000" d="M 696 684 L 748 640 L 800 684 L 748 728 L 696 684 L 696 684" stroke-miterlimit="10"/></g><g transform="translate(-446,-14) scale(1,1)"><path fill="#C0C0C0" stroke="none" d="M 873 671 L 1189 671 Q 1199 671 1199 681 L 1199 714 Q 1199 724 1189 724 L 873 724 Q 863 724 863 714 L 863 681 Q 863 671 873 671 Z" opacity="0.2"/></g><g transform="translate(-446,-14) scale(1,1)"><path fill="#ffffff" stroke="none" d="M 866 664 L 1182 664 Q 1192 664 1192 674 L 1192 707 Q 1192 717 1182 717 L 866 717 Q 856 717 856 707 L 856 674 Q 856 664 866 664 Z"/></g><g transform="translate(-446,-14) scale(1,1)"><path fill="none" stroke="#000000" d="M 866 664 L 1182 664 Q 1192 664 1192 674 L 1192 707 Q 1192 717 1182 717 L 866 717 Q 856 717 856 707 L 856 674 Q 856 664 866 664 Z" stroke-miterlimit="10"/></g><g transform="translate(-446,-14) scale(1,1)"><g><path fill="none" stroke="none"/><text fill="#000000" stroke="none" font-family="Arial" font-size="13px" font-style="normal" font-weight="bold" text-decoration="none" x="896.5" y="683.5">parse load_config parameter and set path of</text><text fill="#000000" stroke="none" font-family="Arial" font-size="13px" font-style="normal" font-weight="bold" text-decoration="none" x="930" y="696.5">configfile to ConfigFileProcessor</text></g></g><g transform="translate(-446,-14) scale(1,1)"><path fill="#ffffff" stroke="none" d="M 928 592 L 1117 592 L 1127 602 L 1127 641 L 928 641 L 928 592"/></g><g transform="translate(-446,-14) scale(1,1)"><path fill="none" stroke="#000000" d="M 928 592 L 1117 592 L 1127 602 L 1127 641 L 928 641 L 928 592 L 928 592" stroke-miterlimit="10"/></g><g transform="translate(-446,-14) scale(1,1)"><path fill="none" stroke="#000000" d="M 1117 592 L 1117 602 L 1127 602 L 1117 592" stroke-miterlimit="10"/></g><g transform="translate(-446,-14) scale(1,1)"><g><path fill="none" stroke="none"/><text fill="#000000" stroke="none" font-family="Arial" font-size="13px" font-style="normal" font-weight="normal" text-decoration="none" x="933" y="610">Most of the loading is triggered</text><text fill="#000000" stroke="none" font-family="Arial" font-size="13px" font-style="normal" font-weight="normal" text-decoration="none" x="933" y="623">at the init of the Custom_Group </text></g></g><g transform="translate(-446,-14) scale(1,1)"><path fill="none" stroke="#000000" d="M 1000 431 L 999 447" stroke-miterlimit="10" stroke-dasharray="3"/></g><g transform="translate(-446,-14) scale(1,1)"><path fill="none" stroke="#000000" d="M 758 401 L 755 439" stroke-miterlimit="10"/></g><g transform="translate(-446,-14) scale(1,1)"><path fill="none" stroke="#000000" d="M 751.6033673121142 428.5375487392492 L 755 439 L 759.9962882275067 429.20014775888546" stroke-miterlimit="10"/></g><g transform="translate(-446,-14) scale(1,1)"><path fill="none" stroke="#000000" d="M 801 481 L 847 478" stroke-miterlimit="10"/></g><g transform="translate(-446,-14) scale(1,1)"><path fill="none" stroke="#000000" d="M 837.1328207203803 482.8619721372962 L 847 478 L 836.5849171519753 474.46078408841976" stroke-miterlimit="10"/></g><g transform="translate(-446,-14) scale(1,1)"><g><path fill="none" stroke="none"/><text fill="#000000" stroke="none" font-family="Arial" font-size="13px" font-style="normal" font-weight="normal" text-decoration="none" x="811.5" y="470.5">Yes</text></g></g><g transform="translate(-446,-14) scale(1,1)"><path fill="none" stroke="#000000" d="M 751 529 L 749 639" stroke-miterlimit="10"/></g><g transform="translate(-446,-14) scale(1,1)"><path fill="none" stroke="#000000" d="M 744.9759232321812 628.7624804680675 L 749 639 L 753.3935675130193 628.9155285459009" stroke-miterlimit="10"/></g><g transform="translate(-446,-14) scale(1,1)"><g><path fill="none" stroke="none"/><text fill="#000000" stroke="none" font-family="Arial" font-size="13px" font-style="normal" font-weight="normal" text-decoration="none" x="755.5" y="590.5">No</text></g></g><g transform="translate(-446,-14) scale(1,1)"><path fill="none" stroke="#000000" d="M 973 489 L 800 639" stroke-miterlimit="10"/></g><g transform="translate(-446,-14) scale(1,1)"><path fill="none" stroke="#000000" d="M 804.9207162506826 629.1619843677564 L 800 639 L 810.4359993961311 635.5229442621738" stroke-miterlimit="10"/></g><g transform="translate(-446,-14) scale(1,1)"><path fill="none" stroke="#000000" d="M 801 685 L 855 686" stroke-miterlimit="10"/></g><g transform="translate(-446,-14) scale(1,1)"><path fill="none" stroke="#000000" d="M 844.7611265960943 690.0206307240026 L 855 686 L 844.9170079347986 681.603038433977" stroke-miterlimit="10"/></g><g transform="translate(-446,-14) scale(1,1)"><g><path fill="none" stroke="none"/><text fill="#000000" stroke="none" font-family="Arial" font-size="13px" font-style="normal" font-weight="normal" text-decoration="none" x="816.5" y="676.5">Yes</text></g></g><g transform="translate(-446,-14) scale(1,1)"><g><path fill="none" stroke="none"/><text fill="#000000" stroke="none" font-family="Arial" font-size="13px" font-style="normal" font-weight="normal" text-decoration="none" x="725" y="474">command</text><text fill="#000000" stroke="none" font-family="Arial" font-size="13px" font-style="normal" font-weight="normal" text-decoration="none" x="725" y="487">print_to_db</text><text fill="#000000" stroke="none" font-family="Arial" font-size="13px" font-style="normal" font-weight="normal" text-decoration="none" x="725" y="500">set?</text></g></g><g transform="translate(-446,-14) scale(1,1)"><g><path fill="none" stroke="none"/><text fill="#000000" stroke="none" font-family="Arial" font-size="13px" font-style="normal" font-weight="normal" text-decoration="none" x="717" y="674">command</text><text fill="#000000" stroke="none" font-family="Arial" font-size="13px" font-style="normal" font-weight="normal" text-decoration="none" x="717" y="687">load_config</text><text fill="#000000" stroke="none" font-family="Arial" font-size="13px" font-style="normal" font-weight="normal" text-decoration="none" x="717" y="700">set?</text></g></g><g transform="translate(-446,-14) scale(1,1)"><path fill="none" stroke="#000000" d="M 1027 643 L 1025 663" stroke-miterlimit="10" stroke-dasharray="3"/></g><g transform="translate(-446,-14) scale(1,1)"><path fill="#C0C0C0" stroke="none" d="M 697 799 L 804 799 Q 814 799 814 809 L 814 829 Q 814 839 804 839 L 697 839 Q 687 839 687 829 L 687 809 Q 687 799 697 799 Z" opacity="0.2"/></g><g transform="translate(-446,-14) scale(1,1)"><path fill="#ffffff" stroke="none" d="M 690 792 L 797 792 Q 807 792 807 802 L 807 822 Q 807 832 797 832 L 690 832 Q 680 832 680 822 L 680 802 Q 680 792 690 792 Z"/></g><g transform="translate(-446,-14) scale(1,1)"><path fill="none" stroke="#000000" d="M 690 792 L 797 792 Q 807 792 807 802 L 807 822 Q 807 832 797 832 L 690 832 Q 680 832 680 822 L 680 802 Q 680 792 690 792 Z" stroke-miterlimit="10"/></g><g transform="translate(-446,-14) scale(1,1)"><g><path fill="none" stroke="none"/><text fill="#000000" stroke="none" font-family="Arial" font-size="13px" font-style="normal" font-weight="bold" text-decoration="none" x="688" y="811.5">process the results</text></g></g><g transform="translate(-446,-14) scale(1,1)"><path fill="none" stroke="#000000" d="M 746 729 L 744 791" stroke-miterlimit="10"/></g><g transform="translate(-446,-14) scale(1,1)"><path fill="none" stroke="#000000" d="M 740.1203284999245 780.7068882716885 L 744 791 L 748.5349870761203 780.9783288709207" stroke-miterlimit="10"/></g><g transform="translate(-446,-14) scale(1,1)"><g><path fill="none" stroke="none"/><text fill="#000000" stroke="none" font-family="Arial" font-size="13px" font-style="normal" font-weight="normal" text-decoration="none" x="750.5" y="766.5">No</text></g></g><g transform="translate(-446,-14) scale(1,1)"><path fill="none" stroke="#000000" d="M 960 718 L 791 791" stroke-miterlimit="10"/></g><g transform="translate(-446,-14) scale(1,1)"><path fill="none" stroke="#000000" d="M 798.6602700543822 783.1056816194217 L 791 791 L 801.9987549609264 790.8345028414213" stroke-miterlimit="10"/></g><g transform="translate(-446,-14) scale(1,1)"><path fill="#C0C0C0" stroke="none" d="M 735 963.5 C 735 956.59644 740.59644 951 747.5 951 C 754.40356 951 760 956.59644 760 963.5 C 760 970.40356 754.40356 976 747.5 976 C 740.59644 976 735 970.40356 735 963.5 Z" opacity="0.2"/></g><g transform="translate(-446,-14) scale(1,1)"><path fill="none" stroke="#000000" d="M 728 956.5 C 728 949.59644 733.59644 944 740.5 944 C 747.40356 944 753 949.59644 753 956.5 C 753 963.40356 747.40356 969 740.5 969 C 733.59644 969 728 963.40356 728 956.5 Z" stroke-miterlimit="10"/></g><g transform="translate(-446,-14) scale(1,1)"><path fill="#000000" stroke="none" d="M 733 956.5 C 733 952.357864 736.357864 949 740.5 949 C 744.642136 949 748 952.357864 748 956.5 C 748 960.642136 744.642136 964 740.5 964 C 736.357864 964 733 960.642136 733 956.5 Z"/></g><g transform="translate(-446,-14) scale(1,1)"><path fill="none" stroke="#000000" d="M 743 833 L 740 943" stroke-miterlimit="10"/></g><g transform="translate(-446,-14) scale(1,1)"><path fill="none" stroke="#000000" d="M 736.0691077340795 932.7263401850302 L 740 943 L 744.4850139454228 932.955864899885" stroke-miterlimit="10"/></g><g transform="translate(-446,-14) scale(1,1)"><g><path fill="none" stroke="none"/><text fill="#000000" stroke="none" font-family="Arial" font-size="13px" font-style="normal" font-weight="normal" text-decoration="none" x="751.5" y="892.5">end of program</text></g></g><g transform="translate(-446,-14) scale(1,1)"><rect fill="#ffffff" stroke="none" x="525" y="800" width="128" height="22"/></g><g transform="translate(-446,-14) scale(1,1)"><path fill="none" stroke="#000000" d="M 525 800 L 653 800 L 653 822 L 525 822 L 525 800 Z Z" stroke-miterlimit="10"/></g><g transform="translate(-446,-14) scale(1,1)"><path fill="none" stroke="#000000" d="M 558 800 L 558 822" stroke-miterlimit="10"/></g><g transform="translate(-446,-14) scale(1,1)"><g><path fill="none" stroke="none"/><text fill="#000000" stroke="none" font-family="Arial" font-size="13px" font-style="normal" font-weight="normal" text-decoration="none" x="562.5" y="817.5">process_result</text></g></g><g transform="translate(-446,-14) scale(1,1)"><g><path fill="none" stroke="none"/><text fill="#000000" stroke="none" font-family="Arial" font-size="13px" font-style="normal" font-weight="bold" text-decoration="none" x="531.5" y="817.5">link</text></g></g><g transform="translate(-446,-14) scale(1,1)"><path fill="none" stroke="#000000" d="M 654 811 L 679 812" stroke-miterlimit="10" stroke-dasharray="3"/></g></g></svg>