<svg version="1.1" xmlns="http://www.w3.org/2000/svg" xmlns:xlink="http://www.w3.org/1999/xlink" width="868" height="965"><defs/><g><g transform="translate(-38,-22) scale(1,1)"><path fill="#C0C0C0" stroke="none" d="M 313 151 L 439.7353515625 151 Q 449.7353515625 151 449.7353515625 161 L 449.7353515625 196 Q 449.7353515625 206 439.7353515625 206 L 313 206 Q 303 206 303 196 L 303 161 Q 303 151 313 151 Z" opacity="0.2"/></g><g transform="translate(-38,-22) scale(1,1)"><path fill="#ffffff" stroke="none" d="M 306 144 L 432.7353515625 144 Q 442.7353515625 144 442.7353515625 154 L 442.7353515625 189 Q 442.7353515625 199 432.7353515625 199 L 306 199 Q 296 199 296 189 L 296 154 Q 296 144 306 144 Z"/></g><g transform="translate(-38,-22) scale(1,1)"><path fill="none" stroke="#000000" d="M 306 144 L 432.7353515625 144 Q 442.7353515625 144 442.7353515625 154 L 442.7353515625 189 Q 442.7353515625 199 432.7353515625 199 L 306 199 Q 296 199 296 189 L 296 154 Q 296 144 306 144 Z" stroke-miterlimit="10"/></g><g transform="translate(-38,-22) scale(1,1)"><g><path fill="none" stroke="none"/><text fill="#000000" stroke="none" font-family="Arial" font-size="13px" font-style="normal" font-weight="bold" text-decoration="none" x="311.36767578125" y="163.5">init Group cli_parser</text></g></g><g transform="translate(-38,-22) scale(1,1)"><g><path fill="none" stroke="none"/><text fill="#000000" stroke="none" font-family="Arial" font-size="13px" font-style="normal" font-weight="normal" text-decoration="none" x="322.36767578125" y="178.5">(from cli_parser)</text></g></g><g transform="translate(-38,-22) scale(1,1)"><path fill="#C0C0C0" stroke="none" d="M 249 263 L 504.57080078125 263 Q 514.57080078125 263 514.57080078125 273 L 514.57080078125 308 Q 514.57080078125 318 504.57080078125 318 L 249 318 Q 239 318 239 308 L 239 273 Q 239 263 249 263 Z" opacity="0.2"/></g><g transform="translate(-38,-22) scale(1,1)"><path fill="#ffffff" stroke="none" d="M 242 256 L 497.57080078125 256 Q 507.57080078125 256 507.57080078125 266 L 507.57080078125 301 Q 507.57080078125 311 497.57080078125 311 L 242 311 Q 232 311 232 301 L 232 266 Q 232 256 242 256 Z"/></g><g transform="translate(-38,-22) scale(1,1)"><path fill="none" stroke="#000000" d="M 242 256 L 497.57080078125 256 Q 507.57080078125 256 507.57080078125 266 L 507.57080078125 301 Q 507.57080078125 311 497.57080078125 311 L 242 311 Q 232 311 232 301 L 232 266 Q 232 256 242 256 Z" stroke-miterlimit="10"/></g><g transform="translate(-38,-22) scale(1,1)"><g><path fill="none" stroke="none"/><text fill="#000000" stroke="none" font-family="Arial" font-size="13px" font-style="normal" font-weight="bold" text-decoration="none" x="255.285400390625" y="275.5">overloaded parse_args in CustomGroup</text></g></g><g transform="translate(-38,-22) scale(1,1)"><g><path fill="none" stroke="none"/><text fill="#000000" stroke="none" font-family="Arial" font-size="13px" font-style="normal" font-weight="normal" text-decoration="none" x="322.785400390625" y="290.5">(from cli_parser)</text></g></g><g transform="translate(-38,-22) scale(1,1)"><path fill="none" stroke="#000000" d="M 369 200 L 369 255" stroke-miterlimit="10"/></g><g transform="translate(-38,-22) scale(1,1)"><path fill="none" stroke="#000000" d="M 364.790482243984 244.83732514237585 L 369 255 L 373.209517756016 244.83732514237585" stroke-miterlimit="10"/></g><g transform="translate(-38,-22) scale(1,1)"><rect fill="#ffffff" stroke="none" x="64" y="264" width="113.5009765625" height="22"/></g><g transform="translate(-38,-22) scale(1,1)"><path fill="none" stroke="#000000" d="M 64 264 L 177.5009765625 264 L 177.5009765625 286 L 64 286 L 64 264 Z Z" stroke-miterlimit="10"/></g><g transform="translate(-38,-22) scale(1,1)"><path fill="none" stroke="#000000" d="M 97 264 L 97 286" stroke-miterlimit="10"/></g><g transform="translate(-38,-22) scale(1,1)"><g><path fill="none" stroke="none"/><text fill="#000000" stroke="none" font-family="Arial" font-size="13px" font-style="normal" font-weight="normal" text-decoration="none" x="103.640869140625" y="281.5">parse_args</text></g></g><g transform="translate(-38,-22) scale(1,1)"><g><path fill="none" stroke="none"/><text fill="#000000" stroke="none" font-family="Arial" font-size="13px" font-style="normal" font-weight="bold" text-decoration="none" x="70.5" y="281.5">link</text></g></g><g transform="translate(-38,-22) scale(1,1)"><path fill="#C0C0C0" stroke="none" d="M 367 48.5 C 367 43.2532944 371.2532944 39 376.5 39 C 381.7467056 39 386 43.2532944 386 48.5 C 386 53.7467056 381.7467056 58 376.5 58 C 371.2532944 58 367 53.7467056 367 48.5 Z" opacity="0.2"/></g><g transform="translate(-38,-22) scale(1,1)"><path fill="#000000" stroke="none" d="M 360 41.5 C 360 36.2532944 364.2532944 32 369.5 32 C 374.7467056 32 379 36.2532944 379 41.5 C 379 46.7467056 374.7467056 51 369.5 51 C 364.2532944 51 360 46.7467056 360 41.5 Z"/></g><g transform="translate(-38,-22) scale(1,1)"><path fill="none" stroke="#000000" d="M 369 52 L 369 143" stroke-miterlimit="10"/></g><g transform="translate(-38,-22) scale(1,1)"><path fill="none" stroke="#000000" d="M 364.790482243984 132.83732514237585 L 369 143 L 373.209517756016 132.83732514237585" stroke-miterlimit="10"/></g><g transform="translate(-38,-22) scale(1,1)"><path fill="none" stroke="#000000" d="M 179 277 L 231 279" stroke-miterlimit="10" stroke-dasharray="3"/></g><g transform="translate(-38,-22) scale(1,1)"><path fill="#C0C0C0" stroke="none" d="M 185 511 L 561.6181640625 511 Q 571.6181640625 511 571.6181640625 521 L 571.6181640625 541 Q 571.6181640625 551 561.6181640625 551 L 185 551 Q 175 551 175 541 L 175 521 Q 175 511 185 511 Z" opacity="0.2"/></g><g transform="translate(-38,-22) scale(1,1)"><path fill="#ffffff" stroke="none" d="M 178 504 L 554.6181640625 504 Q 564.6181640625 504 564.6181640625 514 L 564.6181640625 534 Q 564.6181640625 544 554.6181640625 544 L 178 544 Q 168 544 168 534 L 168 514 Q 168 504 178 504 Z"/></g><g transform="translate(-38,-22) scale(1,1)"><path fill="none" stroke="#000000" d="M 178 504 L 554.6181640625 504 Q 564.6181640625 504 564.6181640625 514 L 564.6181640625 534 Q 564.6181640625 544 554.6181640625 544 L 178 544 Q 168 544 168 534 L 168 514 Q 168 504 178 504 Z" stroke-miterlimit="10"/></g><g transform="translate(-38,-22) scale(1,1)"><g><path fill="none" stroke="none"/><text fill="#000000" stroke="none" font-family="Arial" font-size="13px" font-style="normal" font-weight="bold" text-decoration="none" x="198.30908203125" y="523.5">parse cli_parser parameter and respectively call callbacks</text></g></g><g transform="translate(-38,-22) scale(1,1)"><rect fill="#ffffff" stroke="none" x="48" y="514" width="102.81787109375" height="22"/></g><g transform="translate(-38,-22) scale(1,1)"><path fill="none" stroke="#000000" d="M 48 514 L 150.81787109375 514 L 150.81787109375 536 L 48 536 L 48 514 Z Z" stroke-miterlimit="10"/></g><g transform="translate(-38,-22) scale(1,1)"><path fill="none" stroke="#000000" d="M 81 514 L 81 536" stroke-miterlimit="10"/></g><g transform="translate(-38,-22) scale(1,1)"><g><path fill="none" stroke="none"/><text fill="#000000" stroke="none" font-family="Arial" font-size="13px" font-style="normal" font-weight="normal" text-decoration="none" x="86.79931640625" y="531.5">callbacks</text></g></g><g transform="translate(-38,-22) scale(1,1)"><g><path fill="none" stroke="none"/><text fill="#000000" stroke="none" font-family="Arial" font-size="13px" font-style="normal" font-weight="bold" text-decoration="none" x="54.5" y="531.5">link</text></g></g><g transform="translate(-38,-22) scale(1,1)"><path fill="none" stroke="#000000" d="M 368 312 L 366 359" stroke-miterlimit="10"/></g><g transform="translate(-38,-22) scale(1,1)"><path fill="none" stroke="#000000" d="M 362.2263515604047 348.66754736500866 L 366 359 L 370.63777492303933 349.0254802740569" stroke-miterlimit="10"/></g><g transform="translate(-38,-22) scale(1,1)"><path fill="none" stroke="#000000" d="M 152 525 L 167 525" stroke-miterlimit="10" stroke-dasharray="3"/></g><g transform="translate(-38,-22) scale(1,1)"><path fill="#C0C0C0" stroke="none" d="M 319 635.5 L 367.5 591 L 415 635.5 L 367.5 679 L 319 635.5" opacity="0.2"/></g><g transform="translate(-38,-22) scale(1,1)"><path fill="#ffffff" stroke="none" d="M 312 628 L 360 584 L 408 628 L 360 672 L 312 628"/></g><g transform="translate(-38,-22) scale(1,1)"><path fill="none" stroke="#000000" d="M 312 628 L 360 584 L 408 628 L 360 672 L 312 628 L 312 628" stroke-miterlimit="10"/></g><g transform="translate(-38,-22) scale(1,1)"><path fill="#C0C0C0" stroke="none" d="M 473 607 L 777.14697265625 607 Q 787.14697265625 607 787.14697265625 617 L 787.14697265625 637 Q 787.14697265625 647 777.14697265625 647 L 473 647 Q 463 647 463 637 L 463 617 Q 463 607 473 607 Z" opacity="0.2"/></g><g transform="translate(-38,-22) scale(1,1)"><path fill="#ffffff" stroke="none" d="M 466 600 L 770.14697265625 600 Q 780.14697265625 600 780.14697265625 610 L 780.14697265625 630 Q 780.14697265625 640 770.14697265625 640 L 466 640 Q 456 640 456 630 L 456 610 Q 456 600 466 600 Z"/></g><g transform="translate(-38,-22) scale(1,1)"><path fill="none" stroke="#000000" d="M 466 600 L 770.14697265625 600 Q 780.14697265625 600 780.14697265625 610 L 780.14697265625 630 Q 780.14697265625 640 770.14697265625 640 L 466 640 Q 456 640 456 630 L 456 610 Q 456 600 466 600 Z" stroke-miterlimit="10"/></g><g transform="translate(-38,-22) scale(1,1)"><g><path fill="none" stroke="none"/><text fill="#000000" stroke="none" font-family="Arial" font-size="13px" font-style="normal" font-weight="bold" text-decoration="none" x="483.073486328125" y="619.5">parse print_to_db parameter and call callbacks</text></g></g><g transform="translate(-38,-22) scale(1,1)"><rect fill="#ffffff" stroke="none" x="568" y="560" width="102.81787109375" height="22"/></g><g transform="translate(-38,-22) scale(1,1)"><path fill="none" stroke="#000000" d="M 568 560 L 670.81787109375 560 L 670.81787109375 582 L 568 582 L 568 560 Z Z" stroke-miterlimit="10"/></g><g transform="translate(-38,-22) scale(1,1)"><path fill="none" stroke="#000000" d="M 601 560 L 601 582" stroke-miterlimit="10"/></g><g transform="translate(-38,-22) scale(1,1)"><g><path fill="none" stroke="none"/><text fill="#000000" stroke="none" font-family="Arial" font-size="13px" font-style="normal" font-weight="normal" text-decoration="none" x="606.79931640625" y="577.5">callbacks</text></g></g><g transform="translate(-38,-22) scale(1,1)"><g><path fill="none" stroke="none"/><text fill="#000000" stroke="none" font-family="Arial" font-size="13px" font-style="normal" font-weight="bold" text-decoration="none" x="574.5" y="577.5">link</text></g></g><g transform="translate(-38,-22) scale(1,1)"><path fill="#C0C0C0" stroke="none" d="M 319 411.5 L 371.5 367 L 423 411.5 L 371.5 455 L 319 411.5" opacity="0.2"/></g><g transform="translate(-38,-22) scale(1,1)"><path fill="#ffffff" stroke="none" d="M 312 404 L 364 360 L 416 404 L 364 448 L 312 404"/></g><g transform="translate(-38,-22) scale(1,1)"><path fill="none" stroke="#000000" d="M 312 404 L 364 360 L 416 404 L 364 448 L 312 404 L 312 404" stroke-miterlimit="10"/></g><g transform="translate(-38,-22) scale(1,1)"><path fill="#C0C0C0" stroke="none" d="M 577 343 L 893 343 Q 903 343 903 353 L 903 386 Q 903 396 893 396 L 577 396 Q 567 396 567 386 L 567 353 Q 567 343 577 343 Z" opacity="0.2"/></g><g transform="translate(-38,-22) scale(1,1)"><path fill="#ffffff" stroke="none" d="M 570 336 L 886 336 Q 896 336 896 346 L 896 379 Q 896 389 886 389 L 570 389 Q 560 389 560 379 L 560 346 Q 560 336 570 336 Z"/></g><g transform="translate(-38,-22) scale(1,1)"><path fill="none" stroke="#000000" d="M 570 336 L 886 336 Q 896 336 896 346 L 896 379 Q 896 389 886 389 L 570 389 Q 560 389 560 379 L 560 346 Q 560 336 570 336 Z" stroke-miterlimit="10"/></g><g transform="translate(-38,-22) scale(1,1)"><g><path fill="none" stroke="none"/><text fill="#000000" stroke="none" font-family="Arial" font-size="13px" font-style="normal" font-weight="bold" text-decoration="none" x="600.5" y="355.5">parse load_config parameter and set path of</text><text fill="#000000" stroke="none" font-family="Arial" font-size="13px" font-style="normal" font-weight="bold" text-decoration="none" x="634" y="368.5">configfile to ConfigFileProcessor</text></g></g><g transform="translate(-38,-22) scale(1,1)"><path fill="none" stroke="#000000" d="M 619 583 L 618 599" stroke-miterlimit="10" stroke-dasharray="3"/></g><g transform="translate(-38,-22) scale(1,1)"><path fill="none" stroke="#000000" d="M 365 545 L 363 583" stroke-miterlimit="10"/></g><g transform="translate(-38,-22) scale(1,1)"><path fill="none" stroke="#000000" d="M 359.33043884787344 572.6301243522015 L 363 583 L 367.7378378159721 573.0726190347331" stroke-miterlimit="10"/></g><g transform="translate(-38,-22) scale(1,1)"><path fill="none" stroke="#000000" d="M 409 626 L 455 625" stroke-miterlimit="10"/></g><g transform="translate(-38,-22) scale(1,1)"><path fill="none" stroke="#000000" d="M 444.93121531934037 629.429398949577 L 455 625 L 444.74823604017183 621.0123521078249" stroke-miterlimit="10"/></g><g transform="translate(-38,-22) scale(1,1)"><g><path fill="none" stroke="none"/><text fill="#000000" stroke="none" font-family="Arial" font-size="13px" font-style="normal" font-weight="normal" text-decoration="none" x="420.5" y="616.5">Yes</text></g></g><g transform="translate(-38,-22) scale(1,1)"><path fill="none" stroke="#000000" d="M 359 673 L 356 799" stroke-miterlimit="10"/></g><g transform="translate(-38,-22) scale(1,1)"><path fill="none" stroke="#000000" d="M 352.0335748038652 788.7400062785854 L 356 799 L 360.45022498208755 788.9404027114002" stroke-miterlimit="10"/></g><g transform="translate(-38,-22) scale(1,1)"><g><path fill="none" stroke="none"/><text fill="#000000" stroke="none" font-family="Arial" font-size="13px" font-style="normal" font-weight="normal" text-decoration="none" x="363.294677734375" y="742.5">No</text></g></g><g transform="translate(-38,-22) scale(1,1)"><path fill="none" stroke="#000000" d="M 590 641 L 384 799" stroke-miterlimit="10"/></g><g transform="translate(-38,-22) scale(1,1)"><path fill="none" stroke="#000000" d="M 389.50201901502817 789.4748865225516 L 384 799 L 394.6257872872189 796.1552426242686" stroke-miterlimit="10"/></g><g transform="translate(-38,-22) scale(1,1)"><path fill="none" stroke="#000000" d="M 417 398 L 559 382" stroke-miterlimit="10"/></g><g transform="translate(-38,-22) scale(1,1)"><path fill="none" stroke="#000000" d="M 549.3725587334461 387.3209373853726 L 559 382 L 548.4299000874786 378.9548419024105" stroke-miterlimit="10"/></g><g transform="translate(-38,-22) scale(1,1)"><g><path fill="none" stroke="none"/><text fill="#000000" stroke="none" font-family="Arial" font-size="13px" font-style="normal" font-weight="normal" text-decoration="none" x="474.5" y="381.5">Yes</text></g></g><g transform="translate(-38,-22) scale(1,1)"><g><path fill="none" stroke="none"/><text fill="#000000" stroke="none" font-family="Arial" font-size="13px" font-style="normal" font-weight="normal" text-decoration="none" x="333" y="618">command</text><text fill="#000000" stroke="none" font-family="Arial" font-size="13px" font-style="normal" font-weight="normal" text-decoration="none" x="333" y="631">print_to_db</text><text fill="#000000" stroke="none" font-family="Arial" font-size="13px" font-style="normal" font-weight="normal" text-decoration="none" x="333" y="644">set?</text></g></g><g transform="translate(-38,-22) scale(1,1)"><g><path fill="none" stroke="none"/><text fill="#000000" stroke="none" font-family="Arial" font-size="13px" font-style="normal" font-weight="normal" text-decoration="none" x="333" y="394">command</text><text fill="#000000" stroke="none" font-family="Arial" font-size="13px" font-style="normal" font-weight="normal" text-decoration="none" x="333" y="407">load_config</text><text fill="#000000" stroke="none" font-family="Arial" font-size="13px" font-style="normal" font-weight="normal" text-decoration="none" x="333" y="420">set?</text></g></g><g transform="translate(-38,-22) scale(1,1)"><path fill="#C0C0C0" stroke="none" d="M 305 807 L 422.24853515625 807 Q 432.24853515625 807 432.24853515625 817 L 432.24853515625 837 Q 432.24853515625 847 422.24853515625 847 L 305 847 Q 295 847 295 837 L 295 817 Q 295 807 305 807 Z" opacity="0.2"/></g><g transform="translate(-38,-22) scale(1,1)"><path fill="#ffffff" stroke="none" d="M 298 800 L 415.24853515625 800 Q 425.24853515625 800 425.24853515625 810 L 425.24853515625 830 Q 425.24853515625 840 415.24853515625 840 L 298 840 Q 288 840 288 830 L 288 810 Q 288 800 298 800 Z"/></g><g transform="translate(-38,-22) scale(1,1)"><path fill="none" stroke="#000000" d="M 298 800 L 415.24853515625 800 Q 425.24853515625 800 425.24853515625 810 L 425.24853515625 830 Q 425.24853515625 840 415.24853515625 840 L 298 840 Q 288 840 288 830 L 288 810 Q 288 800 298 800 Z" stroke-miterlimit="10"/></g><g transform="translate(-38,-22) scale(1,1)"><g><path fill="none" stroke="none"/><text fill="#000000" stroke="none" font-family="Arial" font-size="13px" font-style="normal" font-weight="bold" text-decoration="none" x="301.124267578125" y="819.5">process the results</text></g></g><g transform="translate(-38,-22) scale(1,1)"><path fill="none" stroke="#000000" d="M 665 390 L 413 503" stroke-miterlimit="10"/></g><g transform="translate(-38,-22) scale(1,1)"><path fill="none" stroke="#000000" d="M 420.5506961466224 495.0008133100057 L 413 503 L 423.99542760042794 502.68286929548367" stroke-miterlimit="10"/></g><g transform="translate(-38,-22) scale(1,1)"><path fill="#C0C0C0" stroke="none" d="M 351 971.5 C 351 964.59644 356.59644 959 363.5 959 C 370.40356 959 376 964.59644 376 971.5 C 376 978.40356 370.40356 984 363.5 984 C 356.59644 984 351 978.40356 351 971.5 Z" opacity="0.2"/></g><g transform="translate(-38,-22) scale(1,1)"><path fill="none" stroke="#000000" d="M 344 964.5 C 344 957.59644 349.59644 952 356.5 952 C 363.40356 952 369 957.59644 369 964.5 C 369 971.40356 363.40356 977 356.5 977 C 349.59644 977 344 971.40356 344 964.5 Z" stroke-miterlimit="10"/></g><g transform="translate(-38,-22) scale(1,1)"><path fill="#000000" stroke="none" d="M 349 964.5 C 349 960.357864 352.357864 957 356.5 957 C 360.642136 957 364 960.357864 364 964.5 C 364 968.642136 360.642136 972 356.5 972 C 352.357864 972 349 968.642136 349 964.5 Z"/></g><g transform="translate(-38,-22) scale(1,1)"><path fill="none" stroke="#000000" d="M 356 841 L 356 951" stroke-miterlimit="10"/></g><g transform="translate(-38,-22) scale(1,1)"><path fill="none" stroke="#000000" d="M 351.790482243984 940.8373251423759 L 356 951 L 360.209517756016 940.8373251423759" stroke-miterlimit="10"/></g><g transform="translate(-38,-22) scale(1,1)"><g><path fill="none" stroke="none"/><text fill="#000000" stroke="none" font-family="Arial" font-size="13px" font-style="normal" font-weight="normal" text-decoration="none" x="365.492919921875" y="899.5">end of program</text></g></g><g transform="translate(-38,-22) scale(1,1)"><rect fill="#ffffff" stroke="none" x="80" y="744" width="136.23828125" height="22"/></g><g transform="translate(-38,-22) scale(1,1)"><path fill="none" stroke="#000000" d="M 80 744 L 216.23828125 744 L 216.23828125 766 L 80 766 L 80 744 Z Z" stroke-miterlimit="10"/></g><g transform="translate(-38,-22) scale(1,1)"><path fill="none" stroke="#000000" d="M 113 744 L 113 766" stroke-miterlimit="10"/></g><g transform="translate(-38,-22) scale(1,1)"><g><path fill="none" stroke="none"/><text fill="#000000" stroke="none" font-family="Arial" font-size="13px" font-style="normal" font-weight="normal" text-decoration="none" x="120.509521484375" y="761.5">process_result</text></g></g><g transform="translate(-38,-22) scale(1,1)"><g><path fill="none" stroke="none"/><text fill="#000000" stroke="none" font-family="Arial" font-size="13px" font-style="normal" font-weight="bold" text-decoration="none" x="86.5" y="761.5">link</text></g></g><g transform="translate(-38,-22) scale(1,1)"><path fill="none" stroke="#000000" d="M 186 767 L 289 799" stroke-miterlimit="10" stroke-dasharray="3"/></g><g transform="translate(-38,-22) scale(1,1)"><path fill="none" stroke="#000000" d="M 365 449 L 366 503" stroke-miterlimit="10"/></g><g transform="translate(-38,-22) scale(1,1)"><path fill="none" stroke="#000000" d="M 361.6030384339769 492.9170079347985 L 366 503 L 370.02063072400256 492.76112659609436" stroke-miterlimit="10"/></g><g transform="translate(-38,-22) scale(1,1)"><g><path fill="none" stroke="none"/><text fill="#000000" stroke="none" font-family="Arial" font-size="13px" font-style="normal" font-weight="normal" text-decoration="none" x="370.5" y="481.5">No</text></g></g></g></svg>