<svg version="1.1" xmlns="http://www.w3.org/2000/svg" xmlns:xlink="http://www.w3.org/1999/xlink" width="772" height="965"><defs/><g><g transform="translate(-38,-22) scale(1,1)"><path fill="#C0C0C0" stroke="none" d="M 313 151 L 439.7353515625 151 Q 449.7353515625 151 449.7353515625 161 L 449.7353515625 196 Q 449.7353515625 206 439.7353515625 206 L 313 206 Q 303 206 303 196 L 303 161 Q 303 151 313 151 Z" opacity="0.2"/></g><g transform="translate(-38,-22) scale(1,1)"><path fill="#ffffff" stroke="none" d="M 306 144 L 432.7353515625 144 Q 442.7353515625 144 442.7353515625 154 L 442.7353515625 189 Q 442.7353515625 199 432.7353515625 199 L 306 199 Q 296 199 296 189 L 296 154 Q 296 144 306 144 Z"/></g><g transform="translate(-38,-22) scale(1,1)"><path fill="none" stroke="#000000" d="M 306 144 L 432.7353515625 144 Q 442.7353515625 144 442.7353515625 154 L 442.7353515625 189 Q 442.7353515625 199 432.7353515625 199 L 306 199 Q 296 199 296 189 L 296 154 Q 296 144 306 144 Z" stroke-miterlimit="10"/></g><g transform="translate(-38,-22) scale(1,1)"><g><path fill="none" stroke="none"/><text fill="#000000" stroke="none" font-family="Arial" font-size="13px" font-style="normal" font-weight="bold" text-decoration="none" x="311.36767578125" y="163.5">init Group cli_parser</text></g></g><g transform="translate(-38,-22) scale(1,1)"><g><path fill="none" stroke="none"/><text fill="#000000" stroke="none" font-family="Arial" font-size="13px" font-style="normal" font-weight="normal" text-decoration="none" x="322.36767578125" y="178.5">(from cli_parser)</text></g></g><g transform="translate(-38,-22) scale(1,1)"><path fill="#C0C0C0" stroke="none" d="M 249 263 L 504.57080078125 263 Q 514.57080078125 263 514.57080078125 273 L 514.57080078125 308 Q 514.57080078125 318 504.57080078125 318 L 249 318 Q 239 318 239 308 L 239 273 Q 239 263 249 263 Z" opacity="0.2"/></g><g transform="translate(-38,-22) scale(1,1)"><path fill="#ffffff" stroke="none" d="M 242 256 L 497.57080078125 256 Q 507.57080078125 256 507.57080078125 266 L 507.57080078125 301 Q 507.57080078125 311 497.57080078125 311 L 242 311 Q 232 311 232 301 L 232 266 Q 232 256 242 256 Z"/></g><g transform="translate(-38,-22) scale(1,1)"><path fill="none" stroke="#000000" d="M 242 256 L 497.57080078125 256 Q 507.57080078125 256 507.57080078125 266 L 507.57080078125 301 Q 507.57080078125 311 497.57080078125 311 L 242 311 Q 232 311 232 301 L 232 266 Q 232 256 242 256 Z" stroke-miterlimit="10"/></g><g transform="translate(-38,-22) scale(1,1)"><g><path fill="none" stroke="none"/><text fill="#000000" stroke="none" font-family="Arial" font-size="13px" font-style="normal" font-weight="bold" text-decoration="none" x="255.285400390625" y="275.5">overloaded parse_args in CustomGroup</text></g></g><g transform="translate(-38,-22) scale(1,1)"><g><path fill="none" stroke="none"/><text fill="#000000" stroke="none" font-family="Arial" font-size="13px" font-style="normal" font-weight="normal" text-decoration="none" x="322.785400390625" y="290.5">(from cli_parser)</text></g></g><g transform="translate(-38,-22) scale(1,1)"><path fill="none" stroke="#000000" d="M 369 200 L 369 255" stroke-miterlimit="10"/></g><g transform="translate(-38,-22) scale(1,1)"><path fill="none" stroke="#000000" d="M 364.790482243984 244.83732514237585 L 369 255 L 373.209517756016 244.83732514237585" stroke-miterlimit="10"/></g><g transform="translate(-38,-22) scale(1,1)"><rect fill="#ffffff" stroke="none" x="64" y="264" width="113.5009765625" height="22"/></g><g transform="translate(-38,-22) scale(1,1)"><path fill="none" stroke="#000000" d="M 64 264 L 177.5009765625 264 L 177.5009765625 286 L 64 286 L 64 264 Z Z" stroke-miterlimit="10"/></g><g transform="translate(-38,-22) scale(1,1)"><path fill="none" stroke="#000000" d="M 97 264 L 97 286" stroke-miterlimit="10"/></g><g transform="translate(-38,-22) scale(1,1)"><g><path fill="none" stroke="none"/><text fill="#000000" stroke="none" font-family="Arial" font-size="13px" font-style="normal" font-weight="normal" text-decoration="none" x="103.640869140625" y="281.5">parse_args</text></g></g><g transform="translate(-38,-22) scale(1,1)"><g><path fill="none" stroke="none"/><text fill="#000000" stroke="none" font-family="Arial" font-size="13px" font-style="normal" font-weight="bold" text-decoration="none" x="70.5" y="281.5">link</text></g></g><g transform="translate(-38,-22) scale(1,1)"><path fill="#C0C0C0" stroke="none" d="M 367 48.5 C 367 43.2532944 371.2532944 39 376.5 39 C 381.7467056 39 386 43.2532944 386 48.5 C 386 53.7467056 381.7467056 58 376.5 58 C 371.2532944 58 367 53.7467056 367 48.5 Z" opacity="0.2"/></g><g transform="translate(-38,-22) scale(1,1)"><path fill="#000000" stroke="none" d="M 360 41.5 C 360 36.2532944 364.2532944 32 369.5 32 C 374.7467056 32 379 36.2532944 379 41.5 C 379 46.7467056 374.7467056 51 369.5 51 C 364.2532944 51 360 46.7467056 360 41.5 Z"/></g><g transform="translate(-38,-22) scale(1,1)"><path fill="none" stroke="#000000" d="M 369 52 L 369 143" stroke-miterlimit="10"/></g><g transform="translate(-38,-22) scale(1,1)"><path fill="none" stroke="#000000" d="M 364.790482243984 132.83732514237585 L 369 143 L 373.209517756016 132.83732514237585" stroke-miterlimit="10"/></g><g transform="translate(-38,-22) scale(1,1)"><path fill="none" stroke="#000000" d="M 179 277 L 231 279" stroke-miterlimit="10" stroke-dasharray="3"/></g><g transform="translate(-38,-22) scale(1,1)"><path fill="#C0C0C0" stroke="none" d="M 185 375 L 561.6181640625 375 Q 571.6181640625 375 571.6181640625 385 L 571.6181640625 405 Q 571.6181640625 415 561.6181640625 415 L 185 415 Q 175 415 175 405 L 175 385 Q 175 375 185 375 Z" opacity="0.2"/></g><g transform="translate(-38,-22) scale(1,1)"><path fill="#ffffff" stroke="none" d="M 178 368 L 554.6181640625 368 Q 564.6181640625 368 564.6181640625 378 L 564.6181640625 398 Q 564.6181640625 408 554.6181640625 408 L 178 408 Q 168 408 168 398 L 168 378 Q 168 368 178 368 Z"/></g><g transform="translate(-38,-22) scale(1,1)"><path fill="none" stroke="#000000" d="M 178 368 L 554.6181640625 368 Q 564.6181640625 368 564.6181640625 378 L 564.6181640625 398 Q 564.6181640625 408 554.6181640625 408 L 178 408 Q 168 408 168 398 L 168 378 Q 168 368 178 368 Z" stroke-miterlimit="10"/></g><g transform="translate(-38,-22) scale(1,1)"><g><path fill="none" stroke="none"/><text fill="#000000" stroke="none" font-family="Arial" font-size="13px" font-style="normal" font-weight="bold" text-decoration="none" x="198.30908203125" y="387.5">parse cli_parser parameter and respectively call callbacks</text></g></g><g transform="translate(-38,-22) scale(1,1)"><rect fill="#ffffff" stroke="none" x="48" y="378" width="102.81787109375" height="22"/></g><g transform="translate(-38,-22) scale(1,1)"><path fill="none" stroke="#000000" d="M 48 378 L 150.81787109375 378 L 150.81787109375 400 L 48 400 L 48 378 Z Z" stroke-miterlimit="10"/></g><g transform="translate(-38,-22) scale(1,1)"><path fill="none" stroke="#000000" d="M 81 378 L 81 400" stroke-miterlimit="10"/></g><g transform="translate(-38,-22) scale(1,1)"><g><path fill="none" stroke="none"/><text fill="#000000" stroke="none" font-family="Arial" font-size="13px" font-style="normal" font-weight="normal" text-decoration="none" x="86.79931640625" y="395.5">callbacks</text></g></g><g transform="translate(-38,-22) scale(1,1)"><g><path fill="none" stroke="none"/><text fill="#000000" stroke="none" font-family="Arial" font-size="13px" font-style="normal" font-weight="bold" text-decoration="none" x="54.5" y="395.5">link</text></g></g><g transform="translate(-38,-22) scale(1,1)"><path fill="none" stroke="#000000" d="M 368 312 L 367 367" stroke-miterlimit="10"/></g><g transform="translate(-38,-22) scale(1,1)"><path fill="none" stroke="#000000" d="M 362.97592323218123 356.7624804680674 L 367 367 L 371.3935675130194 356.9155285459008" stroke-miterlimit="10"/></g><g transform="translate(-38,-22) scale(1,1)"><path fill="none" stroke="#000000" d="M 152 389 L 167 389" stroke-miterlimit="10" stroke-dasharray="3"/></g><g transform="translate(-38,-22) scale(1,1)"><path fill="#C0C0C0" stroke="none" d="M 319 499.5 L 367.5 455 L 415 499.5 L 367.5 543 L 319 499.5" opacity="0.2"/></g><g transform="translate(-38,-22) scale(1,1)"><path fill="#ffffff" stroke="none" d="M 312 492 L 360 448 L 408 492 L 360 536 L 312 492"/></g><g transform="translate(-38,-22) scale(1,1)"><path fill="none" stroke="#000000" d="M 312 492 L 360 448 L 408 492 L 360 536 L 312 492 L 312 492" stroke-miterlimit="10"/></g><g transform="translate(-38,-22) scale(1,1)"><path fill="#C0C0C0" stroke="none" d="M 473 471 L 777.14697265625 471 Q 787.14697265625 471 787.14697265625 481 L 787.14697265625 501 Q 787.14697265625 511 777.14697265625 511 L 473 511 Q 463 511 463 501 L 463 481 Q 463 471 473 471 Z" opacity="0.2"/></g><g transform="translate(-38,-22) scale(1,1)"><path fill="#ffffff" stroke="none" d="M 466 464 L 770.14697265625 464 Q 780.14697265625 464 780.14697265625 474 L 780.14697265625 494 Q 780.14697265625 504 770.14697265625 504 L 466 504 Q 456 504 456 494 L 456 474 Q 456 464 466 464 Z"/></g><g transform="translate(-38,-22) scale(1,1)"><path fill="none" stroke="#000000" d="M 466 464 L 770.14697265625 464 Q 780.14697265625 464 780.14697265625 474 L 780.14697265625 494 Q 780.14697265625 504 770.14697265625 504 L 466 504 Q 456 504 456 494 L 456 474 Q 456 464 466 464 Z" stroke-miterlimit="10"/></g><g transform="translate(-38,-22) scale(1,1)"><g><path fill="none" stroke="none"/><text fill="#000000" stroke="none" font-family="Arial" font-size="13px" font-style="normal" font-weight="bold" text-decoration="none" x="483.073486328125" y="483.5">parse print_to_db parameter and call callbacks</text></g></g><g transform="translate(-38,-22) scale(1,1)"><rect fill="#ffffff" stroke="none" x="568" y="424" width="102.81787109375" height="22"/></g><g transform="translate(-38,-22) scale(1,1)"><path fill="none" stroke="#000000" d="M 568 424 L 670.81787109375 424 L 670.81787109375 446 L 568 446 L 568 424 Z Z" stroke-miterlimit="10"/></g><g transform="translate(-38,-22) scale(1,1)"><path fill="none" stroke="#000000" d="M 601 424 L 601 446" stroke-miterlimit="10"/></g><g transform="translate(-38,-22) scale(1,1)"><g><path fill="none" stroke="none"/><text fill="#000000" stroke="none" font-family="Arial" font-size="13px" font-style="normal" font-weight="normal" text-decoration="none" x="606.79931640625" y="441.5">callbacks</text></g></g><g transform="translate(-38,-22) scale(1,1)"><g><path fill="none" stroke="none"/><text fill="#000000" stroke="none" font-family="Arial" font-size="13px" font-style="normal" font-weight="bold" text-decoration="none" x="574.5" y="441.5">link</text></g></g><g transform="translate(-38,-22) scale(1,1)"><path fill="#C0C0C0" stroke="none" d="M 311 699.5 L 363.5 655 L 415 699.5 L 363.5 743 L 311 699.5" opacity="0.2"/></g><g transform="translate(-38,-22) scale(1,1)"><path fill="#ffffff" stroke="none" d="M 304 692 L 356 648 L 408 692 L 356 736 L 304 692"/></g><g transform="translate(-38,-22) scale(1,1)"><path fill="none" stroke="#000000" d="M 304 692 L 356 648 L 408 692 L 356 736 L 304 692 L 304 692" stroke-miterlimit="10"/></g><g transform="translate(-38,-22) scale(1,1)"><path fill="#C0C0C0" stroke="none" d="M 481 671 L 797 671 Q 807 671 807 681 L 807 714 Q 807 724 797 724 L 481 724 Q 471 724 471 714 L 471 681 Q 471 671 481 671 Z" opacity="0.2"/></g><g transform="translate(-38,-22) scale(1,1)"><path fill="#ffffff" stroke="none" d="M 474 664 L 790 664 Q 800 664 800 674 L 800 707 Q 800 717 790 717 L 474 717 Q 464 717 464 707 L 464 674 Q 464 664 474 664 Z"/></g><g transform="translate(-38,-22) scale(1,1)"><path fill="none" stroke="#000000" d="M 474 664 L 790 664 Q 800 664 800 674 L 800 707 Q 800 717 790 717 L 474 717 Q 464 717 464 707 L 464 674 Q 464 664 474 664 Z" stroke-miterlimit="10"/></g><g transform="translate(-38,-22) scale(1,1)"><g><path fill="none" stroke="none"/><text fill="#000000" stroke="none" font-family="Arial" font-size="13px" font-style="normal" font-weight="bold" text-decoration="none" x="504.5" y="683.5">parse load_config parameter and set path of</text><text fill="#000000" stroke="none" font-family="Arial" font-size="13px" font-style="normal" font-weight="bold" text-decoration="none" x="538" y="696.5">configfile to ConfigFileProcessor</text></g></g><g transform="translate(-38,-22) scale(1,1)"><path fill="#ffffff" stroke="none" d="M 536 592 L 725 592 L 735 602 L 735 641 L 536 641 L 536 592"/></g><g transform="translate(-38,-22) scale(1,1)"><path fill="none" stroke="#000000" d="M 536 592 L 725 592 L 735 602 L 735 641 L 536 641 L 536 592 L 536 592" stroke-miterlimit="10"/></g><g transform="translate(-38,-22) scale(1,1)"><path fill="none" stroke="#000000" d="M 725 592 L 725 602 L 735 602 L 725 592" stroke-miterlimit="10"/></g><g transform="translate(-38,-22) scale(1,1)"><g><path fill="none" stroke="none"/><text fill="#000000" stroke="none" font-family="Arial" font-size="13px" font-style="normal" font-weight="normal" text-decoration="none" x="541" y="610">Most of the loading is triggered</text><text fill="#000000" stroke="none" font-family="Arial" font-size="13px" font-style="normal" font-weight="normal" text-decoration="none" x="541" y="623">at the init of the Custom_Group </text></g></g><g transform="translate(-38,-22) scale(1,1)"><path fill="none" stroke="#000000" d="M 619 447 L 618 463" stroke-miterlimit="10" stroke-dasharray="3"/></g><g transform="translate(-38,-22) scale(1,1)"><path fill="none" stroke="#000000" d="M 365 409 L 363 447" stroke-miterlimit="10"/></g><g transform="translate(-38,-22) scale(1,1)"><path fill="none" stroke="#000000" d="M 359.33043884787344 436.63012435220156 L 363 447 L 367.7378378159721 437.07261903473307" stroke-miterlimit="10"/></g><g transform="translate(-38,-22) scale(1,1)"><path fill="none" stroke="#000000" d="M 409 490 L 455 489" stroke-miterlimit="10"/></g><g transform="translate(-38,-22) scale(1,1)"><path fill="none" stroke="#000000" d="M 444.93121531934037 493.42939894957703 L 455 489 L 444.74823604017183 485.0123521078249" stroke-miterlimit="10"/></g><g transform="translate(-38,-22) scale(1,1)"><g><path fill="none" stroke="none"/><text fill="#000000" stroke="none" font-family="Arial" font-size="13px" font-style="normal" font-weight="normal" text-decoration="none" x="420.5" y="480.5">Yes</text></g></g><g transform="translate(-38,-22) scale(1,1)"><path fill="none" stroke="#000000" d="M 359 537 L 357 647" stroke-miterlimit="10"/></g><g transform="translate(-38,-22) scale(1,1)"><path fill="none" stroke="#000000" d="M 352.97592323218123 636.7624804680675 L 357 647 L 361.3935675130194 636.9155285459009" stroke-miterlimit="10"/></g><g transform="translate(-38,-22) scale(1,1)"><g><path fill="none" stroke="none"/><text fill="#000000" stroke="none" font-family="Arial" font-size="13px" font-style="normal" font-weight="normal" text-decoration="none" x="364.294677734375" y="598.5">No</text></g></g><g transform="translate(-38,-22) scale(1,1)"><path fill="none" stroke="#000000" d="M 592 505 L 409 650" stroke-miterlimit="10"/></g><g transform="translate(-38,-22) scale(1,1)"><path fill="none" stroke="#000000" d="M 414.351109037856 640.3892959641358 L 409 650 L 419.57959948327306 646.9880114918001" stroke-miterlimit="10"/></g><g transform="translate(-38,-22) scale(1,1)"><path fill="none" stroke="#000000" d="M 409 692 L 463 691" stroke-miterlimit="10"/></g><g transform="translate(-38,-22) scale(1,1)"><path fill="none" stroke="#000000" d="M 452.9170079347985 695.396961566023 L 463 691 L 452.76112659609436 686.9793692759974" stroke-miterlimit="10"/></g><g transform="translate(-38,-22) scale(1,1)"><g><path fill="none" stroke="none"/><text fill="#000000" stroke="none" font-family="Arial" font-size="13px" font-style="normal" font-weight="normal" text-decoration="none" x="424.5" y="682.5">Yes</text></g></g><g transform="translate(-38,-22) scale(1,1)"><g><path fill="none" stroke="none"/><text fill="#000000" stroke="none" font-family="Arial" font-size="13px" font-style="normal" font-weight="normal" text-decoration="none" x="333" y="482">command</text><text fill="#000000" stroke="none" font-family="Arial" font-size="13px" font-style="normal" font-weight="normal" text-decoration="none" x="333" y="495">print_to_db</text><text fill="#000000" stroke="none" font-family="Arial" font-size="13px" font-style="normal" font-weight="normal" text-decoration="none" x="333" y="508">set?</text></g></g><g transform="translate(-38,-22) scale(1,1)"><g><path fill="none" stroke="none"/><text fill="#000000" stroke="none" font-family="Arial" font-size="13px" font-style="normal" font-weight="normal" text-decoration="none" x="325" y="682">command</text><text fill="#000000" stroke="none" font-family="Arial" font-size="13px" font-style="normal" font-weight="normal" text-decoration="none" x="325" y="695">load_config</text><text fill="#000000" stroke="none" font-family="Arial" font-size="13px" font-style="normal" font-weight="normal" text-decoration="none" x="325" y="708">set?</text></g></g><g transform="translate(-38,-22) scale(1,1)"><path fill="none" stroke="#000000" d="M 635 643 L 633 663" stroke-miterlimit="10" stroke-dasharray="3"/></g><g transform="translate(-38,-22) scale(1,1)"><path fill="#C0C0C0" stroke="none" d="M 305 807 L 422.24853515625 807 Q 432.24853515625 807 432.24853515625 817 L 432.24853515625 837 Q 432.24853515625 847 422.24853515625 847 L 305 847 Q 295 847 295 837 L 295 817 Q 295 807 305 807 Z" opacity="0.2"/></g><g transform="translate(-38,-22) scale(1,1)"><path fill="#ffffff" stroke="none" d="M 298 800 L 415.24853515625 800 Q 425.24853515625 800 425.24853515625 810 L 425.24853515625 830 Q 425.24853515625 840 415.24853515625 840 L 298 840 Q 288 840 288 830 L 288 810 Q 288 800 298 800 Z"/></g><g transform="translate(-38,-22) scale(1,1)"><path fill="none" stroke="#000000" d="M 298 800 L 415.24853515625 800 Q 425.24853515625 800 425.24853515625 810 L 425.24853515625 830 Q 425.24853515625 840 415.24853515625 840 L 298 840 Q 288 840 288 830 L 288 810 Q 288 800 298 800 Z" stroke-miterlimit="10"/></g><g transform="translate(-38,-22) scale(1,1)"><g><path fill="none" stroke="none"/><text fill="#000000" stroke="none" font-family="Arial" font-size="13px" font-style="normal" font-weight="bold" text-decoration="none" x="301.124267578125" y="819.5">process the results</text></g></g><g transform="translate(-38,-22) scale(1,1)"><path fill="none" stroke="#000000" d="M 356 737 L 356 799" stroke-miterlimit="10"/></g><g transform="translate(-38,-22) scale(1,1)"><path fill="none" stroke="#000000" d="M 351.790482243984 788.8373251423759 L 356 799 L 360.209517756016 788.8373251423759" stroke-miterlimit="10"/></g><g transform="translate(-38,-22) scale(1,1)"><g><path fill="none" stroke="none"/><text fill="#000000" stroke="none" font-family="Arial" font-size="13px" font-style="normal" font-weight="normal" text-decoration="none" x="362.294677734375" y="773.5">No</text></g></g><g transform="translate(-38,-22) scale(1,1)"><path fill="none" stroke="#000000" d="M 573 718 L 401 799" stroke-miterlimit="10"/></g><g transform="translate(-38,-22) scale(1,1)"><path fill="none" stroke="#000000" d="M 408.40070006067634 790.8618405881978 L 401 799 L 411.98763290489444 798.4785374919695" stroke-miterlimit="10"/></g><g transform="translate(-38,-22) scale(1,1)"><path fill="#C0C0C0" stroke="none" d="M 351 971.5 C 351 964.59644 356.59644 959 363.5 959 C 370.40356 959 376 964.59644 376 971.5 C 376 978.40356 370.40356 984 363.5 984 C 356.59644 984 351 978.40356 351 971.5 Z" opacity="0.2"/></g><g transform="translate(-38,-22) scale(1,1)"><path fill="none" stroke="#000000" d="M 344 964.5 C 344 957.59644 349.59644 952 356.5 952 C 363.40356 952 369 957.59644 369 964.5 C 369 971.40356 363.40356 977 356.5 977 C 349.59644 977 344 971.40356 344 964.5 Z" stroke-miterlimit="10"/></g><g transform="translate(-38,-22) scale(1,1)"><path fill="#000000" stroke="none" d="M 349 964.5 C 349 960.357864 352.357864 957 356.5 957 C 360.642136 957 364 960.357864 364 964.5 C 364 968.642136 360.642136 972 356.5 972 C 352.357864 972 349 968.642136 349 964.5 Z"/></g><g transform="translate(-38,-22) scale(1,1)"><path fill="none" stroke="#000000" d="M 356 841 L 356 951" stroke-miterlimit="10"/></g><g transform="translate(-38,-22) scale(1,1)"><path fill="none" stroke="#000000" d="M 351.790482243984 940.8373251423759 L 356 951 L 360.209517756016 940.8373251423759" stroke-miterlimit="10"/></g><g transform="translate(-38,-22) scale(1,1)"><g><path fill="none" stroke="none"/><text fill="#000000" stroke="none" font-family="Arial" font-size="13px" font-style="normal" font-weight="normal" text-decoration="none" x="365.492919921875" y="899.5">end of program</text></g></g><g transform="translate(-38,-22) scale(1,1)"><rect fill="#ffffff" stroke="none" x="120" y="808" width="136.23828125" height="22"/></g><g transform="translate(-38,-22) scale(1,1)"><path fill="none" stroke="#000000" d="M 120 808 L 256.23828125 808 L 256.23828125 830 L 120 830 L 120 808 Z Z" stroke-miterlimit="10"/></g><g transform="translate(-38,-22) scale(1,1)"><path fill="none" stroke="#000000" d="M 153 808 L 153 830" stroke-miterlimit="10"/></g><g transform="translate(-38,-22) scale(1,1)"><g><path fill="none" stroke="none"/><text fill="#000000" stroke="none" font-family="Arial" font-size="13px" font-style="normal" font-weight="normal" text-decoration="none" x="160.509521484375" y="825.5">process_result</text></g></g><g transform="translate(-38,-22) scale(1,1)"><g><path fill="none" stroke="none"/><text fill="#000000" stroke="none" font-family="Arial" font-size="13px" font-style="normal" font-weight="bold" text-decoration="none" x="126.5" y="825.5">link</text></g></g><g transform="translate(-38,-22) scale(1,1)"><path fill="none" stroke="#000000" d="M 257 819 L 287 820" stroke-miterlimit="10" stroke-dasharray="3"/></g></g></svg>