<svg version="1.1" xmlns="http://www.w3.org/2000/svg" xmlns:xlink="http://www.w3.org/1999/xlink" width="623.0869140625" height="613"><defs/><g><g transform="translate(-110,-38) scale(1,1)"><path fill="#C0C0C0" stroke="none" d="M 135 88.5 C 135 83.2532944 139.2532944 79 144.5 79 C 149.7467056 79 154 83.2532944 154 88.5 C 154 93.7467056 149.7467056 98 144.5 98 C 139.2532944 98 135 93.7467056 135 88.5 Z" opacity="0.2"/></g><g transform="translate(-110,-38) scale(1,1)"><path fill="#000000" stroke="none" d="M 128 81.5 C 128 76.2532944 132.2532944 72 137.5 72 C 142.7467056 72 147 76.2532944 147 81.5 C 147 86.7467056 142.7467056 91 137.5 91 C 132.2532944 91 128 86.7467056 128 81.5 Z"/></g><g transform="translate(-110,-38) scale(1,1)"><g><path fill="none" stroke="none"/><text fill="#000000" stroke="none" font-family="Arial" font-size="13px" font-style="normal" font-weight="normal" text-decoration="none" x="125" y="66">IDE</text></g></g><g transform="translate(-110,-38) scale(1,1)"><g><path fill="none" stroke="none"/><text fill="#000000" stroke="none" font-family="Arial" font-size="13px" font-style="normal" font-weight="normal" text-decoration="none" x="637" y="66">CLI</text></g></g><g transform="translate(-110,-38) scale(1,1)"><path fill="#C0C0C0" stroke="none" d="M 647 96.5 C 647 91.2532944 651.2532944 87 656.5 87 C 661.7467056 87 666 91.2532944 666 96.5 C 666 101.7467056 661.7467056 106 656.5 106 C 651.2532944 106 647 101.7467056 647 96.5 Z" opacity="0.2"/></g><g transform="translate(-110,-38) scale(1,1)"><path fill="#000000" stroke="none" d="M 640 89.5 C 640 84.2532944 644.2532944 80 649.5 80 C 654.7467056 80 659 84.2532944 659 89.5 C 659 94.7467056 654.7467056 99 649.5 99 C 644.2532944 99 640 94.7467056 640 89.5 Z"/></g><g transform="translate(-110,-38) scale(1,1)"><path fill="#C0C0C0" stroke="none" d="M 177 239 L 229.01416015625 239 Q 239.01416015625 239 239.01416015625 249 L 239.01416015625 269 Q 239.01416015625 279 229.01416015625 279 L 177 279 Q 167 279 167 269 L 167 249 Q 167 239 177 239 Z" opacity="0.2"/></g><g transform="translate(-110,-38) scale(1,1)"><path fill="#ffffff" stroke="none" d="M 170 232 L 222.01416015625 232 Q 232.01416015625 232 232.01416015625 242 L 232.01416015625 262 Q 232.01416015625 272 222.01416015625 272 L 170 272 Q 160 272 160 262 L 160 242 Q 160 232 170 232 Z"/></g><g transform="translate(-110,-38) scale(1,1)"><path fill="none" stroke="#000000" d="M 170 232 L 222.01416015625 232 Q 232.01416015625 232 232.01416015625 242 L 232.01416015625 262 Q 232.01416015625 272 222.01416015625 272 L 170 272 Q 160 272 160 262 L 160 242 Q 160 232 170 232 Z" stroke-miterlimit="10"/></g><g transform="translate(-110,-38) scale(1,1)"><g><path fill="none" stroke="none"/><text fill="#000000" stroke="none" font-family="Arial" font-size="13px" font-style="normal" font-weight="bold" text-decoration="none" x="168.007080078125" y="251.5">__main__</text></g></g><g transform="translate(-110,-38) scale(1,1)"><path fill="#C0C0C0" stroke="none" d="M 377 399 L 566.77783203125 399 Q 576.77783203125 399 576.77783203125 409 L 576.77783203125 429 Q 576.77783203125 439 566.77783203125 439 L 377 439 Q 367 439 367 429 L 367 409 Q 367 399 377 399 Z" opacity="0.2"/></g><g transform="translate(-110,-38) scale(1,1)"><path fill="#ffffff" stroke="none" d="M 370 392 L 559.77783203125 392 Q 569.77783203125 392 569.77783203125 402 L 569.77783203125 422 Q 569.77783203125 432 559.77783203125 432 L 370 432 Q 360 432 360 422 L 360 402 Q 360 392 370 392 Z"/></g><g transform="translate(-110,-38) scale(1,1)"><path fill="none" stroke="#000000" d="M 370 392 L 559.77783203125 392 Q 569.77783203125 392 569.77783203125 402 L 569.77783203125 422 Q 569.77783203125 432 559.77783203125 432 L 370 432 Q 360 432 360 422 L 360 402 Q 360 392 370 392 Z" stroke-miterlimit="10"/></g><g transform="translate(-110,-38) scale(1,1)"><g><path fill="none" stroke="none"/><text fill="#000000" stroke="none" font-family="Arial" font-size="13px" font-style="normal" font-weight="bold" text-decoration="none" x="379.888916015625" y="411.5">run cli_parser in cli_parser.py</text></g></g><g transform="translate(-110,-38) scale(1,1)"><path fill="none" stroke="#000000" d="M 141 92 L 189 231" stroke-miterlimit="10"/></g><g transform="translate(-110,-38) scale(1,1)"><path fill="none" stroke="#000000" d="M 181.70384785563746 222.76797935581342 L 189 231 L 189.66175896252446 220.01992372178051" stroke-miterlimit="10"/></g><g transform="translate(-110,-38) scale(1,1)"><g><path fill="none" stroke="none"/><text fill="#000000" stroke="none" font-family="Arial" font-size="13px" font-style="normal" font-weight="normal" text-decoration="none" x="174.707763671875" y="161.5">manuel trigger</text></g></g><g transform="translate(-110,-38) scale(1,1)"><path fill="none" stroke="#000000" d="M 231 273 L 429 391" stroke-miterlimit="10"/></g><g transform="translate(-110,-38) scale(1,1)"><path fill="none" stroke="#000000" d="M 418.11502887723753 389.4133671954017 L 429 391 L 422.4250819214594 382.1812442906904" stroke-miterlimit="10"/></g><g transform="translate(-110,-38) scale(1,1)"><path fill="none" stroke="#000000" d="M 643 100 L 476 391" stroke-miterlimit="10"/></g><g transform="translate(-110,-38) scale(1,1)"><path fill="none" stroke="#000000" d="M 477.40738177237614 380.0904043820688 L 476 391 L 484.7094182364077 384.28092015352337" stroke-miterlimit="10"/></g><g transform="translate(-110,-38) scale(1,1)"><g><path fill="none" stroke="none"/><text fill="#000000" stroke="none" font-family="Arial" font-size="13px" font-style="normal" font-weight="normal" text-decoration="none" x="565.04345703125" y="255.5">via entry_point in setup.py</text></g></g><g transform="translate(-110,-38) scale(1,1)"><path fill="#C0C0C0" stroke="none" d="M 455 635.5 C 455 628.59644 460.59644 623 467.5 623 C 474.40356 623 480 628.59644 480 635.5 C 480 642.40356 474.40356 648 467.5 648 C 460.59644 648 455 642.40356 455 635.5 Z" opacity="0.2"/></g><g transform="translate(-110,-38) scale(1,1)"><path fill="none" stroke="#000000" d="M 448 628.5 C 448 621.59644 453.59644 616 460.5 616 C 467.40356 616 473 621.59644 473 628.5 C 473 635.40356 467.40356 641 460.5 641 C 453.59644 641 448 635.40356 448 628.5 Z" stroke-miterlimit="10"/></g><g transform="translate(-110,-38) scale(1,1)"><path fill="#000000" stroke="none" d="M 453 628.5 C 453 624.357864 456.357864 621 460.5 621 C 464.642136 621 468 624.357864 468 628.5 C 468 632.642136 464.642136 636 460.5 636 C 456.357864 636 453 632.642136 453 628.5 Z"/></g><g transform="translate(-110,-38) scale(1,1)"><rect fill="#ffffff" stroke="none" x="408" y="512" width="105.76318359375" height="22"/></g><g transform="translate(-110,-38) scale(1,1)"><path fill="none" stroke="#000000" d="M 408 512 L 513.76318359375 512 L 513.76318359375 534 L 408 534 L 408 512 Z Z" stroke-miterlimit="10"/></g><g transform="translate(-110,-38) scale(1,1)"><path fill="none" stroke="#000000" d="M 441 512 L 441 534" stroke-miterlimit="10"/></g><g transform="translate(-110,-38) scale(1,1)"><g><path fill="none" stroke="none"/><text fill="#000000" stroke="none" font-family="Arial" font-size="13px" font-style="normal" font-weight="normal" text-decoration="none" x="447.77197265625" y="529.5">cli_parser</text></g></g><g transform="translate(-110,-38) scale(1,1)"><g><path fill="none" stroke="none"/><text fill="#000000" stroke="none" font-family="Arial" font-size="13px" font-style="normal" font-weight="bold" text-decoration="none" x="414.5" y="529.5">link</text></g></g><g transform="translate(-110,-38) scale(1,1)"><path fill="none" stroke="#000000" d="M 463 433 L 460 511" stroke-miterlimit="10" stroke-dasharray="3"/></g><g transform="translate(-110,-38) scale(1,1)"><path fill="none" stroke="#000000" d="M 460 535 L 460 615" stroke-miterlimit="10" stroke-dasharray="3"/></g></g></svg>